{"glyphs":{"0":{"ha":503,"x_min":56,"x_max":482,"o":"m 381 749 q 360 764 368 764 q 315 725 353 764 q 253 654 276 686 q 114 319 114 471 q 115 283 114 294 q 171 161 128 186 q 197 156 178 156 q 240 165 218 156 q 313 238 274 183 q 379 361 353 293 q 425 588 425 478 q 424 596 425 590 q 424 604 424 601 q 381 749 417 706 m 300 819 q 325 829 315 829 q 340 825 332 829 q 363 808 349 821 q 376 792 376 796 q 404 763 376 788 q 465 661 447 724 q 482 550 482 608 q 481 542 482 547 q 481 535 481 536 q 429 328 467 417 q 362 217 407 272 q 282 144 317 161 q 215 133 258 133 q 149 144 172 133 q 56 336 63 188 l 56 356 q 194 713 56 528 q 300 819 250 786 z "},"1":{"ha":281,"x_min":56,"x_max":249,"o":"m 163 858 q 200 888 186 888 q 219 881 208 888 q 249 833 249 864 q 232 711 249 821 q 196 518 229 688 q 139 160 186 467 q 125 85 129 89 q 108 81 121 81 q 64 94 75 81 q 58 113 58 100 q 61 161 58 114 q 83 340 64 194 q 136 672 108 532 q 149 750 149 742 q 124 736 149 753 q 90 719 103 719 q 68 728 81 719 q 56 743 56 736 q 96 788 56 750 q 163 858 131 821 z "},"2":{"ha":458,"x_min":-58,"x_max":447,"o":"m 288 881 q 326 889 308 889 q 406 851 367 889 q 447 754 447 811 q 426 647 447 711 q 363 511 407 583 q 238 349 318 438 q 79 200 157 261 q 38 163 38 168 q 51 161 38 161 q 134 166 63 161 q 249 171 206 171 q 365 151 340 171 q 374 140 374 144 q 282 133 374 133 q 21 117 142 133 q -21 113 -6 113 q -51 124 -42 113 q -50 139 -58 132 q -10 171 -31 153 q 75 251 24 197 q 158 347 126 304 q 298 574 242 457 q 368 781 354 692 q 371 810 371 806 q 354 831 371 831 q 318 822 343 831 q 222 759 271 804 q 139 658 172 714 q 111 608 124 633 q 97 604 110 603 q 78 611 85 606 q 71 626 71 618 q 90 681 71 638 q 181 807 122 749 q 288 881 232 858 z "},"3":{"ha":485,"x_min":-3,"x_max":458,"o":"m 301 881 q 328 882 311 882 q 443 824 407 882 q 458 775 458 800 q 435 697 458 744 q 344 578 406 639 l 307 540 l 335 526 q 414 453 383 503 q 444 350 444 404 q 378 201 444 268 q 280 140 340 164 q 161 117 219 117 q 115 121 139 117 q 24 168 60 132 q -3 213 -3 194 q 0 229 -3 218 q 13 243 3 243 q 34 233 24 243 q 46 210 44 224 q 89 165 53 169 l 97 165 q 206 185 153 165 q 331 273 279 213 q 382 393 382 333 q 356 475 382 438 q 296 506 335 506 q 226 486 264 506 q 201 478 210 478 q 185 483 192 478 q 175 497 175 489 q 196 519 175 508 q 281 602 228 538 q 360 722 333 667 q 389 821 389 786 q 358 831 389 831 q 297 822 326 831 q 181 762 236 803 q 106 679 125 721 q 85 661 96 660 q 66 672 75 663 q 57 690 57 681 q 110 774 57 715 q 202 844 147 814 q 301 881 257 875 z "},"4":{"ha":486,"x_min":-4,"x_max":431,"o":"m 203 822 q 228 858 214 858 q 240 856 232 858 q 272 833 257 849 q 286 800 286 817 q 246 681 286 764 q 78 433 203 592 q 50 393 50 399 q 53 391 50 392 q 57 392 56 390 q 247 415 64 396 q 318 429 317 422 q 319 438 318 431 q 323 456 321 444 q 326 478 325 468 q 356 615 344 592 q 375 628 363 628 q 401 619 385 628 q 431 585 431 606 q 378 347 431 560 q 319 85 325 133 q 313 39 314 44 q 300 31 310 32 q 283 35 290 29 q 274 85 274 42 q 303 346 274 175 q 307 374 307 367 q 294 385 307 385 q 274 383 283 385 q 108 365 194 378 q 35 357 50 357 q 11 363 21 357 q -4 381 -4 371 q 38 471 -4 396 q 203 822 172 715 z "},"5":{"ha":500,"x_min":18,"x_max":528,"o":"m 183 821 q 204 836 194 836 q 231 828 214 836 q 236 824 235 826 q 242 821 238 821 q 340 829 256 821 q 460 836 419 836 q 518 831 508 836 q 528 814 528 824 q 519 806 528 808 q 464 800 511 804 q 279 775 372 793 l 261 772 l 242 724 q 168 554 211 649 q 149 504 149 511 q 151 500 149 500 q 158 501 156 500 q 211 504 169 504 q 275 494 256 504 q 368 329 368 450 q 350 226 368 279 q 303 154 335 186 q 232 110 271 122 q 147 99 194 99 q 100 103 119 99 q 43 134 68 113 q 18 174 18 156 q 31 188 18 188 q 53 169 44 188 q 76 143 58 156 q 117 133 94 131 q 239 181 197 142 q 290 262 269 208 q 310 367 310 315 q 274 464 310 433 q 231 474 263 474 q 128 433 176 474 q 97 417 107 417 q 76 422 86 417 q 65 435 65 428 q 96 542 65 444 q 150 704 126 640 q 163 756 163 738 l 163 769 q 167 800 161 796 q 183 821 172 803 z "},"6":{"ha":519,"x_min":-3,"x_max":519,"o":"m 350 332 q 347 347 350 339 q 328 356 344 356 q 211 308 292 356 q 103 236 131 260 q 88 213 88 224 q 94 188 88 206 q 160 126 119 126 q 252 167 199 126 q 329 256 306 207 q 350 332 350 294 m 439 869 q 481 868 463 876 q 506 847 493 863 q 519 825 519 832 q 506 808 519 818 q 476 793 492 797 q 372 732 442 785 q 151 493 228 624 q 83 307 83 376 q 85 289 83 289 q 90 292 86 289 q 229 378 181 356 q 303 397 272 397 q 379 363 346 397 q 400 314 400 339 q 388 261 400 292 q 276 129 357 182 q 189 99 229 99 l 176 99 q 65 151 110 100 q 44 173 47 171 q 35 171 42 175 q 6 171 22 160 q -3 183 -3 178 q 11 211 -3 192 q 21 247 25 231 q 18 296 18 258 q 24 369 18 343 q 119 590 47 479 q 275 765 181 682 q 439 869 369 847 z "},"7":{"ha":494,"x_min":56,"x_max":446,"o":"m 379 851 q 413 847 388 860 q 435 828 422 843 q 446 800 446 813 q 424 740 446 785 q 318 521 343 583 q 299 464 299 472 q 326 454 299 460 q 364 438 351 450 q 375 424 375 426 q 361 418 375 418 q 328 422 351 418 q 296 425 304 425 q 288 424 290 425 q 244 315 278 419 q 186 74 186 131 q 171 57 186 57 q 153 61 164 57 l 139 68 l 142 101 q 190 343 147 172 q 207 414 207 413 q 172 419 207 422 q 164 419 169 419 q 156 418 158 418 q 108 438 119 418 q 106 446 106 443 q 176 465 106 461 q 226 472 224 468 l 246 528 q 340 736 285 636 q 371 796 371 792 q 360 800 371 800 q 225 781 339 800 q 104 757 111 763 l 100 757 q 63 774 79 757 q 56 786 56 783 q 115 814 56 801 q 319 843 178 826 l 379 851 z "},"8":{"ha":563,"x_min":0,"x_max":508,"o":"m 307 344 q 294 353 300 353 q 238 321 293 353 q 206 302 228 315 q 165 278 183 289 q 133 261 146 268 q 39 185 44 211 q 38 175 38 182 q 114 136 38 136 l 115 136 q 224 164 169 136 q 281 207 250 178 q 321 256 311 236 q 329 292 329 275 q 307 344 329 319 m 343 765 q 338 768 342 768 q 301 750 332 768 q 149 574 149 656 q 175 511 149 539 q 240 453 189 496 q 294 411 290 411 q 368 474 308 411 q 440 576 417 525 q 463 653 463 622 q 449 696 463 676 q 401 738 435 715 q 354 761 368 761 q 343 765 344 761 m 296 872 q 332 869 315 876 q 368 842 353 861 q 383 807 383 822 l 383 800 l 383 797 l 382 794 q 411 768 382 788 q 497 675 472 724 q 508 621 508 653 q 489 550 508 589 q 354 397 449 471 l 329 378 l 353 350 q 396 257 396 297 q 388 219 396 239 q 275 124 363 163 q 161 99 221 99 q 32 136 86 99 q 0 186 0 157 q 11 219 0 200 q 129 306 28 249 q 260 388 260 379 q 215 428 260 392 q 100 533 129 494 q 71 618 71 571 l 71 628 q 85 688 72 664 q 176 803 113 747 q 296 872 240 858 z "},"9":{"ha":439,"x_min":-50,"x_max":435,"o":"m 94 600 q 113 592 99 592 q 225 644 147 592 q 332 724 303 696 q 346 747 346 736 q 339 772 346 758 q 274 831 311 831 l 269 831 q 179 785 231 829 q 107 692 128 740 q 92 619 92 657 q 94 600 92 604 m 32 72 q -8 71 8 64 q -35 90 -21 76 q -50 113 -50 104 q -37 131 -50 119 q -10 147 -24 142 q 92 214 25 157 q 299 465 226 328 q 357 649 357 579 q 356 668 357 664 q 347 668 354 672 q 214 575 274 608 q 136 551 169 551 q 64 582 94 551 q 40 635 40 606 q 50 683 40 650 q 90 758 61 719 q 153 821 118 796 q 251 857 201 857 l 254 857 q 365 810 318 857 q 388 791 383 793 q 397 793 392 789 q 426 794 407 806 q 435 782 435 789 q 424 754 435 772 q 415 717 411 733 q 422 640 422 692 q 419 594 422 619 q 336 369 403 483 q 190 187 281 275 q 32 72 100 99 z "}," ":{"ha":347,"x_min":0,"x_max":0,"o":""},"!":{"ha":274,"x_min":56,"x_max":221,"o":"m 138 829 q 163 890 138 890 q 211 867 192 890 q 218 826 221 854 q 186 578 211 746 q 136 293 165 415 q 124 258 129 267 q 110 250 119 250 q 99 251 103 250 q 82 272 82 256 q 89 335 82 282 q 138 829 138 669 m 67 157 q 89 161 75 161 q 126 150 115 161 q 132 138 132 144 q 131 131 132 135 q 129 121 131 128 q 126 108 128 114 q 119 47 125 101 q 114 18 118 21 q 97 15 110 17 q 93 15 96 15 q 89 14 90 14 q 58 61 64 14 q 56 113 56 92 l 56 122 q 67 157 57 151 z "},"\"":{"ha":322,"x_min":54,"x_max":268,"o":"m 214 763 q 211 779 211 769 q 218 789 211 789 q 238 779 226 789 q 268 717 268 757 q 238 658 268 678 q 210 650 225 650 q 174 664 188 650 q 165 678 164 675 q 179 689 167 682 q 217 744 217 707 q 214 763 217 751 m 104 763 q 101 779 101 769 q 108 789 101 789 q 128 779 117 789 q 158 717 158 757 q 128 658 158 678 q 100 650 115 650 q 64 664 78 650 q 56 678 54 675 q 69 689 57 682 q 107 744 107 707 q 104 763 107 751 z "},"#":{"ha":760,"x_min":46,"x_max":707,"o":"m 478 571 q 440 572 472 576 q 408 569 438 572 q 351 564 379 567 q 322 560 324 561 q 310 501 318 556 q 303 426 303 447 l 365 429 q 474 439 469 433 q 479 544 479 450 q 478 571 479 569 m 247 833 q 263 838 253 838 q 308 826 282 838 q 346 800 333 815 q 356 776 356 789 q 354 753 356 764 q 342 676 351 715 q 333 633 333 638 q 364 629 333 629 q 479 636 472 629 q 488 689 485 642 q 499 775 490 733 q 526 797 503 797 q 586 767 558 797 q 597 738 597 754 q 590 690 597 719 l 582 646 q 588 635 582 638 q 611 632 594 633 q 619 632 617 632 q 671 624 658 629 q 690 608 682 618 q 696 593 699 597 q 635 586 692 589 q 571 578 576 583 q 560 533 567 574 q 551 464 553 493 l 551 438 l 613 435 q 667 431 657 433 q 690 421 678 429 q 704 403 707 410 q 625 393 703 396 q 544 388 547 390 q 538 335 543 386 q 524 176 528 244 l 522 157 l 507 158 q 482 168 492 158 q 471 281 472 178 l 468 383 l 453 383 q 294 368 303 376 q 288 353 290 364 q 284 324 286 342 q 282 301 282 306 q 271 229 282 296 q 260 174 264 185 q 246 164 257 164 l 236 164 q 208 176 214 167 q 203 228 203 185 l 203 271 l 203 300 q 200 363 203 360 l 194 363 q 154 360 188 363 q 122 358 142 358 q 69 376 96 358 q 61 406 46 393 q 133 415 63 407 q 206 424 204 422 q 213 472 208 426 q 218 539 218 517 q 217 544 218 542 l 217 547 q 183 549 213 551 q 172 548 179 549 q 163 547 165 547 q 103 568 125 547 q 89 588 89 581 q 168 614 89 606 q 221 624 217 619 q 228 701 222 625 q 247 833 235 825 z "},"$":{"ha":574,"x_min":56,"x_max":519,"o":"m 394 340 q 371 381 390 351 q 342 410 351 410 q 337 406 339 410 q 333 397 335 403 q 331 384 332 390 q 328 367 329 378 q 325 349 326 356 q 313 292 322 333 q 301 238 304 251 q 289 175 289 178 q 294 172 289 172 q 324 181 307 172 q 363 212 342 190 q 392 251 383 233 q 400 300 400 269 q 394 340 400 324 m 343 749 q 338 756 343 756 q 306 740 332 756 q 235 681 267 718 q 194 615 203 644 q 193 600 193 610 q 215 550 193 571 q 256 522 228 538 q 290 506 283 506 q 299 516 296 506 q 314 592 301 526 q 326 652 318 613 q 335 700 333 692 q 343 749 343 744 m 221 85 q 224 99 221 89 q 228 113 228 110 q 204 133 228 124 q 128 181 150 157 q 75 275 106 206 q 56 336 56 322 q 67 349 56 349 q 85 343 81 349 q 101 314 90 338 q 145 240 115 283 q 190 183 175 197 q 225 164 213 164 q 233 167 231 164 q 253 257 238 171 q 265 332 257 281 q 276 399 274 383 q 285 451 285 440 q 282 461 285 456 q 239 489 276 468 q 117 624 117 557 q 182 740 117 675 q 325 819 249 807 q 358 828 357 825 q 367 849 363 832 q 376 881 371 867 q 390 896 382 896 q 431 876 411 896 q 436 861 436 871 q 433 838 436 849 l 428 808 q 467 779 446 794 q 519 667 519 742 q 508 599 519 624 q 486 579 500 579 q 460 589 465 579 q 456 643 456 599 q 446 719 456 692 q 419 757 432 757 q 376 586 415 757 q 367 545 372 565 q 358 512 361 525 q 353 482 356 499 l 350 465 l 382 440 q 471 325 449 383 q 482 272 479 304 l 482 257 q 471 215 482 239 q 404 146 451 174 q 306 118 357 118 q 281 115 288 118 q 271 97 275 111 q 261 70 265 75 q 246 65 257 65 q 221 85 221 65 z "},"%":{"ha":779,"x_min":56,"x_max":725,"o":"m 407 225 q 397 239 399 239 q 385 172 385 239 l 385 164 q 393 121 385 121 q 408 150 397 121 q 415 190 415 174 q 407 225 415 213 m 183 718 q 184 724 183 721 q 185 729 185 728 q 181 746 185 746 q 158 711 175 746 q 147 669 147 689 q 151 660 147 660 l 153 660 q 169 676 157 663 q 183 718 182 692 m 250 829 q 230 804 250 825 q 210 779 210 783 q 218 740 210 776 q 224 699 224 722 q 190 617 224 647 q 157 603 175 603 q 89 642 125 603 q 58 724 58 674 q 97 832 58 781 q 171 882 135 882 l 172 882 q 204 875 193 882 q 220 870 214 869 q 244 879 226 871 q 294 897 260 886 q 342 904 322 904 q 433 869 397 904 q 468 776 468 833 q 438 674 468 731 q 318 492 408 617 q 113 133 144 250 q 106 88 106 108 q 110 69 106 74 q 114 68 111 68 q 179 97 136 68 q 260 168 211 118 q 331 251 308 218 q 353 271 338 261 q 379 281 369 281 q 457 240 417 281 q 497 164 497 200 q 474 100 497 133 q 431 64 450 67 q 426 63 429 64 q 421 63 422 63 q 376 77 399 63 q 342 111 353 92 q 331 144 333 129 q 321 168 326 168 q 288 142 318 168 q 122 43 179 43 q 88 51 104 43 q 62 77 68 63 q 56 125 56 92 q 88 281 56 186 q 313 675 138 429 q 365 751 349 724 q 394 843 394 801 q 386 869 394 867 q 368 872 382 872 q 294 857 338 872 q 250 829 250 842 m 679 197 q 671 225 679 225 q 644 206 664 225 q 601 126 606 167 l 601 115 q 613 96 601 96 q 625 99 617 96 q 663 138 646 107 q 679 197 679 168 m 565 269 q 590 281 575 281 q 622 272 600 281 q 647 256 643 263 q 663 254 649 251 l 667 254 q 715 218 696 254 q 725 179 725 200 q 700 113 725 144 q 650 74 675 81 q 629 71 643 71 q 550 118 572 71 q 542 176 542 135 q 565 269 542 244 z "},"&":{"ha":642,"x_min":56,"x_max":586,"o":"m 500 888 q 518 893 514 893 q 551 881 531 893 q 586 843 586 861 q 565 808 586 839 q 489 664 549 783 l 435 551 l 421 551 q 394 560 408 551 q 379 578 381 568 q 369 631 378 583 q 326 740 354 713 q 304 750 318 750 q 221 690 268 750 q 149 553 174 631 q 135 467 135 507 q 138 443 135 454 q 144 433 140 435 q 167 433 149 432 q 236 464 200 438 q 301 490 271 490 q 342 478 322 490 q 363 456 363 464 q 347 436 363 449 q 219 297 267 372 q 171 161 171 221 q 172 143 171 149 q 183 124 176 124 q 265 211 204 124 q 335 307 333 304 q 355 343 343 318 q 375 379 367 368 q 404 390 385 392 q 433 380 421 389 q 446 361 446 371 q 436 319 446 351 q 415 247 425 281 q 406 168 406 210 q 433 63 406 97 q 467 44 449 46 q 496 35 496 42 q 467 25 496 25 l 465 25 q 388 60 422 25 q 332 197 338 110 q 326 239 329 239 q 294 193 325 239 q 206 97 243 111 q 165 94 186 90 q 103 200 103 108 q 142 344 103 267 q 164 396 164 389 q 149 400 164 400 q 97 420 124 400 q 61 467 69 440 q 56 514 56 482 q 69 607 56 563 q 217 793 122 763 q 254 799 232 799 q 333 775 294 799 q 390 713 371 751 q 408 696 403 688 q 410 703 410 699 q 429 760 410 708 q 460 833 449 811 q 500 888 481 876 z "},"'":{"ha":213,"x_min":54,"x_max":158,"o":"m 104 763 q 101 779 101 769 q 108 789 101 789 q 128 779 117 789 q 158 717 158 757 q 128 658 158 678 q 100 650 115 650 q 64 664 78 650 q 56 678 54 675 q 69 689 57 682 q 107 744 107 707 q 104 763 107 751 z "},"(":{"ha":382,"x_min":56,"x_max":328,"o":"m 246 99 q 228 90 239 90 q 156 124 196 90 q 83 236 111 161 q 56 393 56 311 q 80 561 56 493 q 176 729 104 629 q 239 806 201 764 q 288 853 276 847 q 311 854 294 857 q 328 843 328 851 q 269 732 328 818 q 189 576 217 653 q 161 410 161 499 q 163 354 161 375 q 183 219 167 271 q 239 119 200 168 q 246 99 250 104 z "},")":{"ha":422,"x_min":56,"x_max":367,"o":"m 201 847 q 217 853 206 853 q 290 814 251 853 q 346 714 325 779 q 367 576 367 649 q 365 536 367 550 q 325 370 356 436 q 215 213 294 304 q 147 142 188 181 q 94 100 106 104 q 71 101 86 97 q 56 113 56 104 q 124 218 56 133 q 217 365 186 299 q 263 585 258 457 l 263 617 q 207 825 263 740 q 201 847 196 840 z "},"*":{"ha":476,"x_min":56,"x_max":424,"o":"m 211 694 q 222 734 217 694 q 231 817 226 774 q 243 868 236 861 q 256 874 249 874 q 288 860 267 874 q 315 819 315 842 q 304 779 315 815 q 296 747 296 754 q 299 743 296 743 l 304 746 q 385 797 372 797 q 405 785 393 797 q 419 763 417 774 q 401 731 424 749 q 331 676 386 715 q 282 635 282 642 q 324 597 282 629 q 410 514 410 531 q 406 507 410 508 l 403 507 q 324 558 393 507 q 267 596 274 596 q 260 586 263 596 q 248 515 258 576 q 238 451 238 454 q 232 448 238 449 q 219 450 226 447 q 206 457 211 453 l 194 465 l 197 518 q 199 553 199 533 q 194 571 199 571 q 124 518 188 571 q 83 489 89 489 q 67 500 78 489 q 56 518 56 511 q 122 594 56 533 q 189 658 189 654 q 156 691 189 665 q 113 721 122 717 q 88 749 100 725 q 78 778 78 767 q 88 789 78 788 l 90 789 q 165 735 110 789 q 211 694 208 694 z "},"+":{"ha":500,"x_min":56,"x_max":446,"o":"m 233 715 q 249 722 238 722 q 300 699 274 722 q 311 669 311 689 q 309 644 311 656 q 303 618 307 633 q 296 592 299 603 q 296 558 289 563 q 331 554 303 554 q 385 558 364 554 q 403 560 392 560 q 440 546 428 560 q 446 536 446 538 q 346 518 446 522 l 285 515 l 279 493 q 265 410 278 489 q 249 324 253 332 q 217 322 242 310 q 204 351 204 328 q 206 392 204 363 q 211 455 208 422 q 214 494 214 488 l 214 511 l 150 514 q 74 524 85 515 q 58 539 64 531 q 56 546 56 544 q 140 558 56 557 l 218 561 q 226 646 222 581 q 233 715 229 701 z "},",":{"ha":213,"x_min":54,"x_max":158,"o":"m 104 151 q 101 168 101 158 q 108 178 101 178 q 128 168 117 178 q 158 106 158 146 q 128 47 158 67 q 100 39 115 39 q 64 53 78 39 q 56 67 54 64 q 69 78 57 71 q 107 133 107 96 q 104 151 107 140 z "},"-":{"ha":413,"x_min":50,"x_max":358,"o":"m 194 557 q 249 558 219 557 q 293 559 278 558 q 310 560 308 560 l 313 560 q 342 547 326 560 q 358 524 358 535 q 347 512 358 515 q 294 504 335 508 q 144 488 171 490 q 124 486 136 486 q 75 504 94 486 q 56 542 50 526 q 194 557 61 554 z "},".":{"ha":236,"x_min":56,"x_max":182,"o":"m 68 158 q 94 179 81 179 q 151 152 121 179 q 182 101 182 125 q 181 97 182 100 l 181 94 q 164 75 178 85 q 135 68 153 68 q 63 107 89 68 q 56 128 56 118 q 68 158 56 139 z "},"/":{"ha":561,"x_min":56,"x_max":508,"o":"m 429 864 q 442 871 436 871 q 477 851 456 871 q 504 813 499 831 q 501 782 508 800 q 315 434 486 736 q 115 99 144 132 q 92 88 104 83 q 69 100 82 90 q 56 115 56 110 q 167 336 56 121 q 393 792 332 656 q 429 864 424 858 z "},":":{"ha":250,"x_min":56,"x_max":196,"o":"m 82 367 q 108 388 94 388 q 165 360 135 388 q 196 310 196 333 q 194 306 196 308 l 194 303 q 178 283 192 293 q 149 276 167 276 q 76 315 103 276 q 69 336 69 326 q 82 367 69 347 m 68 158 q 94 179 81 179 q 151 152 121 179 q 182 101 182 125 q 181 97 182 100 l 181 94 q 164 75 178 85 q 135 68 153 68 q 63 107 89 68 q 56 128 56 118 q 68 158 56 139 z "},";":{"ha":250,"x_min":54,"x_max":196,"o":"m 104 151 q 101 168 101 158 q 108 178 101 178 q 128 168 117 178 q 158 106 158 146 q 128 47 158 67 q 100 39 115 39 q 64 53 78 39 q 56 67 54 64 q 69 78 57 71 q 107 133 107 96 q 104 151 107 140 m 82 367 q 108 388 94 388 q 165 360 135 388 q 196 310 196 333 q 194 306 196 308 l 194 303 q 178 283 192 293 q 149 276 167 276 q 76 315 103 276 q 69 336 69 326 q 82 367 69 347 z "},"<":{"ha":488,"x_min":56,"x_max":433,"o":"m 335 685 q 351 688 339 688 q 422 653 392 688 q 433 632 433 639 q 368 579 433 617 q 165 479 304 542 q 142 464 142 468 q 263 386 142 458 q 383 300 383 314 q 375 294 383 294 q 240 356 353 294 q 79 456 107 429 q 56 489 56 479 q 65 506 56 496 q 194 593 72 513 q 335 685 315 674 z "},"=":{"ha":413,"x_min":50,"x_max":363,"o":"m 194 474 q 249 474 219 474 q 293 476 278 475 q 310 476 308 476 l 313 476 q 342 464 326 476 q 358 440 358 451 q 347 428 358 432 q 294 421 335 425 q 144 404 171 407 q 124 403 136 403 q 75 421 94 403 q 56 458 50 443 q 194 474 61 471 m 199 600 q 253 601 225 600 q 297 603 281 603 q 314 604 313 604 l 315 603 l 317 603 q 347 590 331 603 q 363 567 363 578 q 351 555 363 558 q 299 547 339 551 q 149 531 175 533 q 128 529 140 529 q 79 547 99 529 q 60 585 54 569 q 199 600 65 597 z "},">":{"ha":443,"x_min":56,"x_max":389,"o":"m 64 683 q 68 692 64 690 q 82 693 72 693 q 156 657 108 693 q 306 565 207 617 q 374 526 358 538 q 389 500 389 514 q 349 449 389 485 q 188 319 310 414 q 90 258 108 258 q 69 265 81 258 q 56 282 56 274 q 147 380 56 288 q 272 500 239 472 q 294 522 294 517 q 229 558 294 526 q 83 651 128 607 q 64 683 64 671 z "},"?":{"ha":564,"x_min":56,"x_max":508,"o":"m 322 883 q 371 890 350 890 q 464 853 422 890 q 508 757 508 810 q 476 655 508 706 q 350 510 444 604 q 181 275 219 379 q 156 238 167 238 q 144 240 153 238 q 122 253 131 244 q 118 261 118 257 q 131 303 118 271 q 197 435 158 376 q 315 578 235 493 q 414 699 385 653 q 444 785 443 744 q 442 822 447 814 q 407 835 436 835 q 328 817 372 835 q 192 726 251 785 q 106 597 133 667 q 89 585 100 585 q 65 597 78 585 q 57 625 56 607 q 101 725 64 671 q 194 819 139 779 q 258 856 215 835 q 322 883 300 876 m 88 167 q 108 174 92 174 q 144 165 125 174 q 168 139 168 153 q 158 97 168 131 q 146 50 146 57 q 117 39 146 32 q 95 48 100 43 q 88 69 90 53 q 85 122 85 83 q 88 167 85 161 z "},"@":{"ha":761,"x_min":56,"x_max":706,"o":"m 363 840 q 418 846 386 846 q 632 750 539 846 q 688 673 671 710 q 706 578 704 636 l 706 551 q 664 375 706 458 q 599 297 632 313 q 553 288 579 288 q 490 308 519 288 q 447 363 460 329 q 439 394 439 388 q 432 404 439 404 q 349 339 414 404 q 297 306 315 306 q 275 313 289 306 q 235 379 244 328 q 231 418 231 397 q 250 507 231 460 q 322 614 276 575 q 417 653 367 653 q 456 647 439 653 q 493 625 474 642 q 519 593 513 608 q 525 556 525 576 q 504 503 525 503 q 494 507 500 503 q 483 529 483 514 q 472 590 483 574 q 464 594 469 594 q 419 565 450 594 q 314 392 349 500 q 303 349 303 358 q 310 340 303 340 q 367 386 313 340 q 425 432 422 432 q 449 429 433 435 q 474 401 465 421 q 485 369 481 385 q 501 338 488 356 q 524 317 515 319 l 529 317 q 588 356 558 317 q 642 476 625 406 q 651 585 651 510 q 644 656 651 632 q 576 763 626 724 q 456 801 525 801 q 287 739 369 801 q 157 574 204 676 q 121 414 121 496 q 256 146 121 236 q 374 110 311 110 q 547 169 465 110 q 599 199 588 199 q 617 193 606 199 q 636 176 636 185 q 571 121 636 158 q 495 88 528 96 q 404 79 463 79 l 400 79 q 328 85 353 79 q 263 108 303 90 q 108 238 161 157 q 61 354 75 290 q 56 432 56 381 q 61 504 56 481 q 172 718 88 619 q 363 840 257 817 z "},"A":{"ha":558,"x_min":7,"x_max":553,"o":"m 468 828 l 467 882 l 450 879 q 331 789 403 875 q 225 626 276 725 q 159 474 193 563 q 125 365 125 386 q 126 361 125 361 l 128 361 q 228 378 144 361 q 281 388 250 382 q 332 397 311 393 q 361 403 353 401 q 399 418 397 408 q 408 474 401 428 q 442 649 413 499 q 468 818 468 772 l 468 828 m 372 907 q 429 926 403 926 q 472 917 449 926 q 553 768 553 883 q 543 672 553 722 q 514 526 528 592 q 496 425 496 444 q 504 406 496 411 q 497 383 522 392 q 461 260 478 378 q 443 15 443 142 q 454 -83 443 -64 q 456 -90 456 -86 q 443 -99 456 -99 q 403 -79 418 -99 q 383 103 383 -53 q 390 308 383 179 l 390 338 q 389 361 390 360 q 385 363 386 363 q 340 356 372 363 q 114 300 124 306 q 96 251 103 294 q 68 26 76 144 q 60 -58 63 -47 q 43 -71 57 -69 l 32 -71 q 14 -64 18 -71 q 7 -33 10 -57 l 7 -10 q 26 217 7 81 l 38 293 l 25 306 q 15 321 15 314 q 35 336 15 329 q 53 353 46 340 q 78 425 60 367 q 215 728 133 596 q 372 907 296 861 z "},"B":{"ha":654,"x_min":28,"x_max":683,"o":"m 428 242 q 431 257 433 257 q 358 221 422 257 q 253 157 294 185 q 109 34 161 94 q 57 -72 57 -26 q 63 -97 57 -81 q 83 -117 71 -117 q 118 -107 97 -117 q 256 1 181 -79 q 397 186 332 81 q 428 242 424 228 m 376 860 q 425 875 407 875 l 435 875 q 506 840 474 871 q 549 765 539 808 q 553 736 553 747 q 546 697 553 728 q 449 547 531 635 q 396 486 396 492 q 411 478 396 481 q 454 456 428 475 q 494 418 481 436 q 518 368 511 393 q 532 339 526 339 q 557 347 540 339 q 619 367 578 357 q 674 378 661 378 l 676 378 q 683 372 683 375 q 632 344 683 363 q 575 321 619 338 l 529 303 l 522 265 q 407 54 504 171 q 203 -115 310 -62 q 119 -137 164 -136 l 108 -137 q 47 -123 65 -137 q 29 -74 29 -108 l 29 -61 q 93 54 33 -11 q 375 256 189 157 q 438 291 426 282 q 454 315 450 300 q 460 357 460 333 q 456 396 460 375 q 433 425 450 419 q 400 431 418 431 q 269 374 343 431 q 225 347 236 347 q 214 350 222 347 q 179 379 179 364 q 225 425 179 385 q 322 522 265 460 q 413 629 379 583 q 488 794 488 731 q 461 835 488 829 l 451 835 q 376 807 419 835 q 300 739 332 779 q 210 585 242 664 q 147 350 179 506 q 138 247 139 303 l 135 176 l 117 176 q 92 192 100 176 q 61 276 83 207 q 28 489 28 381 q 40 606 28 553 q 69 677 49 636 q 99 725 89 718 q 111 729 103 729 q 158 712 132 729 q 183 679 183 694 q 165 626 183 671 q 122 464 126 539 q 122 445 122 456 q 121 433 121 435 l 121 428 q 149 515 122 428 q 247 731 183 636 q 376 860 311 826 z "},"C":{"ha":588,"x_min":29,"x_max":629,"o":"m 371 854 q 403 857 381 857 q 493 834 450 857 q 554 776 536 811 q 569 697 569 743 q 553 602 569 646 q 514 557 538 558 q 510 556 513 557 l 507 556 q 488 574 488 556 q 493 600 488 585 q 503 686 503 625 q 496 754 503 729 q 447 806 482 806 q 332 731 407 806 q 136 347 181 579 q 124 203 124 283 q 135 94 124 135 q 269 -68 182 -68 q 315 -57 294 -68 q 433 58 376 -28 q 563 325 496 151 q 591 391 585 381 q 610 403 597 401 l 615 403 q 629 390 629 403 q 615 340 629 376 q 432 -12 515 74 q 263 -94 351 -94 l 246 -94 q 53 96 115 -85 q 29 250 29 165 q 30 269 29 256 q 31 289 31 282 q 108 601 38 461 q 231 769 157 699 q 371 854 306 840 z "},"D":{"ha":682,"x_min":0,"x_max":703,"o":"m 449 263 q 442 268 449 268 q 329 216 432 268 q 201 146 226 164 q 96 46 142 106 q 58 -53 58 -6 q 65 -86 58 -69 q 76 -103 72 -101 q 96 -104 79 -106 q 235 -28 151 -97 q 375 128 318 42 q 423 209 397 163 q 449 263 449 256 m 511 783 q 453 832 486 832 q 421 825 442 832 q 262 692 339 796 q 136 442 185 589 q 101 310 111 371 q 82 104 82 207 q 83 88 82 89 q 122 118 92 88 q 190 175 154 150 q 407 286 263 224 q 472 324 460 310 q 503 399 485 338 q 540 633 540 528 q 511 783 540 725 m 382 864 q 424 869 394 869 l 435 869 q 554 810 503 865 q 625 669 606 756 q 632 586 632 642 q 613 422 632 500 q 601 365 601 378 q 603 361 601 361 l 639 371 q 689 381 674 381 q 703 374 703 381 q 642 344 703 365 l 583 325 l 557 271 q 206 -104 428 0 q 111 -128 154 -128 q 38 -94 54 -128 q 31 -51 31 -82 q 39 0 31 -22 q 36 35 49 26 q 13 106 22 46 q 0 313 0 175 q 10 478 0 429 q 71 674 31 589 q 114 750 88 710 q 150 796 140 790 q 176 800 158 800 q 244 779 233 800 q 254 774 249 774 q 292 799 267 774 q 382 864 340 847 z "},"E":{"ha":542,"x_min":0,"x_max":571,"o":"m 272 842 q 354 853 306 853 q 436 839 407 853 q 532 714 532 796 q 531 708 532 711 q 531 703 531 706 q 499 608 526 660 q 454 556 472 556 q 439 567 439 556 q 451 607 439 575 q 475 719 475 672 q 471 758 475 739 q 446 797 463 789 q 406 806 429 806 q 277 768 351 806 q 153 676 203 731 q 93 554 93 613 q 169 453 93 486 q 321 426 233 426 l 335 426 q 345 427 339 426 q 354 428 351 428 q 383 425 378 428 q 390 417 388 422 q 392 408 393 413 q 386 404 390 404 q 381 393 381 404 q 358 376 381 382 q 226 300 303 363 q 113 176 150 238 q 71 47 71 110 q 100 -29 71 -4 q 129 -40 113 -40 q 149 -39 140 -40 q 242 -6 197 -33 q 347 83 286 21 q 421 169 394 133 q 493 286 447 206 q 518 331 504 307 q 539 367 532 354 q 547 382 546 381 q 562 386 553 390 q 571 371 571 382 q 521 262 571 356 q 442 129 471 168 q 293 -24 363 25 q 149 -68 228 -68 q 50 -40 88 -68 q 0 76 0 -3 q 7 129 0 99 q 80 267 22 194 q 208 383 138 339 q 221 392 215 388 q 229 401 226 397 q 231 404 232 404 q 192 417 229 406 q 71 483 125 433 q 24 579 24 529 l 24 596 q 104 740 29 665 q 272 842 176 813 z "},"F":{"ha":557,"x_min":0,"x_max":758,"o":"m 292 825 q 328 854 307 854 q 381 838 344 854 q 413 826 406 826 q 446 831 422 826 q 590 838 483 838 l 606 838 q 722 828 697 838 q 758 797 758 814 q 757 794 758 796 q 751 793 754 793 q 713 797 736 793 q 665 801 688 801 q 608 797 644 801 q 408 758 422 779 q 342 586 386 724 q 297 414 297 449 q 311 401 297 401 q 396 414 325 401 q 464 422 453 422 q 483 417 476 422 q 497 397 497 406 q 475 381 497 388 q 375 361 453 375 q 288 340 293 346 q 266 204 278 331 q 254 -7 254 78 l 254 -36 q 269 -121 258 -97 q 276 -144 276 -135 q 268 -151 276 -151 q 236 -140 261 -151 q 195 -77 207 -124 q 183 83 183 -31 q 185 175 183 140 q 186 297 186 225 l 186 331 l 178 329 q 157 326 171 328 q 132 322 143 324 q 85 318 110 318 q 65 321 74 318 q 31 353 31 333 q 46 365 31 363 q 194 392 192 386 q 204 457 197 396 q 240 672 217 571 q 251 729 251 717 q 250 732 251 732 q 191 716 239 732 q 118 686 143 700 q 64 647 82 668 l 47 628 l 29 636 q 0 672 0 650 q 20 710 0 690 q 76 747 40 731 q 267 800 114 765 q 292 825 282 804 z "},"G":{"ha":681,"x_min":0,"x_max":614,"o":"m 404 -74 q 396 -69 404 -69 q 333 -79 382 -69 q 131 -233 131 -121 q 167 -297 131 -275 q 193 -304 181 -304 q 265 -274 225 -304 q 339 -196 306 -244 q 381 -124 358 -167 q 404 -74 404 -81 m 347 872 q 401 881 367 881 q 475 868 453 881 q 539 808 518 846 q 547 761 547 792 q 535 692 547 721 q 485 640 511 640 l 481 640 q 472 645 474 643 q 472 653 469 647 q 481 672 474 658 q 496 747 496 699 q 486 807 496 786 q 474 828 478 825 q 453 832 469 832 q 329 769 399 832 q 147 490 226 676 q 68 154 68 303 q 69 142 68 150 q 69 129 69 133 q 124 25 75 25 q 133 26 129 25 q 293 140 193 39 q 479 381 396 244 q 524 450 507 425 q 543 458 531 458 q 594 432 565 458 q 614 371 614 415 q 607 303 614 349 q 522 8 585 149 l 507 -28 q 528 -31 507 -31 q 556 -37 551 -31 q 558 -43 558 -40 q 513 -54 558 -47 q 492 -65 500 -57 q 467 -104 483 -72 q 342 -273 401 -219 q 217 -326 282 -326 l 215 -326 q 150 -310 182 -326 q 96 -237 100 -282 q 95 -231 96 -236 q 94 -224 94 -225 q 161 -109 94 -154 q 353 -49 228 -64 q 424 -35 417 -42 q 468 72 436 -21 q 515 233 500 165 q 535 350 535 324 q 533 354 535 354 q 485 294 529 354 q 319 101 397 178 q 189 7 240 25 q 139 -1 164 -1 q 60 22 96 -1 q 14 82 25 44 q 0 190 0 128 q 106 599 0 375 q 347 872 208 814 z "},"H":{"ha":656,"x_min":-142,"x_max":735,"o":"m 215 760 q 259 747 236 760 q 282 711 282 733 q 251 504 282 692 q 219 290 219 310 q 249 285 219 285 q 379 300 333 285 q 461 354 456 325 q 465 374 461 357 q 473 418 468 390 q 482 469 478 446 q 640 925 547 868 q 663 935 656 935 q 686 928 671 935 q 724 901 713 915 q 735 857 735 886 q 731 813 735 839 q 679 625 719 731 q 589 444 639 519 q 556 369 565 410 q 519 168 546 329 q 461 -346 461 -186 l 461 -361 l 461 -369 q 458 -379 461 -378 q 443 -382 456 -381 l 439 -382 q 414 -375 421 -382 q 403 -283 403 -365 l 403 -231 q 415 8 403 -90 q 453 283 444 251 q 453 288 453 285 q 454 292 454 290 l 453 296 q 407 281 450 296 q 290 264 371 268 q 213 257 215 261 q 199 192 208 247 q 135 -107 157 -36 q 83 -192 114 -178 q 61 -196 72 -196 q -42 -135 4 -196 q -112 11 -83 -79 q -142 168 -142 101 q -86 285 -142 254 q 4 299 -60 299 q 99 296 63 299 l 132 293 l 138 333 q 149 450 146 381 q 169 631 153 535 q 178 682 174 654 q 186 724 183 710 q 189 740 189 739 q 197 753 189 747 q 215 760 206 760 m 668 728 q 675 786 675 760 l 675 793 l 674 819 l 661 786 q 625 666 651 761 q 593 543 599 571 q 590 529 590 529 q 592 525 590 525 q 614 563 597 525 q 668 728 647 632 m 128 267 q 51 272 125 269 l 24 272 q -56 261 -33 272 q -92 215 -78 250 q -101 153 -101 192 q -47 -60 -101 51 q 0 -135 -29 -99 q 42 -171 29 -171 q 82 -87 64 -171 q 110 94 93 -37 q 128 260 128 226 l 128 267 z "},"I":{"ha":399,"x_min":-11,"x_max":500,"o":"m 247 901 q 293 908 282 908 q 329 900 311 908 q 425 883 371 883 l 447 883 q 456 884 450 883 q 464 885 461 885 q 500 863 500 885 q 439 840 500 840 l 431 840 l 413 840 q 380 835 386 840 q 367 807 374 831 q 319 676 363 792 q 176 240 221 422 q 125 -107 132 58 q 124 -121 125 -112 q 124 -132 124 -129 q 131 -160 124 -158 l 132 -160 q 215 -121 144 -160 q 299 -82 288 -82 q 301 -83 300 -82 q 304 -83 303 -83 q 321 -94 321 -87 q 240 -158 321 -107 q 106 -249 119 -239 q 26 -289 47 -289 q 7 -286 21 -289 q -11 -272 -11 -281 q 86 -192 -11 -253 q 90 -182 90 -189 q 83 -133 90 -167 q 69 14 69 -60 q 103 324 69 139 q 214 736 136 504 q 242 825 242 819 q 233 831 242 831 q 199 821 218 831 q 160 821 179 811 q 139 847 139 831 q 150 869 139 860 q 247 901 165 883 z "},"J":{"ha":626,"x_min":4,"x_max":657,"o":"m 379 839 q 428 849 403 849 q 493 825 471 849 q 536 622 536 781 q 510 353 536 482 q 503 304 503 318 l 503 303 q 579 338 506 303 l 653 372 q 657 363 657 372 q 574 308 657 353 l 489 264 l 469 210 q 290 -72 408 38 q 132 -172 213 -146 q 81 -183 96 -183 q 43 -174 63 -183 q 4 -111 4 -156 l 4 -97 q 25 -28 6 -61 q 92 51 43 4 q 186 129 140 99 q 294 194 222 153 q 372 235 365 235 q 404 301 382 235 q 444 473 422 353 q 465 681 465 593 q 415 807 465 807 q 390 800 407 807 q 297 731 350 782 q 204 624 243 681 q 167 586 179 586 q 157 596 161 586 l 157 601 q 192 669 157 617 q 282 769 224 717 q 379 839 340 822 m 339 136 q 361 192 361 186 q 358 193 361 193 q 260 138 350 193 q 88 1 150 69 q 25 -119 25 -67 q 33 -149 25 -142 q 63 -157 40 -157 q 202 -78 128 -157 q 339 136 276 1 z "},"K":{"ha":511,"x_min":0,"x_max":629,"o":"m 78 296 q 54 286 72 304 q 47 269 38 269 q 60 274 51 269 q 78 296 85 288 m 557 903 q 564 906 558 906 q 592 897 575 906 q 618 876 608 888 q 629 847 629 863 q 621 801 629 831 q 519 601 597 710 q 346 418 440 492 q 323 400 336 410 q 301 384 310 390 q 290 375 293 378 q 283 365 282 368 q 303 346 285 361 q 367 175 354 303 q 406 40 374 99 q 486 -40 439 -19 q 515 -61 515 -53 q 508 -68 515 -68 q 468 -53 499 -68 q 353 74 397 -17 q 307 239 328 124 q 263 339 293 326 q 253 340 260 340 q 201 313 242 340 l 156 282 l 158 211 q 172 99 160 160 q 196 26 185 38 q 200 17 200 22 q 182 4 200 4 q 167 7 172 4 q 131 69 151 14 q 90 219 118 103 q 84 232 89 231 q 57 231 79 233 q 38 229 49 229 q 14 240 28 229 q 0 272 0 253 q 6 294 0 285 q 38 326 13 303 l 75 363 l 78 425 q 122 637 85 529 q 189 749 158 744 l 192 750 l 194 750 q 240 735 215 750 q 265 707 265 721 q 239 646 265 694 q 171 451 192 554 q 164 401 164 410 q 189 386 164 386 l 190 386 q 193 388 192 388 q 253 410 225 388 q 425 610 338 475 q 543 857 513 744 q 557 903 554 900 z "},"L":{"ha":544,"x_min":-14,"x_max":726,"o":"m 138 10 q 100 13 115 17 q 45 -17 65 6 q 25 -69 25 -39 q 46 -103 25 -103 q 88 -81 64 -103 q 132 -21 113 -58 q 138 10 147 7 m 513 847 q 496 869 506 869 q 444 813 476 869 q 415 745 431 789 q 400 688 400 701 l 400 683 q 408 681 403 681 q 472 708 438 681 q 521 803 521 746 q 513 847 521 825 m 119 724 q 197 704 126 724 q 274 685 268 685 q 285 700 282 685 q 343 830 300 765 q 425 911 386 894 q 456 918 443 918 q 503 904 472 918 q 563 811 558 875 q 563 803 563 808 q 564 796 564 799 q 531 715 564 754 q 425 656 489 668 l 388 649 l 378 603 q 349 428 374 581 q 314 235 324 275 q 243 40 282 106 q 235 15 232 22 q 327 -35 238 8 q 439 -85 417 -79 q 494 -92 469 -92 q 663 -36 592 -92 q 697 -21 682 -21 q 717 -26 707 -21 q 726 -37 726 -31 q 706 -65 726 -47 q 514 -132 632 -132 q 401 -114 454 -132 q 278 -61 350 -96 l 206 -25 l 172 -61 q 117 -110 138 -97 q 64 -124 94 -124 q -1 -97 22 -124 q -14 -50 -14 -85 q 3 7 -14 -17 q 40 42 21 32 q 90 51 58 51 l 97 51 q 151 49 138 51 q 163 53 160 47 q 174 81 167 58 q 229 392 201 171 q 260 594 243 504 q 271 654 271 653 q 215 678 271 660 q 140 696 158 696 q 119 688 128 696 q 99 681 111 678 q 88 697 88 685 q 97 716 88 708 q 119 724 106 724 z "},"M":{"ha":938,"x_min":0,"x_max":983,"o":"m 817 813 q 800 847 817 847 q 763 831 788 847 q 572 582 676 775 q 457 300 514 474 q 408 168 415 175 q 382 158 399 158 q 349 171 361 158 q 317 310 317 203 q 329 435 317 369 q 361 628 361 601 l 360 633 q 358 635 360 635 q 328 606 350 635 q 288 539 306 576 q 210 321 236 436 q 165 153 178 186 q 129 114 153 121 q 110 111 121 111 q 83 117 99 111 q 30 166 49 131 q 3 271 11 201 q 0 325 0 301 q 21 522 0 428 q 46 607 29 561 q 72 663 63 653 q 97 669 79 669 q 142 659 119 669 q 165 635 165 649 q 149 567 165 619 q 86 254 86 375 q 87 243 86 250 q 88 233 88 236 q 113 147 93 147 q 138 193 121 147 q 172 306 156 239 q 267 585 215 479 q 324 676 300 654 q 360 694 343 694 l 374 694 q 440 656 415 690 q 454 590 454 638 q 426 429 454 525 q 385 222 385 283 q 388 208 385 208 l 389 208 q 443 340 396 211 q 504 503 496 485 q 634 750 568 651 q 754 875 700 849 q 799 885 774 885 q 890 818 861 885 q 903 739 903 789 q 900 694 903 708 q 781 343 879 582 q 689 24 689 119 l 689 8 q 699 -35 690 -18 q 718 -53 707 -53 q 760 -22 726 -53 q 807 32 793 10 q 867 147 829 65 q 921 281 904 229 q 946 353 940 343 q 964 364 951 364 q 983 357 983 364 q 926 201 983 333 q 839 25 868 68 q 751 -64 793 -43 q 717 -74 733 -74 q 624 79 624 -74 q 654 286 624 168 q 765 617 679 379 q 817 813 817 757 z "},"N":{"ha":676,"x_min":0,"x_max":715,"o":"m 518 861 q 554 874 536 874 q 603 856 579 874 q 638 815 628 838 q 647 749 647 792 q 625 628 647 696 q 557 463 604 567 q 453 194 476 286 q 436 79 436 133 q 461 -7 436 8 q 465 -8 463 -8 q 499 11 476 -8 q 539 54 522 31 q 638 257 579 113 q 685 368 681 364 q 703 369 692 374 q 715 357 715 365 q 640 165 715 346 q 564 35 608 89 q 485 -24 519 -18 q 465 -25 478 -25 q 417 -4 438 -25 q 385 119 385 28 q 385 134 385 124 q 386 150 386 144 q 408 300 389 229 q 506 578 440 418 q 558 717 553 696 q 571 799 571 756 q 568 818 571 815 q 565 819 567 819 q 480 756 549 819 q 369 635 411 692 q 154 192 249 474 q 117 103 129 115 q 90 94 108 94 q 46 110 64 94 q 0 311 0 153 q 50 589 0 483 q 77 635 65 624 q 107 647 89 647 q 113 647 108 647 q 118 646 117 646 q 165 633 143 644 q 192 607 186 621 q 193 599 193 604 q 174 543 193 586 q 113 346 136 457 q 97 211 97 272 q 99 203 97 203 q 136 292 100 203 q 371 715 240 550 q 447 799 400 753 q 518 861 494 846 z "},"O":{"ha":668,"x_min":-3,"x_max":613,"o":"m 232 319 q 199 347 204 347 q 136 254 181 347 q 93 78 93 164 q 163 -68 93 -36 q 186 -75 181 -75 q 213 -69 196 -75 q 358 29 282 -49 q 431 118 389 61 q 472 185 472 175 q 450 194 472 189 q 333 244 396 208 q 232 319 269 281 m 458 822 q 408 829 440 829 q 351 822 369 829 q 264 760 304 806 q 206 658 224 714 q 188 551 188 597 q 189 531 188 536 l 192 500 l 228 500 l 232 500 q 307 471 289 500 q 308 464 308 469 q 263 422 308 447 q 236 396 236 408 q 260 351 236 383 q 358 263 297 303 q 461 218 418 222 q 470 217 465 218 q 476 217 475 217 q 499 236 488 217 q 550 407 529 293 q 563 538 563 474 q 521 749 563 661 q 458 822 493 807 m 317 863 q 363 867 336 867 q 426 860 403 867 q 551 775 507 839 q 608 594 594 711 q 613 533 613 565 q 568 285 613 418 q 549 222 549 229 q 565 218 549 218 q 590 210 582 218 q 594 201 594 206 q 554 185 594 185 l 528 185 l 511 153 q 379 -15 463 64 q 197 -101 288 -101 q 118 -87 156 -101 q 30 -12 63 -67 q -3 113 -3 43 q 0 153 -3 125 q 110 414 21 294 l 138 450 l 128 479 q 117 564 117 513 q 131 672 117 632 q 206 795 153 742 q 317 863 258 849 z "},"P":{"ha":625,"x_min":0,"x_max":654,"o":"m 558 865 q 529 878 547 878 q 393 792 479 878 q 183 457 275 674 l 150 378 l 168 358 q 268 310 215 310 q 311 315 290 310 q 547 538 460 349 q 579 628 571 590 q 588 731 588 667 q 558 865 588 832 m 454 896 q 510 910 482 910 q 563 896 536 910 q 650 742 635 861 q 654 683 654 713 q 601 466 654 569 q 463 311 549 363 q 319 271 397 271 l 301 271 q 163 317 218 275 q 138 328 144 331 q 92 171 122 322 q 81 -19 81 118 q 75 -162 81 -157 q 54 -169 68 -169 q 33 -162 40 -169 q 14 -37 25 -151 q 1 183 3 78 q 1 217 1 196 q 0 249 0 239 q 42 614 0 440 q 83 755 56 675 q 121 849 110 835 q 139 856 125 856 q 180 845 157 856 q 213 822 203 835 q 218 807 218 815 q 181 676 218 789 q 117 440 133 532 q 115 428 115 436 q 118 419 115 419 q 139 450 126 419 q 275 715 214 621 q 365 822 307 764 q 454 896 422 881 z "},"Q":{"ha":642,"x_min":0,"x_max":642,"o":"m 482 761 q 449 778 467 778 q 396 760 432 778 q 320 699 368 744 q 260 629 272 653 q 246 610 250 610 q 209 556 240 610 q 163 465 178 501 q 111 315 125 382 q 97 161 97 249 q 110 32 97 72 q 163 -83 129 -37 q 228 -129 197 -129 q 264 -119 247 -129 q 301 -95 281 -111 q 322 -75 322 -79 q 294 -29 322 -69 q 252 49 274 1 q 231 110 231 96 q 267 131 231 131 q 308 119 292 131 q 349 56 318 114 q 382 1 376 1 q 437 85 396 1 q 499 238 478 168 q 539 506 539 372 l 539 586 l 524 600 q 510 619 513 611 q 507 660 507 628 q 482 761 507 731 m 435 867 q 410 889 418 885 q 382 894 403 893 q 376 895 379 894 q 371 896 372 896 q 301 863 336 896 q 268 822 285 846 q 251 788 251 797 q 282 797 251 776 q 399 836 342 836 q 407 835 401 836 q 415 835 413 835 q 458 838 458 832 q 435 867 458 840 m 308 914 q 353 922 328 922 q 419 908 392 922 q 511 818 474 881 q 540 775 533 782 q 567 704 567 743 q 578 622 567 692 q 588 494 588 564 q 531 169 588 338 q 439 -19 496 64 l 414 -58 l 424 -74 q 476 -131 436 -93 q 535 -178 515 -168 q 564 -187 554 -187 q 583 -183 571 -187 q 622 -176 608 -176 q 642 -185 642 -176 q 618 -206 642 -196 q 565 -215 597 -215 q 400 -146 485 -215 q 363 -118 365 -118 q 329 -136 356 -118 q 236 -162 288 -162 q 156 -144 193 -162 q 15 60 65 -100 q 0 200 0 108 l 0 215 q 10 338 0 293 q 171 689 54 540 q 203 751 197 724 q 244 850 213 801 q 308 914 276 899 z "},"R":{"ha":550,"x_min":0,"x_max":607,"o":"m 113 404 l 111 404 q 102 392 104 404 q 90 294 100 381 q 83 233 86 257 q 85 203 81 203 q 115 283 89 203 q 140 375 140 363 q 131 395 140 386 q 113 404 122 404 m 522 786 q 506 789 511 789 q 410 739 467 789 q 297 604 354 689 q 237 500 275 571 q 199 421 199 429 q 235 414 199 414 q 433 513 333 414 q 536 657 501 578 q 549 717 549 683 q 522 786 549 775 m 124 822 q 146 829 133 829 q 195 813 169 829 q 221 779 221 797 q 183 676 221 771 q 117 471 133 547 q 117 467 117 469 l 115 464 q 150 444 115 450 l 172 440 l 208 514 q 324 700 260 618 q 433 804 388 782 q 483 815 458 815 q 588 763 550 815 q 607 690 607 735 q 596 624 607 660 q 522 503 576 565 q 410 413 467 440 q 261 382 344 382 q 218 381 225 382 q 211 372 211 379 q 229 275 211 351 q 278 108 254 164 q 343 11 303 53 q 458 -47 401 -47 q 538 -15 499 -47 q 563 -4 551 -4 q 581 -15 574 -4 q 583 -22 583 -21 q 547 -56 583 -39 q 471 -74 510 -74 q 283 10 368 -74 q 169 224 199 94 q 151 282 157 282 q 135 247 144 282 q 95 78 115 183 q 75 -61 75 -28 q 69 -96 75 -85 q 47 -106 64 -106 q 26 -96 32 -106 q 13 3 19 -83 q 0 250 0 140 q 42 608 0 446 q 85 740 57 668 q 124 822 113 813 z "},"S":{"ha":482,"x_min":0,"x_max":504,"o":"m 294 118 q 289 140 292 140 q 225 90 285 140 q 86 -51 143 19 q 29 -153 29 -121 q 31 -156 29 -154 l 31 -158 q 61 -187 39 -187 q 133 -162 81 -187 q 211 -106 179 -140 q 294 99 294 -14 l 294 118 m 333 871 q 376 878 357 878 q 476 828 444 878 q 490 774 490 808 q 439 601 490 699 q 365 514 394 514 q 346 525 357 514 q 340 535 340 531 q 354 563 340 543 q 407 679 381 600 q 433 796 433 758 l 433 804 q 417 818 432 818 q 372 804 400 818 q 247 699 303 771 q 181 558 190 626 q 178 524 178 533 q 253 344 178 444 q 310 264 286 299 q 336 233 331 233 q 413 307 339 233 q 496 376 482 376 q 504 365 504 376 q 426 278 504 356 l 349 200 l 361 168 q 382 63 382 115 q 379 33 382 53 q 284 -129 367 -56 q 106 -210 201 -203 q 96 -210 103 -210 q 85 -211 89 -211 q 14 -183 38 -211 q 0 -147 0 -168 q 69 -25 0 -104 q 229 132 124 38 q 276 182 276 174 q 255 233 276 193 q 211 301 233 272 q 115 449 143 393 q 88 554 88 504 q 92 600 88 575 q 180 765 108 685 q 333 871 251 844 z "},"T":{"ha":701,"x_min":0,"x_max":976,"o":"m 624 853 q 811 872 750 872 q 911 857 876 872 q 953 828 931 849 q 976 799 976 808 q 944 800 976 778 q 869 814 925 814 q 738 801 808 814 q 600 767 606 779 q 460 236 503 519 q 435 -4 435 78 q 435 -26 435 -11 q 436 -50 436 -42 q 444 -163 440 -140 q 458 -190 447 -186 q 472 -204 472 -194 q 465 -217 472 -211 q 446 -222 457 -222 q 410 -200 421 -222 q 389 -112 399 -178 q 371 140 371 17 q 453 694 371 453 q 464 736 464 725 q 463 738 464 738 q 288 683 432 738 q 126 610 193 649 q 60 553 60 572 q 56 544 60 546 q 42 546 53 543 q 13 560 25 549 q 0 585 0 572 q 70 675 0 625 q 249 763 140 725 q 394 804 294 779 q 501 838 486 826 q 536 844 515 849 l 543 844 q 624 853 575 844 z "},"U":{"ha":711,"x_min":0,"x_max":746,"o":"m 142 835 q 160 846 149 846 q 213 822 181 846 q 244 779 244 799 q 185 604 244 764 q 103 340 125 450 q 81 158 81 238 q 110 42 81 75 q 133 33 118 33 q 211 76 172 33 q 371 360 272 146 q 503 628 418 461 q 597 804 588 794 q 618 815 607 815 q 651 796 632 815 q 674 757 674 776 q 610 575 674 733 q 483 193 514 342 q 472 28 472 138 q 482 -97 472 -79 q 501 -114 492 -114 q 525 -104 508 -114 q 650 139 589 -62 q 694 288 657 164 q 724 376 721 374 q 737 374 728 381 q 746 360 746 368 q 704 209 746 351 q 650 31 663 67 q 567 -121 615 -71 q 519 -146 543 -146 q 446 -107 481 -146 q 408 28 419 -76 q 406 104 406 50 q 439 390 406 253 l 453 451 q 451 454 453 454 q 408 372 444 454 q 231 42 296 114 q 150 1 194 1 q 103 13 125 1 q 15 136 42 40 q 0 258 0 189 q 40 528 0 369 q 93 702 54 583 q 142 835 132 821 z "},"V":{"ha":579,"x_min":0,"x_max":608,"o":"m 451 882 q 457 899 451 893 q 472 904 463 904 q 518 886 496 904 q 561 817 546 863 q 574 807 564 807 q 597 798 585 807 q 608 779 608 789 q 586 769 608 769 l 564 769 l 564 733 q 464 278 564 581 q 361 24 415 133 q 217 -142 281 -142 q 181 -132 199 -142 q 85 13 122 -103 q 45 204 63 81 q 28 419 28 328 q 26 470 28 458 q 14 493 24 482 q 0 528 0 510 q 24 693 0 578 q 32 724 29 718 q 44 731 35 729 l 46 731 q 77 718 58 731 q 107 688 96 706 q 119 649 119 669 q 117 610 119 646 q 110 346 110 486 q 171 -82 110 36 q 199 -110 183 -110 q 239 -85 211 -110 q 371 143 300 -28 q 490 519 442 314 q 521 767 521 653 q 517 794 521 788 q 496 815 513 801 q 451 882 451 851 z "},"W":{"ha":774,"x_min":0,"x_max":789,"o":"m 590 882 q 594 892 590 888 q 604 896 599 896 q 642 883 619 896 q 676 856 665 871 q 721 835 689 840 q 789 814 789 822 q 760 806 789 806 q 721 810 739 806 l 703 814 l 707 792 q 725 565 725 681 q 717 411 725 486 q 683 221 708 339 q 624 28 657 94 q 497 -81 568 -81 q 411 -33 442 -81 q 349 160 374 26 q 325 410 325 294 q 322 426 325 426 q 293 358 317 426 q 165 35 201 92 q 104 -11 135 -11 l 101 -11 q 51 14 68 -10 q 21 101 33 38 q 0 339 0 208 q 22 625 0 461 q 75 831 50 815 q 85 832 78 832 q 132 817 104 832 q 160 785 160 801 q 143 694 160 764 q 72 247 83 435 q 71 204 71 233 q 79 76 71 136 q 97 17 88 17 q 121 40 103 17 q 150 86 139 63 q 317 575 236 260 q 338 653 333 640 q 351 667 342 665 l 356 667 q 383 658 368 667 q 404 639 399 649 q 408 542 408 631 q 408 501 408 531 q 407 454 407 472 l 407 368 q 426 97 407 208 q 471 -44 449 -24 q 483 -51 478 -51 q 503 -40 488 -50 q 579 53 544 -15 q 647 278 613 118 q 682 635 682 447 q 667 804 682 754 q 638 836 661 825 q 590 882 590 860 z "},"X":{"ha":619,"x_min":0,"x_max":669,"o":"m 553 867 q 597 894 588 894 q 628 885 610 894 q 657 864 647 875 q 669 839 669 850 q 642 795 669 825 q 519 671 615 765 q 257 382 265 419 l 257 372 q 283 179 257 297 q 382 -50 325 -12 q 417 -60 397 -60 q 454 -47 439 -60 q 492 7 467 -37 q 532 92 517 51 q 583 240 549 133 q 618 356 618 346 q 628 371 618 365 q 646 371 639 376 q 650 360 650 369 q 607 217 650 346 q 458 -68 521 -39 q 414 -76 442 -76 q 374 -71 390 -76 q 329 -37 354 -65 q 285 28 304 -10 q 208 250 238 122 q 193 293 197 293 q 165 260 188 293 q 126 190 143 226 q 74 60 99 135 q 49 -42 49 -15 q 63 -60 49 -53 q 73 -67 71 -62 q 72 -77 75 -72 q 58 -85 68 -82 q 44 -87 50 -87 q 6 -64 19 -87 q 0 -44 0 -54 q 7 3 0 -39 q 136 365 40 192 l 175 433 l 168 475 q 151 767 154 582 l 151 800 q 156 844 151 836 q 181 851 161 851 q 213 842 196 851 q 235 822 229 833 q 243 680 240 811 q 249 546 246 549 q 252 547 250 544 q 258 552 254 549 q 265 560 261 556 q 274 571 269 565 q 408 726 318 631 q 553 867 497 821 z "},"Y":{"ha":718,"x_min":0,"x_max":749,"o":"m 192 197 q 56 443 56 197 q 77 635 56 519 q 114 769 99 750 q 146 776 118 776 q 188 766 168 776 q 208 740 208 756 q 183 594 208 719 q 153 381 156 464 q 152 362 153 374 q 151 344 151 350 q 178 232 151 257 q 189 225 188 225 q 213 236 193 225 q 292 314 246 256 q 369 438 338 372 q 463 771 419 535 q 486 857 476 847 q 506 863 492 863 q 546 851 524 863 q 590 780 576 838 q 603 601 603 722 q 576 333 603 440 l 569 299 l 571 296 q 644 332 579 296 q 738 371 714 371 q 749 363 749 371 q 618 283 749 354 l 556 250 l 535 189 q 474 46 517 135 q 192 -293 347 -219 q 104 -311 156 -311 q 39 -300 53 -311 q 0 -219 1 -272 l 0 -211 q 103 -4 0 -110 q 371 181 183 76 l 436 217 l 453 285 q 492 608 492 443 q 489 636 492 636 q 471 596 483 636 q 394 406 428 468 q 265 225 319 272 q 192 197 236 197 m 406 122 q 418 169 418 156 q 417 171 418 171 q 328 124 407 171 q 210 50 249 78 q 35 -175 72 -47 q 28 -214 28 -199 q 48 -274 28 -250 q 100 -297 68 -297 q 210 -236 146 -297 q 406 122 317 -133 z "},"Z":{"ha":683,"x_min":0,"x_max":704,"o":"m 100 -53 q 92 -47 101 -46 q 65 -56 82 -47 q 47 -75 47 -64 q 51 -85 47 -85 q 77 -72 57 -85 q 100 -53 97 -58 m 582 840 q 615 858 603 858 q 655 840 629 858 q 688 806 681 821 q 692 786 692 794 q 676 711 692 772 q 532 347 628 521 q 310 46 436 172 q 249 -19 249 -15 q 349 -42 249 -26 q 478 -54 428 -54 q 613 -22 549 -54 q 661 -7 643 -7 q 692 -18 676 -7 q 704 -35 704 -26 q 656 -74 704 -50 q 557 -101 611 -96 q 513 -103 542 -103 q 297 -78 446 -103 l 192 -60 l 138 -87 q 56 -115 83 -115 q 22 -103 39 -115 q 0 -61 0 -85 q 8 -37 0 -47 q 83 -6 33 -6 l 108 -6 l 160 -8 l 194 28 q 347 241 268 107 q 481 517 425 375 q 535 666 508 586 q 561 758 561 746 q 524 746 561 763 q 376 710 447 710 q 303 715 340 710 q 235 721 264 721 q 178 710 199 721 q 147 683 165 703 q 124 650 129 664 q 107 636 119 636 q 85 648 96 636 q 75 675 75 660 q 88 714 75 690 q 115 747 101 738 q 185 769 143 769 q 256 763 219 769 q 353 751 325 751 q 424 761 386 751 q 509 796 460 771 q 582 840 558 821 z "},"[":{"ha":390,"x_min":56,"x_max":336,"o":"m 111 842 q 139 846 114 846 q 189 844 167 846 q 336 817 336 839 q 328 808 336 810 q 285 804 319 807 q 215 799 243 803 l 194 797 l 193 711 q 169 433 193 601 q 115 146 151 301 q 113 134 114 140 q 110 124 111 128 q 110 118 110 121 q 117 111 110 111 q 124 112 119 111 q 137 114 129 113 q 151 117 144 115 q 215 125 204 125 q 235 119 235 125 q 167 90 235 113 q 86 71 108 71 q 61 81 71 71 q 56 99 56 86 q 58 146 56 122 q 93 719 79 383 q 111 842 97 824 z "},"\\":{"ha":542,"x_min":56,"x_max":489,"o":"m 56 846 q 115 874 56 874 q 142 871 135 874 q 167 850 157 865 q 335 493 194 810 q 485 133 475 176 q 481 107 489 114 q 440 94 465 94 l 436 94 q 324 317 433 97 q 93 768 160 646 q 56 846 56 836 z "},"]":{"ha":390,"x_min":56,"x_max":342,"o":"m 128 842 q 186 846 132 846 q 201 845 190 846 q 217 844 211 844 q 317 836 306 843 q 342 797 342 821 q 332 735 342 786 q 281 433 313 640 q 235 104 235 143 q 233 90 235 94 q 226 83 232 86 q 207 81 219 81 q 150 83 175 81 q 56 107 56 92 q 119 114 56 113 l 181 117 l 183 188 q 212 512 189 322 q 254 764 235 701 l 260 786 q 226 794 260 794 q 142 814 167 794 q 128 842 119 832 z "},"^":{"ha":335,"x_min":56,"x_max":281,"o":"m 142 821 l 178 876 l 194 876 q 228 866 211 876 q 253 842 246 856 q 261 772 258 829 q 279 629 265 696 q 279 618 281 619 q 268 617 278 617 q 237 635 249 617 q 213 703 225 653 q 194 760 197 760 q 158 717 189 760 q 104 646 111 650 q 93 644 100 644 q 67 654 76 644 l 56 665 l 63 686 q 142 821 71 713 z "},"_":{"ha":513,"x_min":50,"x_max":458,"o":"m 294 136 q 349 137 319 136 q 393 138 378 138 q 410 139 408 139 l 413 139 q 442 126 426 139 q 458 103 458 114 q 447 91 458 94 q 394 83 435 88 q 268 78 369 81 q 144 74 167 76 q 124 72 136 72 q 75 90 94 72 q 56 128 50 113 q 88 133 57 132 q 188 135 119 135 q 294 136 257 135 z "},"`":{"ha":282,"x_min":56,"x_max":235,"o":"m 88 879 q 135 867 117 879 q 156 842 149 857 q 213 733 194 756 q 219 700 235 706 q 208 699 217 699 q 128 746 168 699 q 83 813 110 767 q 56 867 56 858 q 88 879 56 879 z "},"a":{"ha":426,"x_min":-26,"x_max":460,"o":"m 263 468 q 300 500 285 500 q 318 496 308 500 q 329 471 329 492 q 303 349 329 442 q 267 210 285 285 q 258 122 258 168 q 285 21 258 21 q 425 332 340 21 q 450 379 438 379 q 460 363 460 379 q 433 243 460 339 q 369 58 394 107 q 307 0 343 8 q 281 -3 288 -3 q 215 39 238 -3 q 197 147 197 74 q 218 313 197 229 q 231 369 231 356 q 229 374 231 374 q 167 269 219 374 q 106 170 129 197 q 61 143 83 143 q -6 169 15 143 q -26 253 -26 194 q -26 266 -26 257 q -25 281 -25 275 q 1 392 -22 335 q 47 464 24 449 q 124 488 83 488 q 207 456 168 488 q 236 436 231 436 q 263 468 243 436 m 182 403 q 156 433 172 433 q 125 414 144 433 q 72 320 96 383 q 49 215 49 257 q 50 196 49 201 q 63 176 54 176 q 147 297 75 176 q 188 381 188 365 q 182 403 188 390 z "},"b":{"ha":489,"x_min":-19,"x_max":529,"o":"m 221 1 q 229 12 221 1 q 249 57 238 24 q 260 103 260 90 l 260 106 q 228 89 258 106 q 192 52 206 75 q 178 8 178 29 q 185 -17 178 -6 q 193 -22 189 -22 q 221 1 204 -22 m 339 847 l 339 849 q 332 894 339 894 q 258 825 311 894 q 165 676 204 756 q 101 513 136 617 q 67 381 67 410 q 69 374 67 374 q 113 400 72 374 q 269 599 199 461 q 339 847 339 738 m 278 932 q 306 939 296 939 q 357 913 329 939 q 385 835 385 886 q 376 764 385 806 q 306 586 363 693 q 197 424 249 479 q 63 317 113 333 q 46 239 56 314 q 38 111 38 168 q 44 53 38 57 l 46 53 q 63 96 53 53 q 119 238 76 164 q 201 336 161 311 q 240 346 217 346 q 303 324 275 346 q 338 278 321 310 q 356 229 356 247 q 363 203 356 214 q 371 197 368 197 q 453 301 392 197 q 511 372 496 372 q 525 367 514 372 q 529 357 529 364 q 483 265 529 331 q 396 169 438 200 q 347 110 357 142 q 294 4 328 49 q 229 -46 261 -40 q 208 -49 213 -49 q 163 -32 179 -49 q 147 11 147 -15 q 171 76 147 43 q 238 125 194 110 q 274 151 267 136 q 282 211 282 167 q 273 280 282 251 q 251 308 264 308 q 200 267 236 308 q 143 183 164 225 q 90 -25 99 93 q 53 -131 83 -131 q -3 6 25 -131 q -19 228 -19 89 q -7 422 -19 343 q 106 741 21 588 q 278 932 192 894 z "},"c":{"ha":357,"x_min":-19,"x_max":394,"o":"m 378 379 q 394 356 394 379 q 371 292 394 338 q 242 142 324 197 q 135 101 181 101 q 96 107 113 101 q 10 170 40 122 q -19 286 -19 218 q 24 456 -19 369 q 72 524 42 493 q 121 558 101 554 q 142 561 135 561 q 206 538 179 561 q 233 483 233 515 q 217 426 233 457 q 179 394 200 394 q 167 411 167 394 q 174 435 167 421 q 183 475 183 454 l 183 481 l 181 503 l 154 476 q 87 360 114 436 q 60 222 60 285 q 69 167 60 192 q 83 144 76 149 q 113 140 90 140 q 240 197 172 140 q 351 342 308 254 q 378 379 371 379 z "},"d":{"ha":526,"x_min":-28,"x_max":593,"o":"m 479 1025 q 513 1036 501 1036 q 550 1022 528 1036 q 593 915 593 997 q 592 869 593 886 q 499 547 581 721 q 438 441 465 478 q 371 382 410 404 l 335 361 l 324 290 q 314 136 314 222 q 344 -60 314 -33 q 353 -62 350 -62 q 425 35 379 -62 q 508 268 471 132 q 549 369 535 368 l 557 369 q 569 353 569 369 q 550 264 569 335 q 447 -1 500 92 q 343 -94 393 -94 q 301 -76 321 -94 q 258 15 276 -54 q 233 171 239 85 l 228 240 q 194 178 225 240 q 139 87 163 113 q 86 61 115 61 q 32 75 51 61 q -6 125 13 89 q -28 231 -28 169 q 31 404 -28 339 q 136 460 81 460 q 190 445 160 460 q 233 413 219 431 q 239 408 238 408 q 249 444 244 408 q 274 581 253 486 q 369 865 307 732 q 479 1025 431 999 m 546 960 l 542 985 l 524 960 q 421 698 489 911 q 353 431 353 485 q 354 419 353 421 l 356 419 q 392 451 363 419 q 456 551 419 482 q 511 678 492 619 q 540 792 526 722 q 553 899 553 861 q 546 960 553 922 m 196 376 q 172 410 186 410 q 144 396 163 410 q 85 295 110 368 q 61 158 61 222 q 72 96 61 117 q 78 92 75 92 q 117 127 90 92 q 168 215 143 163 q 206 325 206 290 q 196 376 206 340 z "},"e":{"ha":314,"x_min":-19,"x_max":343,"o":"m 65 469 q 126 511 106 511 q 153 504 135 511 q 207 429 207 483 q 163 322 207 382 q 78 276 129 276 q 56 271 61 276 q 47 239 51 265 q 44 197 44 214 q 63 97 44 128 q 88 82 72 82 q 143 108 107 82 q 283 307 204 153 q 331 374 318 374 q 343 363 343 374 q 306 274 343 346 q 242 167 269 203 q 162 90 204 118 q 85 61 119 61 q 63 65 72 61 q -19 233 -19 97 q -19 249 -19 239 q -18 263 -18 258 q 65 469 -10 392 m 78 301 q 128 347 100 301 q 157 425 157 392 l 157 428 l 154 450 l 132 419 q 91 354 113 393 q 69 306 69 315 q 78 301 69 301 z "},"f":{"ha":354,"x_min":-56,"x_max":392,"o":"m 157 714 q 200 728 176 728 q 246 710 226 728 q 261 654 261 697 q 244 572 261 608 q 149 431 211 500 q 100 314 124 404 q 82 226 82 249 l 82 224 q 86 222 85 222 q 156 242 101 222 q 239 279 211 263 q 315 336 279 301 q 372 372 356 372 q 390 363 382 372 q 392 357 392 361 q 294 258 392 329 q 201 214 268 240 q 113 188 133 188 q 99 179 99 188 q 115 157 99 172 q 160 82 132 142 q 200 -26 188 22 q 210 -139 210 -61 q 192 -329 210 -265 q 82 -481 150 -481 q 36 -465 63 -481 q -54 -122 -43 -415 q -56 -51 -56 -99 q 82 599 -56 319 q 157 714 128 694 m 222 632 q 225 653 225 649 q 224 658 225 658 q 190 598 218 658 q 158 517 163 538 q 156 499 156 507 l 156 497 q 167 510 158 497 q 200 570 182 531 q 222 632 218 610 m 110 114 q 79 161 93 150 q 71 165 72 165 q 63 144 67 165 q 36 -203 36 -11 q 51 -393 36 -346 q 72 -440 67 -440 q 103 -403 82 -440 q 138 -328 125 -365 q 168 -110 168 -233 q 167 -75 168 -85 q 110 114 154 28 z "},"g":{"ha":500,"x_min":-122,"x_max":544,"o":"m 274 532 q 282 536 278 536 q 313 524 286 536 q 344 483 338 513 q 351 363 351 454 l 351 321 l 350 200 l 433 288 q 536 374 515 374 q 544 363 544 374 q 411 204 544 342 l 346 138 l 328 33 q 217 -339 290 -175 q 53 -589 144 -503 q -39 -632 8 -632 q -99 -606 -74 -632 q -121 -532 -117 -587 q -122 -520 -121 -528 q -122 -508 -122 -512 q 151 0 -122 -282 l 253 104 q 257 237 254 149 q 261 369 260 325 l 218 293 q 82 146 135 146 q 30 160 54 146 q -6 197 6 175 q -19 268 -19 225 q 8 399 -19 331 q 78 504 35 467 q 143 528 106 528 q 213 503 182 528 q 244 442 243 479 q 246 436 244 436 q 259 460 250 436 q 268 501 268 485 q 274 532 268 526 m 203 417 q 194 460 203 432 q 178 488 186 488 q 141 460 165 488 q 99 400 117 433 q 51 226 51 313 q 64 183 51 192 l 65 183 l 67 182 q 119 224 81 182 q 186 311 158 265 q 219 378 219 365 q 215 388 219 383 q 203 417 203 397 m 239 6 q 242 29 242 25 l 240 32 q 197 -11 238 32 q -79 -497 -69 -287 q -80 -510 -79 -503 q -81 -522 -81 -518 q -47 -610 -81 -610 q 1 -582 -29 -610 q 239 6 167 -421 z "},"h":{"ha":501,"x_min":-14,"x_max":542,"o":"m 331 1046 q 381 1013 363 1046 q 399 936 399 979 q 244 556 399 788 q 165 453 208 501 q 93 386 121 404 q 76 357 79 376 q 69 232 72 338 l 67 90 l 90 160 q 176 338 125 263 q 264 413 228 413 q 308 385 281 413 q 332 353 328 365 q 336 310 336 342 q 304 147 336 260 q 265 -32 265 10 q 272 -67 265 -50 q 289 -83 278 -83 q 333 -49 303 -83 q 429 125 372 -6 q 503 342 486 256 q 522 369 508 369 l 526 369 q 542 344 542 368 l 542 333 q 453 74 540 265 q 304 -117 367 -117 q 257 -90 283 -117 q 222 -32 231 -62 q 215 40 215 -4 q 242 257 215 143 q 258 344 258 331 q 222 314 253 344 q 113 88 154 246 q 74 0 89 0 q 61 4 69 0 q 8 131 29 21 q -14 368 -14 240 q -1 531 -14 458 q 140 883 31 721 q 217 974 172 929 q 290 1032 261 1018 q 331 1046 322 1046 m 358 914 q 360 963 360 933 l 360 972 l 360 974 q 317 938 350 974 q 256 864 283 903 q 96 488 146 706 l 85 435 l 106 454 q 182 544 133 481 q 261 658 231 608 q 358 914 350 810 z "},"i":{"ha":263,"x_min":-10,"x_max":288,"o":"m 25 551 q 44 561 29 561 q 89 544 68 561 q 106 522 103 533 q 110 481 110 511 q 82 353 110 471 q 54 183 54 235 q 68 126 54 142 q 89 114 78 114 q 204 265 122 114 q 281 374 264 374 q 286 371 283 374 q 288 368 288 371 q 245 267 288 349 q 172 147 203 185 q 81 96 131 96 q 19 132 42 96 q -10 289 -10 179 q -8 329 -10 315 q 8 457 -4 379 q 25 551 19 535 m 65 788 q 83 797 69 797 q 127 780 103 797 q 151 744 151 763 q 133 688 151 728 q 100 638 114 647 q 88 633 96 633 q 63 641 75 633 q 51 657 51 649 q 53 670 51 661 q 56 694 54 679 q 58 724 57 710 q 65 788 64 782 z "},"j":{"ha":247,"x_min":-351,"x_max":286,"o":"m 1 382 q 21 394 6 394 q 49 383 33 394 q 76 214 75 364 l 78 149 l 150 240 q 263 376 251 369 q 268 378 265 378 q 276 376 274 378 q 286 367 286 372 l 283 361 q 101 129 128 160 q 82 94 86 113 q 75 15 78 75 q 21 -281 67 -142 q -99 -523 -24 -417 q -242 -649 -175 -629 q -269 -654 -258 -654 q -304 -643 -283 -654 q -351 -556 -351 -618 q -78 -49 -351 -410 l -4 49 l -4 208 q 1 382 -4 368 m -15 -126 q -6 -28 -6 -67 l -6 -22 q -7 -21 -6 -21 q -83 -107 -18 -21 q -319 -551 -319 -421 q -315 -589 -319 -572 q -278 -632 -303 -632 q -182 -553 -247 -632 q -15 -126 -56 -396 m 32 565 q 50 574 36 574 q 86 558 67 574 l 106 543 l 90 496 q 74 432 78 456 q 60 414 72 414 q 36 428 50 414 q 21 467 21 443 q 22 501 21 486 q 32 565 28 558 z "},"k":{"ha":556,"x_min":-8,"x_max":599,"o":"m 347 1163 q 421 1181 382 1181 q 485 1160 461 1181 q 529 1042 529 1117 q 457 816 529 946 q 257 557 385 686 q 122 435 153 453 q 74 392 82 408 q 65 318 65 376 l 65 249 l 90 293 q 221 407 154 407 q 280 381 253 407 q 307 325 307 354 q 306 314 307 318 q 207 231 293 268 q 164 208 164 210 q 196 131 164 203 q 240 38 228 60 q 328 -40 286 -40 q 533 257 444 -40 q 565 364 561 347 q 576 371 568 371 q 597 354 590 371 q 599 351 599 353 q 574 233 599 331 q 531 90 549 136 q 482 0 514 46 q 424 -64 450 -46 q 360 -83 396 -83 q 249 -36 306 -83 q 149 96 192 11 q 114 156 118 156 q 104 117 110 156 q 99 47 99 79 q 86 18 99 18 q 51 57 69 18 q 7 251 35 93 q -8 426 -8 333 q 93 851 -8 649 q 217 1042 143 951 q 347 1163 292 1133 m 488 1057 q 465 1106 486 1106 q 410 1082 450 1106 q 240 881 331 1036 q 107 565 149 725 q 90 486 90 506 q 93 476 90 476 q 117 490 99 476 q 209 572 149 513 q 307 676 269 631 q 436 875 385 768 q 488 1050 488 982 l 488 1057 m 196 322 q 147 258 147 276 q 151 256 147 256 q 193 278 161 256 q 235 335 235 308 q 229 342 235 342 q 196 322 217 342 z "},"l":{"ha":329,"x_min":-14,"x_max":367,"o":"m 256 1025 q 292 1038 275 1038 q 342 1013 317 1038 q 367 926 367 988 q 347 803 367 874 q 244 569 317 696 q 114 400 171 443 q 73 344 81 375 q 63 203 65 313 l 63 182 q 100 -4 63 44 q 126 -24 115 -24 q 175 10 139 -24 q 310 282 249 83 q 354 375 339 375 q 364 363 358 375 l 364 361 q 335 257 364 342 q 131 -42 232 -42 q 26 56 67 -42 q -14 310 -14 154 q -13 333 -14 317 q -12 357 -12 349 q 121 840 -3 597 q 256 1025 197 990 m 324 908 q 325 956 325 926 q 324 976 325 976 q 211 774 300 976 q 94 451 122 571 l 89 426 l 110 447 q 178 536 133 468 q 251 663 222 604 q 324 908 315 789 z "},"m":{"ha":867,"x_min":-11,"x_max":907,"o":"m 711 699 q 767 583 767 661 q 711 339 767 504 q 636 26 636 118 q 644 -22 636 -6 q 663 -37 653 -37 q 713 3 676 -37 q 839 261 779 75 q 870 353 863 333 q 885 372 878 372 q 896 368 889 372 q 907 353 907 363 q 900 321 907 349 q 831 131 874 226 q 754 -4 789 36 q 663 -61 706 -61 q 649 -60 653 -61 q 561 131 561 -43 l 561 140 q 625 488 563 274 q 664 646 664 618 q 660 660 664 656 q 635 671 649 671 q 497 524 579 671 q 383 288 414 378 q 359 225 368 240 q 339 207 350 210 l 333 207 q 290 242 306 207 q 274 339 274 278 q 286 460 274 392 q 297 536 297 522 q 293 546 297 546 q 264 519 288 546 q 185 403 215 467 q 132 228 156 340 q 103 119 111 128 q 74 108 94 108 q 32 126 50 108 q -11 308 -11 171 q 29 533 -11 443 q 46 562 39 556 q 68 568 53 568 q 120 549 90 568 q 150 513 150 529 q 119 400 150 492 q 71 207 71 254 q 72 198 71 204 q 72 189 72 192 l 75 161 q 100 250 79 161 q 267 588 165 514 q 306 600 286 600 q 360 578 335 600 q 396 519 386 556 q 400 486 400 506 q 375 340 400 442 q 391 381 381 356 q 434 470 401 406 q 499 584 467 535 q 576 674 531 633 q 661 714 621 714 q 711 699 689 714 z "},"n":{"ha":532,"x_min":-12,"x_max":569,"o":"m 443 578 q 447 547 447 564 q 394 346 447 492 q 303 15 303 100 q 329 -31 303 -31 q 410 65 357 -31 q 506 288 463 160 q 547 378 536 378 q 554 376 551 378 q 569 360 569 369 q 517 220 569 347 q 444 56 464 93 q 392 -22 421 13 q 342 -56 363 -56 q 253 93 253 -56 q 333 489 253 243 q 360 586 360 572 q 350 589 360 589 q 247 476 306 589 q 147 251 188 363 q 101 137 117 167 q 69 107 85 107 q 35 125 54 107 q -12 285 -12 165 q 33 529 -12 425 q 65 572 53 572 q 90 561 72 572 q 122 508 122 540 q 99 410 122 483 q 58 181 58 283 q 61 143 58 143 q 69 151 64 143 q 119 265 81 165 q 156 351 132 297 q 182 413 179 404 q 271 569 210 486 q 381 651 332 651 q 443 578 424 651 z "},"o":{"ha":403,"x_min":-28,"x_max":444,"o":"m 118 535 q 142 540 133 540 q 174 533 146 540 q 241 479 213 524 q 269 386 269 435 q 278 360 269 365 l 281 358 q 283 358 282 358 q 336 368 297 358 q 421 382 390 382 q 444 371 444 382 q 325 335 444 349 l 274 329 l 256 250 q 191 100 233 154 q 96 46 149 46 q 6 92 39 46 q -28 217 -28 139 q -24 272 -28 243 q -3 355 -14 335 q 33 378 8 375 q 38 378 35 378 q 43 379 42 379 q 88 370 67 379 q 115 347 108 361 q 118 338 118 342 q 99 275 118 322 q 68 139 68 203 q 74 100 68 113 l 83 76 l 108 92 q 177 174 146 114 q 218 303 208 235 l 222 335 l 174 349 q 75 454 75 378 q 88 505 75 482 q 118 535 100 528 m 190 496 q 172 510 179 510 q 147 492 165 510 q 132 442 132 476 q 140 404 132 421 q 170 377 147 390 q 208 364 193 364 q 222 393 222 364 q 190 496 222 460 z "},"p":{"ha":556,"x_min":-97,"x_max":593,"o":"m 263 140 q 285 179 285 172 l 283 179 q 218 142 274 179 q 154 90 179 115 q 129 53 129 64 q 135 47 129 47 q 167 58 146 47 q 263 140 222 86 m 76 532 q 104 554 90 554 q 147 535 117 554 q 168 496 168 519 q 138 365 168 465 q 101 243 101 247 q 144 296 106 243 q 269 385 210 385 q 332 357 300 385 q 374 297 364 329 l 381 272 l 478 326 q 585 375 565 375 l 586 375 q 593 368 593 372 q 479 293 593 357 q 394 242 414 257 q 372 211 375 226 q 290 80 356 139 q 161 21 225 21 q 112 33 132 21 q 92 64 92 46 q 135 121 92 82 q 240 196 179 160 q 300 235 288 224 q 315 264 313 246 q 317 288 317 272 q 290 344 317 340 l 286 344 q 197 281 251 344 q 94 122 142 218 q 54 28 64 60 q 31 -89 44 -4 q -10 -382 10 -217 q -35 -575 -31 -544 q -53 -606 -40 -606 q -58 -605 -54 -606 q -65 -604 -62 -604 q -88 -598 -83 -603 q -96 -574 -93 -593 q -97 -531 -97 -567 q -79 -135 -97 -324 q -16 266 -60 78 q 76 532 28 454 z "},"q":{"ha":626,"x_min":-21,"x_max":658,"o":"m 311 457 l 336 518 l 369 513 q 422 496 404 507 q 439 468 439 486 q 436 446 439 465 q 410 335 435 431 q 358 142 385 240 q 331 35 332 43 q 328 22 328 24 q 331 19 328 19 q 371 50 336 19 q 574 289 461 126 q 646 374 632 374 l 647 374 q 658 363 658 369 q 633 315 658 353 q 479 117 565 215 q 342 -17 393 19 q 310 -54 310 -39 q 338 -129 310 -71 q 374 -235 367 -190 q 382 -347 382 -285 q 367 -499 382 -435 q 321 -626 343 -589 q 265 -662 299 -662 q 238 -656 244 -662 q 222 -617 232 -650 q 208 -386 208 -568 q 219 -126 208 -215 q 286 249 247 86 q 314 374 314 365 q 296 335 311 374 q 161 99 231 174 q 110 63 126 63 q 92 64 99 63 q 22 104 47 71 q -17 203 -4 138 q -21 253 -21 228 q 15 392 -21 331 q 101 464 50 454 q 124 467 115 467 q 212 444 167 467 q 265 394 257 422 q 279 379 271 379 q 285 388 285 378 q 311 457 285 392 m 226 356 q 186 410 200 407 l 185 410 q 144 378 169 410 q 106 308 119 346 q 82 151 82 244 q 89 106 82 117 q 97 97 94 97 q 140 136 103 97 q 218 242 183 181 l 253 303 l 226 356 m 322 -207 q 297 -139 304 -139 q 290 -151 292 -139 q 268 -319 278 -204 q 258 -525 258 -433 q 267 -621 258 -603 q 274 -633 272 -633 q 290 -601 276 -633 q 336 -362 336 -494 q 322 -207 336 -258 z "},"r":{"ha":292,"x_min":-50,"x_max":324,"o":"m -6 565 q 35 590 19 590 q 61 574 49 590 q 72 522 72 558 q 61 446 72 490 q 51 400 51 410 q 108 392 51 397 q 153 384 142 389 q 174 364 165 379 q 182 339 182 351 q 167 265 182 321 q 140 64 140 167 q 146 0 140 21 q 163 -35 157 -35 q 193 1 171 -35 q 232 78 215 38 q 269 199 249 117 q 297 333 290 281 q 313 372 301 372 q 321 364 317 372 q 324 351 324 358 q 285 165 324 303 q 218 -15 246 28 q 167 -50 196 -50 q 103 10 125 -50 q 82 194 82 65 q 89 286 82 247 q 96 335 96 324 q 51 342 96 339 q -10 369 10 344 q -50 465 -50 418 q -6 565 -50 517 m 29 465 q 39 514 39 499 q 35 524 39 524 q 28 521 33 524 q -12 453 -12 496 q 3 424 -12 431 l 7 424 q 29 465 18 424 z "},"s":{"ha":246,"x_min":-61,"x_max":278,"o":"m 46 607 q 85 618 64 618 q 124 605 107 618 q 140 568 140 592 q 115 533 140 533 q 104 536 113 533 q 92 538 100 538 q 53 433 53 538 q 71 294 53 343 q 122 190 92 235 l 189 281 q 263 371 254 371 q 276 360 268 371 q 278 357 278 358 q 210 254 278 340 l 135 157 l 150 108 q 165 7 165 63 q 106 -162 165 -96 q -1 -218 54 -218 q -54 -193 -36 -218 q -61 -162 -61 -185 q -31 -48 -61 -119 q 47 90 0 24 l 83 142 l 32 246 q -21 450 -21 354 q 1 553 -21 508 q 46 607 21 592 m 97 19 q 99 60 99 36 q 92 93 99 93 q 61 60 83 93 q -5 -62 21 3 q -31 -165 -31 -126 q -28 -187 -31 -182 q -20 -196 -25 -196 q 1 -187 -15 -196 q 97 19 89 -142 z "},"t":{"ha":304,"x_min":-192,"x_max":429,"o":"m 97 808 q 129 839 113 839 q 161 819 144 839 q 175 794 175 804 q 165 750 175 792 q 157 706 157 717 q 163 693 157 696 q 242 678 174 688 q 306 674 278 674 q 390 700 368 674 l 406 718 l 418 700 q 429 674 429 685 q 408 649 429 661 q 325 631 381 631 q 226 640 279 631 q 144 651 164 651 l 140 650 q 121 582 136 646 q 64 153 64 361 q 100 -44 64 -1 l 118 -65 l 143 -44 q 207 59 169 -22 q 275 242 244 140 q 292 299 283 269 q 307 347 301 329 q 313 365 313 364 q 329 371 315 375 q 339 351 339 367 q 300 204 339 321 q 128 -81 207 -81 q -4 264 -4 -81 q 32 603 -4 449 q 44 672 44 653 q -32 688 44 676 q -92 693 -69 693 q -143 682 -117 693 q -178 671 -172 671 q -189 676 -185 671 q -192 688 -192 681 q -181 710 -192 699 q -150 726 -169 721 q -94 732 -133 732 q 29 721 -49 732 q 50 718 49 718 q 63 724 58 718 q 72 747 67 729 q 97 808 83 781 z "},"u":{"ha":440,"x_min":-8,"x_max":483,"o":"m 14 454 q 26 478 21 472 q 43 483 32 483 q 65 481 46 483 q 114 465 94 478 q 133 436 133 451 q 108 346 133 424 q 81 179 81 263 q 88 129 81 147 q 95 118 93 118 q 110 129 97 118 q 193 296 140 156 q 246 428 221 368 q 278 472 265 472 q 288 471 283 472 q 329 421 329 461 q 300 290 329 400 q 268 96 268 167 q 282 25 268 44 q 308 8 296 4 q 356 82 324 15 q 415 236 388 149 q 451 363 451 353 q 460 381 451 375 q 479 379 469 386 q 483 368 483 378 q 456 250 483 344 q 346 0 394 42 q 297 -21 321 -21 q 229 26 260 -21 q 214 66 217 46 q 211 153 211 86 l 211 251 l 185 190 q 138 110 158 129 q 93 92 118 92 q 18 149 47 92 q 13 158 17 150 q 8 169 8 167 q 3 178 7 171 q 0 190 0 186 q -3 202 0 193 q -6 219 -6 211 q -7 238 -6 226 q -8 263 -8 249 q -8 293 -8 276 q 14 454 -8 404 z "},"v":{"ha":504,"x_min":-14,"x_max":546,"o":"m 289 572 q 311 485 311 550 q 297 368 311 438 l 326 356 q 376 349 342 349 q 482 371 433 349 q 529 386 519 386 q 544 378 540 386 q 546 371 546 375 q 494 338 546 353 q 383 322 442 322 q 311 332 339 322 l 283 342 l 265 276 q 210 138 251 222 q 167 66 185 86 q 126 46 149 46 q 97 53 115 46 q 18 154 46 69 q -14 396 -14 247 q -6 468 -14 451 q 31 483 3 483 q 78 471 53 483 l 101 458 l 96 322 q 94 240 94 292 q 117 85 94 119 q 146 97 126 72 q 196 184 168 124 q 238 297 224 244 l 253 358 l 231 383 q 190 494 190 431 q 208 559 190 528 q 251 590 226 590 q 289 572 271 590 m 264 439 q 271 488 271 453 q 264 536 271 522 q 259 547 261 544 q 256 547 257 549 q 251 538 254 544 q 247 500 247 522 q 251 450 247 478 q 258 431 254 432 q 264 439 260 429 z "},"w":{"ha":694,"x_min":-14,"x_max":724,"o":"m 481 615 q 507 628 493 628 q 551 610 524 628 q 583 517 583 589 q 582 474 583 489 l 579 394 l 607 382 q 653 374 625 374 q 669 375 664 374 q 686 376 675 376 q 724 363 724 376 q 721 357 724 360 q 679 353 717 353 q 592 361 614 353 q 578 367 578 367 q 565 340 571 367 q 531 222 558 300 q 481 97 503 143 q 360 -25 425 -17 q 353 -26 358 -25 q 344 -26 347 -26 q 310 -19 321 -26 q 251 63 279 -4 q 210 214 222 131 l 200 275 l 176 232 q 138 172 153 188 q 89 156 121 156 q 40 171 58 156 q 9 227 25 185 q -12 310 -7 269 q -14 339 -14 318 q -7 426 -14 379 q 8 483 0 474 q 39 493 17 493 q 97 480 67 493 q 126 447 126 467 q 110 378 126 425 q 85 281 90 322 q 82 246 82 258 q 97 186 82 186 l 99 186 q 167 300 118 193 q 225 465 215 407 q 236 499 231 494 q 244 500 238 500 q 275 490 257 500 q 296 469 293 479 l 297 464 q 297 456 297 460 q 288 321 297 421 q 278 183 278 221 q 297 61 278 119 q 324 11 308 31 q 354 -8 340 -8 q 364 -6 358 -8 q 435 107 393 13 q 504 306 478 201 q 524 392 524 383 q 511 410 524 400 q 473 465 488 426 q 458 542 458 503 q 481 615 458 592 m 533 488 q 535 510 535 493 q 533 532 535 526 q 524 535 532 543 q 517 510 517 528 q 529 482 517 483 q 533 488 533 482 z "},"x":{"ha":442,"x_min":-42,"x_max":488,"o":"m -42 471 q -32 488 -42 481 q -8 494 -22 494 q 29 485 6 494 q 53 468 47 478 q 65 422 58 458 q 92 313 74 375 q 115 251 110 251 q 172 329 119 251 q 244 413 226 408 l 254 413 q 292 403 271 413 q 314 385 314 394 q 254 294 314 372 q 174 188 200 225 l 156 164 l 179 131 q 283 57 233 57 q 338 81 310 57 q 407 188 374 113 q 453 343 440 264 q 474 374 457 374 q 486 363 482 374 l 486 361 q 488 356 488 358 q 474 278 488 333 q 446 186 461 224 q 281 33 383 33 q 160 81 224 33 l 119 111 l 89 65 q 39 -25 69 36 q 14 -74 15 -72 l 11 -74 q -17 -64 4 -74 q -39 -51 -39 -54 q -12 19 -39 -42 q 36 117 15 81 l 69 175 l 43 221 q -35 428 -12 322 q -42 471 -42 465 z "},"y":{"ha":499,"x_min":-160,"x_max":543,"o":"m 22 425 q 57 458 35 458 q 101 435 75 458 l 126 411 l 89 308 q 50 176 50 201 l 50 149 l 74 160 q 142 224 100 174 q 206 315 185 274 q 236 407 228 364 q 254 458 244 458 q 283 444 265 458 q 308 415 301 429 q 333 283 321 389 l 347 172 l 369 199 q 389 221 374 203 q 422 261 404 239 q 454 301 439 283 q 524 371 511 371 q 532 368 526 371 q 543 356 543 361 q 539 344 543 353 q 399 164 511 292 l 350 110 l 347 33 q 288 -266 343 -115 q 149 -519 232 -417 q -17 -640 67 -621 q -54 -646 -39 -646 q -97 -633 -68 -646 q -160 -531 -160 -606 q -158 -503 -160 -512 q -75 -302 -150 -415 q 164 -17 0 -189 l 254 78 l 254 183 q 247 286 254 286 q 200 231 244 286 q 128 154 165 183 q 69 125 92 125 q 22 138 46 125 q -7 169 -1 151 q -15 229 -15 190 q 22 425 -15 332 m -124 -536 q -110 -595 -124 -568 q -72 -622 -97 -622 q -26 -608 -56 -622 q 133 -423 61 -568 q 242 -75 206 -278 q 251 -3 251 -17 l 250 -1 q 122 -133 238 -1 q -40 -328 6 -264 q -124 -536 -124 -443 z "},"z":{"ha":468,"x_min":-296,"x_max":494,"o":"m 106 476 q 154 503 144 503 q 210 461 189 503 q 219 421 219 442 q 183 304 219 378 q 161 249 161 260 q 163 246 161 246 l 165 246 q 215 258 178 251 q 246 263 233 263 q 290 251 264 263 l 328 235 l 393 293 q 465 363 450 343 q 490 364 482 379 q 494 349 494 356 q 418 260 494 329 l 353 200 l 365 167 q 376 96 376 133 q 318 -137 376 0 q 15 -569 226 -358 q -204 -707 -122 -707 q -244 -700 -229 -707 q -296 -617 -296 -679 q -294 -593 -296 -601 q -217 -382 -282 -503 q -53 -144 -151 -261 q 150 65 0 -82 q 288 213 288 200 q 271 217 288 217 q 172 191 236 217 q 83 140 108 165 q 46 113 56 113 q 24 128 36 113 q 13 143 13 139 q 25 167 13 150 q 88 285 39 186 q 144 404 138 383 q 147 419 149 417 q 136 418 144 422 q 72 378 118 413 q 26 338 26 344 q 15 339 26 331 q 3 363 3 349 q 38 416 3 378 q 106 476 72 454 m 294 60 q 310 135 310 114 q 304 147 310 147 q 200 60 297 147 q -206 -437 -100 -218 q -257 -628 -257 -543 q -251 -660 -257 -650 q -239 -667 -247 -667 q -117 -578 -206 -667 q 135 -261 18 -443 q 294 60 253 -79 z "},"{":{"ha":357,"x_min":56,"x_max":301,"o":"m 179 822 q 244 875 203 875 q 292 849 269 875 q 301 831 301 838 q 286 814 301 824 q 260 782 272 806 q 238 619 238 739 l 238 606 l 238 578 q 229 474 238 504 q 172 371 213 408 l 146 347 l 157 336 q 176 304 171 321 q 185 247 182 288 q 197 158 189 183 q 224 122 204 133 q 238 107 238 114 q 226 101 238 101 q 207 106 219 101 q 106 267 118 139 q 97 319 101 307 q 76 336 92 331 q 56 360 56 344 q 69 371 56 371 q 107 393 88 371 q 140 451 126 415 q 164 629 164 515 l 164 657 l 164 693 q 179 822 164 785 z "},"|":{"ha":253,"x_min":56,"x_max":197,"o":"m 111 892 q 118 893 113 893 q 181 864 151 893 q 194 831 192 853 q 197 740 197 810 q 192 615 197 688 q 181 492 186 542 q 163 350 175 442 q 149 231 151 258 q 132 113 138 138 q 117 78 126 88 q 92 71 110 71 q 67 78 74 71 q 57 106 60 86 q 56 114 57 107 q 56 125 56 121 q 57 175 56 143 q 60 244 58 207 q 65 320 63 281 q 69 396 67 360 q 73 461 71 432 q 76 508 75 490 l 78 526 q 89 694 85 607 q 100 853 96 821 q 111 892 104 886 z "},"}":{"ha":374,"x_min":56,"x_max":319,"o":"m 136 879 q 158 888 150 888 q 193 875 171 888 q 225 849 215 863 q 249 778 249 819 q 243 717 249 750 q 233 629 236 679 l 232 582 l 246 553 q 290 497 260 525 q 319 464 319 472 q 306 442 319 458 q 251 285 267 393 q 219 165 240 208 q 165 105 207 142 q 104 63 124 68 q 101 62 103 63 q 97 61 99 61 q 58 75 69 61 q 56 81 56 78 q 90 122 56 88 q 158 217 136 169 q 179 339 179 265 q 228 485 179 439 l 246 503 l 226 525 q 193 575 207 547 l 178 606 l 178 657 q 181 771 178 701 q 183 814 183 813 q 176 832 183 832 l 165 829 q 156 828 163 828 q 122 849 132 828 q 136 879 115 865 z "},"~":{"ha":339,"x_min":56,"x_max":283,"o":"m 232 556 q 246 569 236 569 q 271 561 258 569 q 283 542 283 553 q 251 481 283 515 q 207 463 235 463 q 158 476 182 463 q 131 490 133 490 q 110 479 126 490 q 90 472 100 472 q 67 482 81 472 q 56 501 56 490 q 64 525 56 513 q 104 547 78 547 q 164 518 133 547 q 192 504 179 503 q 213 524 200 507 q 232 556 226 540 z "},"":{"ha":274,"x_min":56,"x_max":219,"o":"m 218 814 q 212 782 217 789 q 186 775 207 775 q 143 799 143 775 q 147 828 143 806 q 156 889 151 847 q 161 918 157 915 q 176 921 164 919 q 181 922 178 921 q 186 922 185 922 q 206 912 200 922 q 215 875 213 901 q 219 824 219 829 q 219 818 219 821 q 218 814 218 815 m 165 686 q 192 664 192 686 q 185 601 192 654 q 138 107 138 275 q 113 46 138 46 q 74 59 93 46 q 56 92 56 72 q 57 110 56 101 q 88 358 67 217 q 138 643 108 521 q 150 677 144 668 q 165 686 156 686 z "},"":{"ha":571,"x_min":56,"x_max":515,"o":"m 303 636 q 299 642 303 642 q 258 611 292 642 q 122 343 133 490 l 122 328 q 146 242 122 269 q 185 226 157 228 q 218 235 211 225 q 264 428 225 246 q 303 636 303 611 m 331 828 q 356 875 336 875 q 386 867 369 875 q 403 847 403 858 q 400 808 403 842 q 397 779 397 783 q 415 760 397 760 q 465 738 433 760 q 508 694 497 715 q 515 654 515 682 q 493 564 515 601 q 465 540 479 540 q 454 542 458 540 q 438 561 438 547 q 442 583 438 569 q 449 654 449 607 q 445 696 449 686 q 428 706 442 706 l 418 706 q 378 675 382 701 q 297 317 350 514 q 283 253 283 265 q 285 251 283 251 q 341 277 294 251 q 419 328 388 303 q 475 365 471 365 q 501 350 486 365 l 492 335 q 417 270 475 308 q 311 214 360 232 q 265 194 271 200 q 254 157 263 192 q 243 116 247 122 q 225 110 239 110 q 200 131 200 110 q 203 154 200 135 q 205 169 203 161 q 207 181 207 178 q 190 193 207 193 q 150 203 176 193 q 110 222 124 213 q 56 353 56 260 q 60 401 56 376 q 206 669 81 551 q 262 717 231 694 q 300 739 293 739 q 316 756 310 739 q 331 828 322 774 z "},"":{"ha":688,"x_min":56,"x_max":632,"o":"m 117 121 q 56 160 56 121 q 78 197 56 185 q 111 201 86 201 q 153 197 139 201 q 172 192 169 192 q 218 247 181 192 q 263 351 246 290 q 271 418 271 385 q 268 450 271 433 l 243 450 q 207 449 238 450 q 160 447 176 447 q 131 450 139 447 q 112 463 121 454 q 103 476 103 471 q 119 489 103 486 q 188 494 135 492 q 257 500 250 497 q 260 507 260 503 q 247 571 260 513 q 228 719 228 656 q 233 793 228 774 q 313 890 256 869 q 344 896 325 896 q 411 871 375 896 q 446 828 446 846 q 440 814 446 821 q 426 807 433 807 q 410 814 419 807 q 390 814 401 819 q 331 708 344 789 q 328 661 328 696 q 338 551 328 601 q 351 501 344 508 q 418 496 358 496 q 507 482 492 496 q 513 472 513 478 q 508 465 513 467 q 433 460 508 464 l 358 456 q 356 403 356 453 q 346 329 356 353 q 264 200 317 253 q 239 172 238 174 q 297 151 242 169 q 389 125 353 133 q 468 118 419 118 q 497 119 490 118 q 569 160 538 128 q 601 181 590 181 q 623 174 614 181 q 632 157 632 167 q 600 110 632 135 q 532 81 568 86 q 489 79 522 79 q 386 86 418 79 q 221 129 276 111 q 188 138 194 138 q 175 135 179 138 q 117 121 147 121 z "},"":{"ha":633,"x_min":56,"x_max":579,"o":"m 478 589 q 453 593 474 611 q 435 583 442 583 q 415 592 429 583 q 388 594 403 600 q 286 521 333 572 q 222 415 239 469 q 217 369 217 394 q 239 310 217 317 q 250 308 243 308 q 321 335 279 308 q 400 406 363 361 q 479 572 479 499 q 478 589 479 583 m 513 786 q 526 793 519 793 q 548 783 533 793 q 569 764 563 774 q 579 744 579 751 q 533 682 579 728 q 488 632 488 633 q 504 607 488 626 q 524 547 524 583 q 447 388 524 476 q 422 353 422 357 q 435 342 422 349 q 486 288 446 336 q 526 233 526 240 q 511 226 526 228 l 510 226 q 418 297 489 226 q 388 319 396 319 q 357 304 381 319 q 281 275 315 275 q 274 276 279 275 q 265 276 268 276 q 245 278 258 276 q 228 281 232 281 l 225 281 q 209 269 218 281 q 174 215 200 258 q 115 118 143 165 q 88 86 99 88 q 67 92 78 85 q 56 106 56 99 q 114 235 56 129 q 147 296 142 285 q 172 328 150 303 l 163 353 q 154 408 154 375 q 210 557 154 481 q 228 586 228 579 q 167 649 228 593 q 97 718 111 700 q 94 728 94 722 q 114 738 94 738 q 150 729 133 738 q 208 672 158 725 q 232 647 218 661 q 252 625 246 632 q 260 618 258 618 q 288 631 265 615 q 390 661 339 661 l 421 661 l 442 688 q 472 733 451 700 q 513 786 493 767 z "},"":{"ha":546,"x_min":56,"x_max":492,"o":"m 310 244 q 275 235 304 244 q 240 226 246 226 q 211 236 225 226 q 197 256 197 246 q 246 281 197 267 q 315 306 313 300 q 318 317 318 308 l 318 324 q 310 333 318 333 q 269 325 303 333 q 226 317 235 317 q 198 324 213 317 q 183 339 183 331 q 188 347 183 343 q 201 353 192 350 q 217 357 210 356 q 237 361 224 358 q 256 365 250 364 q 319 381 307 376 q 329 397 326 383 q 375 642 351 538 q 375 644 375 643 l 376 647 q 375 650 376 650 q 354 622 371 650 q 233 435 282 503 q 147 379 192 379 q 69 429 93 379 q 56 510 57 454 l 56 528 q 101 767 56 639 q 125 836 114 797 q 128 844 126 839 q 130 853 129 850 q 132 859 131 856 q 135 864 133 863 q 140 867 138 865 q 146 868 143 868 q 192 851 168 868 q 217 810 217 833 q 188 715 217 789 q 119 463 119 544 l 119 453 q 126 408 119 415 q 135 403 132 403 q 154 411 138 403 q 210 459 181 424 q 288 572 239 494 q 418 822 351 675 q 423 835 421 828 q 427 847 425 843 q 431 856 429 851 q 438 862 433 860 q 447 864 442 864 q 476 851 461 864 q 492 826 492 839 q 442 624 492 811 q 393 404 393 447 q 399 394 393 394 q 410 396 404 394 q 461 401 439 401 q 488 389 488 401 q 446 371 488 381 q 424 366 439 369 q 404 361 410 363 q 390 355 399 360 q 379 343 382 350 q 376 325 376 336 q 394 317 376 317 q 404 317 397 317 q 417 318 411 318 l 439 318 q 467 310 458 318 q 474 299 474 303 q 447 283 474 289 q 372 261 379 268 q 364 157 365 254 l 363 60 q 356 59 361 60 q 349 58 350 58 q 331 65 336 58 q 314 189 314 85 q 310 244 314 244 z "},"":{"ha":265,"x_min":56,"x_max":210,"o":"m 114 817 q 133 828 119 828 q 170 817 149 828 q 201 793 192 806 q 210 760 210 782 q 194 646 208 719 q 167 549 179 572 q 149 538 160 538 q 125 543 139 538 q 107 562 110 551 q 104 628 104 572 q 114 817 104 800 m 67 383 q 88 392 74 392 q 128 383 108 392 q 153 361 147 374 q 156 331 156 356 q 146 227 156 289 q 125 142 136 165 q 101 119 115 119 q 92 121 96 119 q 63 157 71 124 q 56 236 56 181 l 56 258 q 67 383 56 368 z "},"":{"ha":494,"x_min":56,"x_max":442,"o":"m 311 486 q 278 508 281 508 q 247 471 267 508 q 226 414 226 433 q 283 375 226 375 q 347 388 317 375 q 378 418 378 401 q 311 486 378 436 m 231 847 q 342 890 290 890 q 389 881 368 890 q 424 854 408 871 q 440 825 440 838 q 431 806 440 811 q 397 801 422 801 q 342 788 368 801 q 253 701 278 753 q 240 650 240 676 q 253 600 240 622 q 338 510 274 560 q 433 413 418 446 q 442 382 442 396 q 368 336 442 346 q 335 329 336 331 q 357 301 332 326 q 403 206 403 257 q 375 132 403 160 q 256 89 331 89 q 185 101 219 89 q 107 146 150 114 q 58 196 64 178 q 56 208 56 204 q 67 219 56 219 q 101 192 86 219 q 133 163 108 179 q 200 146 163 146 q 281 163 242 146 q 332 207 319 181 q 342 242 342 229 q 263 329 342 286 q 171 394 197 364 q 144 460 144 424 q 186 550 144 506 l 210 576 q 196 597 204 586 q 157 704 157 650 q 168 764 157 731 q 231 847 186 815 z "},"":{"ha":721,"x_min":56,"x_max":665,"o":"m 501 775 q 479 783 493 783 q 415 763 458 783 q 241 590 317 713 q 165 360 165 468 q 187 254 165 303 q 243 188 208 206 q 281 181 256 181 q 358 201 319 181 q 478 304 414 229 q 574 454 542 379 q 611 636 611 539 q 599 715 611 686 l 592 729 l 596 707 q 597 674 597 694 q 574 621 597 621 q 553 631 560 621 q 542 669 547 642 q 501 775 528 747 m 382 857 q 415 861 399 861 q 469 850 439 861 q 497 841 481 846 q 518 833 513 836 q 535 824 524 831 q 563 804 547 817 q 665 601 665 721 l 665 581 q 490 217 653 379 q 317 132 406 132 l 299 132 q 172 176 232 138 q 63 332 90 231 q 56 408 56 354 q 65 500 56 458 q 130 651 85 575 q 229 776 175 726 q 382 857 300 840 m 339 643 q 381 653 358 653 q 428 639 408 653 q 476 558 476 606 q 472 529 476 544 q 444 493 460 493 q 424 533 424 493 q 413 582 424 578 l 411 582 q 383 558 403 582 q 354 511 364 535 q 329 399 329 450 q 332 376 329 388 q 343 369 335 369 q 401 410 374 369 q 424 426 414 426 q 443 418 433 426 q 451 408 451 411 q 446 394 451 404 q 418 358 436 374 q 360 329 389 329 q 306 347 338 329 q 256 465 256 376 q 261 521 256 494 q 339 643 281 614 z "},"":{"ha":371,"x_min":56,"x_max":315,"o":"m 163 579 q 190 566 175 579 q 204 543 204 553 q 118 482 204 529 q 124 461 101 474 q 190 419 154 444 q 225 386 225 393 q 221 383 225 383 q 183 400 213 383 q 125 432 150 419 q 61 475 74 457 q 56 492 56 482 q 100 539 56 506 q 120 553 106 543 q 140 568 135 564 q 163 579 158 579 m 272 572 q 281 574 275 574 q 302 563 289 574 q 315 539 315 551 q 272 497 315 526 q 229 465 229 468 q 258 433 229 463 q 290 397 290 404 q 286 392 290 392 q 249 415 279 392 q 186 479 186 465 q 228 528 186 488 q 249 549 238 538 q 265 566 260 560 q 272 572 271 572 z "},"":{"ha":419,"x_min":56,"x_max":364,"o":"m 290 567 l 307 567 q 342 554 329 567 q 364 506 364 532 l 364 496 q 350 428 363 467 q 331 388 338 390 q 315 394 325 386 q 301 411 306 401 q 297 426 297 417 l 300 457 q 304 496 304 489 q 296 506 304 506 l 292 506 q 242 501 272 506 q 111 489 122 489 q 96 490 100 489 q 71 506 86 493 q 56 528 56 518 q 58 535 56 532 q 214 561 72 551 q 290 567 283 567 z "},"":{"ha":690,"x_min":56,"x_max":636,"o":"m 496 793 q 450 801 479 801 q 422 800 433 801 q 374 779 382 797 q 351 769 369 769 q 324 763 335 769 q 290 731 314 757 q 151 435 193 626 q 140 329 140 376 q 197 149 140 199 q 238 133 214 133 q 362 185 292 133 q 485 314 432 236 q 556 446 526 375 q 585 603 585 521 q 560 726 585 676 q 531 764 551 742 q 496 793 510 786 m 344 838 q 421 853 388 853 q 558 782 489 853 q 631 667 615 725 q 636 594 636 649 q 628 500 636 531 q 571 363 611 433 q 467 213 515 265 q 351 126 418 160 q 256 101 300 101 q 207 108 228 101 q 96 203 136 131 q 56 379 56 275 q 71 511 56 439 q 167 738 100 644 q 304 832 235 831 q 344 838 328 832 m 375 572 q 358 572 375 585 q 353 568 356 571 q 333 508 333 549 q 340 504 333 497 q 360 538 346 508 q 375 572 375 567 m 276 613 q 300 618 281 621 q 353 614 333 614 q 401 601 386 613 q 429 557 429 581 q 394 494 429 532 q 383 478 383 483 q 421 464 383 474 q 478 435 478 449 q 472 426 478 426 q 431 436 464 426 q 322 454 367 454 l 319 454 q 311 415 315 436 q 303 384 306 389 q 290 378 300 379 l 288 378 q 266 387 276 378 q 256 406 256 396 q 263 534 256 469 q 276 613 269 599 z "},"":{"ha":528,"x_min":50,"x_max":474,"o":"m 261 715 q 276 722 265 722 q 328 699 301 722 q 339 669 339 689 q 337 644 339 656 q 331 618 335 633 q 324 592 326 603 q 324 558 317 563 q 358 554 331 554 q 413 558 392 554 q 431 560 419 560 q 468 546 456 560 q 474 536 474 538 q 374 518 474 522 l 313 515 l 307 493 q 293 410 306 489 q 276 324 281 332 q 244 322 269 310 q 232 351 232 328 q 234 392 232 363 q 239 455 236 422 q 242 494 242 488 l 242 511 l 178 514 q 101 524 113 515 q 86 539 92 531 q 83 546 83 544 q 168 558 83 557 l 246 561 q 254 646 250 581 q 261 715 257 701 m 294 233 q 349 234 319 233 q 393 235 378 235 q 410 236 408 236 l 413 236 q 442 224 426 236 q 458 200 458 211 q 447 188 458 192 q 394 181 435 185 q 268 176 369 178 q 144 171 167 174 q 124 169 136 169 q 75 188 94 169 q 56 225 50 210 q 88 231 57 229 q 188 232 119 232 q 294 233 257 232 z "},"":{"ha":547,"x_min":56,"x_max":492,"o":"m 436 832 q 454 840 442 840 q 479 832 464 840 l 492 824 l 490 794 q 482 724 486 747 q 446 326 446 476 q 442 251 446 258 q 414 242 436 242 q 376 257 385 242 q 372 307 372 264 q 373 337 372 314 q 374 375 374 360 l 376 485 l 356 447 q 264 335 303 349 q 236 331 251 331 q 168 358 196 331 q 150 372 154 372 q 140 331 144 372 q 125 192 135 257 q 108 124 115 128 q 85 122 104 119 q 77 122 82 122 q 70 123 72 122 q 65 126 68 124 q 61 132 63 128 q 58 143 60 136 q 57 162 57 150 q 56 189 57 174 q 56 226 56 204 q 58 475 56 239 q 68 824 63 814 q 99 832 74 833 q 171 797 154 826 q 174 764 174 793 q 171 672 174 761 q 168 582 168 606 q 201 385 168 451 q 233 351 219 351 q 255 368 239 351 q 283 403 271 385 q 364 565 319 453 q 403 697 393 635 q 436 832 424 814 z "},"":{"ha":646,"x_min":56,"x_max":590,"o":"m 485 888 q 517 889 486 889 q 565 875 546 889 q 590 836 590 858 q 563 701 590 808 q 504 422 528 565 q 492 326 499 394 q 481 231 485 258 q 469 126 471 174 q 465 77 467 85 q 458 68 464 69 l 456 67 q 451 67 453 67 q 411 81 422 67 q 394 215 394 100 q 418 503 394 328 q 475 776 442 678 q 485 811 485 804 q 476 819 485 819 q 400 806 472 819 q 337 790 344 794 q 325 757 329 785 q 283 473 313 674 q 239 172 254 272 q 232 149 236 154 q 218 144 228 144 q 197 156 201 144 q 193 210 193 167 q 210 518 193 338 q 213 581 213 565 l 213 589 l 211 607 l 186 606 l 176 606 q 89 638 122 606 q 56 717 56 671 q 68 768 56 743 q 106 819 79 792 q 158 858 133 846 l 183 871 l 286 872 q 485 888 475 878 z "},"":{"ha":238,"x_min":56,"x_max":183,"o":"m 174 160 q 164 143 174 158 q 154 125 154 128 q 168 107 154 121 q 183 74 183 92 q 146 26 183 46 q 107 19 132 19 q 86 22 97 19 q 56 65 56 35 q 57 75 56 72 q 67 81 61 81 q 85 58 82 81 q 88 50 86 51 q 99 49 89 49 q 135 65 114 50 q 156 89 156 79 q 142 100 156 96 q 118 131 118 107 q 128 161 118 139 q 143 186 138 183 q 150 188 146 188 q 166 177 158 188 q 174 160 174 167 z "},"":{"ha":393,"x_min":56,"x_max":339,"o":"m 193 592 q 239 571 210 592 q 273 550 244 567 q 320 518 301 533 q 339 490 339 503 q 338 483 339 486 q 289 432 333 475 q 240 389 244 389 q 225 396 235 389 q 214 408 215 403 l 214 410 q 240 458 214 419 q 268 503 268 501 q 247 515 268 506 q 182 581 182 550 q 193 592 182 592 m 85 564 q 119 557 89 568 q 219 483 219 524 q 183 450 219 469 q 124 413 161 439 q 74 383 82 383 q 62 388 68 383 q 56 399 56 393 q 112 453 56 410 q 168 500 168 496 q 135 517 168 504 q 92 540 99 532 q 85 564 76 556 z "},"":{"ha":535,"x_min":56,"x_max":479,"o":"m 265 51 q 193 33 229 33 q 119 56 154 33 q 58 140 68 88 q 56 174 56 151 q 81 267 56 215 q 171 414 106 319 q 296 674 278 569 q 311 715 304 714 q 317 717 314 717 l 324 717 q 347 707 340 714 q 354 694 354 703 q 349 657 354 685 q 307 516 335 581 q 215 353 279 451 q 125 143 125 214 q 126 125 125 131 q 136 89 129 100 q 157 82 143 82 q 247 115 196 82 q 366 230 318 161 q 428 372 414 299 q 444 386 429 386 q 465 379 457 386 q 479 347 479 369 q 452 243 479 301 q 379 136 425 185 q 324 89 361 117 q 265 51 286 61 m 335 786 q 310 789 318 786 q 282 821 282 796 q 285 853 282 825 q 289 900 289 882 l 289 903 q 295 916 288 911 q 315 919 303 921 q 338 913 332 917 q 349 893 343 908 q 367 804 367 842 q 335 786 367 786 z "},"":{"ha":558,"x_min":7,"x_max":553,"o":"m 468 828 l 467 882 l 450 879 q 331 789 403 875 q 225 626 276 725 q 159 474 193 563 q 125 365 125 386 q 126 361 125 361 l 128 361 q 228 378 144 361 q 281 388 250 382 q 332 397 311 393 q 361 403 353 401 q 399 418 397 408 q 408 474 401 428 q 442 649 413 499 q 468 818 468 772 l 468 828 m 372 907 q 429 926 403 926 q 472 917 449 926 q 553 768 553 883 q 543 672 553 722 q 514 526 528 592 q 496 425 496 444 q 504 406 496 411 q 497 383 522 392 q 461 260 478 378 q 443 15 443 142 q 454 -83 443 -64 q 456 -90 456 -86 q 443 -99 456 -99 q 403 -79 418 -99 q 383 103 383 -53 q 390 308 383 179 l 390 338 q 389 361 390 360 q 385 363 386 363 q 340 356 372 363 q 114 300 124 306 q 96 251 103 294 q 68 26 76 144 q 60 -58 63 -47 q 43 -71 57 -69 l 32 -71 q 14 -64 18 -71 q 7 -33 10 -57 l 7 -10 q 26 217 7 81 l 38 293 l 25 306 q 15 321 15 314 q 35 336 15 329 q 53 353 46 340 q 78 425 60 367 q 215 728 133 596 q 372 907 296 861 m 390 1103 q 435 1090 417 1103 q 456 1065 449 1081 q 504 999 461 1053 q 511 965 526 971 q 500 964 508 964 q 419 1011 460 964 q 361 1089 361 1079 q 390 1103 361 1103 z "},"":{"ha":558,"x_min":7,"x_max":578,"o":"m 468 828 l 467 882 l 450 879 q 331 789 403 875 q 225 626 276 725 q 159 474 193 563 q 125 365 125 386 q 126 361 125 361 l 128 361 q 228 378 144 361 q 281 388 250 382 q 332 397 311 393 q 361 403 353 401 q 399 418 397 408 q 408 474 401 428 q 442 649 413 499 q 468 818 468 772 l 468 828 m 372 907 q 429 926 403 926 q 472 917 449 926 q 553 768 553 883 q 543 672 553 722 q 514 526 528 592 q 496 425 496 444 q 504 406 496 411 q 497 383 522 392 q 461 260 478 378 q 443 15 443 142 q 454 -83 443 -64 q 456 -90 456 -86 q 443 -99 456 -99 q 403 -79 418 -99 q 383 103 383 -53 q 390 308 383 179 l 390 338 q 389 361 390 360 q 385 363 386 363 q 340 356 372 363 q 114 300 124 306 q 96 251 103 294 q 68 26 76 144 q 60 -58 63 -47 q 43 -71 57 -69 l 32 -71 q 14 -64 18 -71 q 7 -33 10 -57 l 7 -10 q 26 217 7 81 l 38 293 l 25 306 q 15 321 15 314 q 35 336 15 329 q 53 353 46 340 q 78 425 60 367 q 215 728 133 596 q 372 907 296 861 m 569 1111 q 578 1090 578 1107 q 558 1039 578 1061 q 531 1022 549 1028 q 456 986 525 1021 q 428 975 435 975 q 421 989 421 975 q 483 1067 421 1028 q 568 1111 558 1111 l 569 1111 z "},"":{"ha":558,"x_min":7,"x_max":553,"o":"m 468 828 l 467 882 l 450 879 q 331 789 403 875 q 225 626 276 725 q 159 474 193 563 q 125 365 125 386 q 126 361 125 361 l 128 361 q 228 378 144 361 q 281 388 250 382 q 332 397 311 393 q 361 403 353 401 q 399 418 397 408 q 408 474 401 428 q 442 649 413 499 q 468 818 468 772 l 468 828 m 372 907 q 429 926 403 926 q 472 917 449 926 q 553 768 553 883 q 543 672 553 722 q 514 526 528 592 q 496 425 496 444 q 504 406 496 411 q 497 383 522 392 q 461 260 478 378 q 443 15 443 142 q 454 -83 443 -64 q 456 -90 456 -86 q 443 -99 456 -99 q 403 -79 418 -99 q 383 103 383 -53 q 390 308 383 179 l 390 338 q 389 361 390 360 q 385 363 386 363 q 340 356 372 363 q 114 300 124 306 q 96 251 103 294 q 68 26 76 144 q 60 -58 63 -47 q 43 -71 57 -69 l 32 -71 q 14 -64 18 -71 q 7 -33 10 -57 l 7 -10 q 26 217 7 81 l 38 293 l 25 306 q 15 321 15 314 q 35 336 15 329 q 53 353 46 340 q 78 425 60 367 q 215 728 133 596 q 372 907 296 861 m 429 1117 l 458 1160 l 471 1160 q 499 1152 485 1160 q 518 1133 513 1144 q 525 1078 524 1121 q 539 964 528 1018 q 540 954 540 956 q 531 953 539 953 q 506 967 515 953 q 486 1021 497 981 q 471 1068 474 1068 q 443 1032 469 1068 q 406 982 413 989 q 390 975 400 975 q 361 992 381 975 l 367 1008 q 429 1117 375 1033 z "},"":{"ha":558,"x_min":7,"x_max":572,"o":"m 468 828 l 467 882 l 450 879 q 331 789 403 875 q 225 626 276 725 q 159 474 193 563 q 125 365 125 386 q 126 361 125 361 l 128 361 q 228 378 144 361 q 281 388 250 382 q 332 397 311 393 q 361 403 353 401 q 399 418 397 408 q 408 474 401 428 q 442 649 413 499 q 468 818 468 772 l 468 828 m 372 907 q 429 926 403 926 q 472 917 449 926 q 553 768 553 883 q 543 672 553 722 q 514 526 528 592 q 496 425 496 444 q 504 406 496 411 q 497 383 522 392 q 461 260 478 378 q 443 15 443 142 q 454 -83 443 -64 q 456 -90 456 -86 q 443 -99 456 -99 q 403 -79 418 -99 q 383 103 383 -53 q 390 308 383 179 l 390 338 q 389 361 390 360 q 385 363 386 363 q 340 356 372 363 q 114 300 124 306 q 96 251 103 294 q 68 26 76 144 q 60 -58 63 -47 q 43 -71 57 -69 l 32 -71 q 14 -64 18 -71 q 7 -33 10 -57 l 7 -10 q 26 217 7 81 l 38 293 l 25 306 q 15 321 15 314 q 35 336 15 329 q 53 353 46 340 q 78 425 60 367 q 215 728 133 596 q 372 907 296 861 m 521 1079 q 535 1092 525 1092 q 560 1083 547 1092 q 572 1064 572 1075 q 540 1004 572 1039 q 494 986 524 986 q 446 1000 469 986 q 419 1014 421 1014 q 397 1003 414 1014 q 378 994 385 994 q 356 1004 369 994 q 344 1025 344 1013 q 351 1047 344 1036 q 392 1071 367 1071 q 453 1042 422 1071 q 481 1028 468 1026 q 502 1047 489 1031 q 521 1079 515 1064 z "},"":{"ha":558,"x_min":7,"x_max":568,"o":"m 468 828 l 467 882 l 450 879 q 331 789 403 875 q 225 626 276 725 q 159 474 193 563 q 125 365 125 386 q 126 361 125 361 l 128 361 q 228 378 144 361 q 281 388 250 382 q 332 397 311 393 q 361 403 353 401 q 399 418 397 408 q 408 474 401 428 q 442 649 413 499 q 468 818 468 772 l 468 828 m 372 907 q 429 926 403 926 q 472 917 449 926 q 553 768 553 883 q 543 672 553 722 q 514 526 528 592 q 496 425 496 444 q 504 406 496 411 q 497 383 522 392 q 461 260 478 378 q 443 15 443 142 q 454 -83 443 -64 q 456 -90 456 -86 q 443 -99 456 -99 q 403 -79 418 -99 q 383 103 383 -53 q 390 308 383 179 l 390 338 q 389 361 390 360 q 385 363 386 363 q 340 356 372 363 q 114 300 124 306 q 96 251 103 294 q 68 26 76 144 q 60 -58 63 -47 q 43 -71 57 -69 l 32 -71 q 14 -64 18 -71 q 7 -33 10 -57 l 7 -10 q 26 217 7 81 l 38 293 l 25 306 q 15 321 15 314 q 35 336 15 329 q 53 353 46 340 q 78 425 60 367 q 215 728 133 596 q 372 907 296 861 m 478 1053 q 500 1069 489 1069 q 545 1049 522 1069 q 568 1008 568 1028 q 554 986 568 994 q 532 981 544 981 q 474 1013 494 981 q 468 1028 468 1019 q 478 1053 468 1038 m 367 1067 q 389 1083 378 1083 q 434 1063 411 1083 q 457 1022 457 1042 q 443 1000 457 1008 q 421 994 433 994 q 363 1026 383 994 q 357 1042 357 1033 q 367 1067 357 1051 z "},"":{"ha":558,"x_min":7,"x_max":553,"o":"m 468 828 l 467 882 l 450 879 q 331 789 403 875 q 225 626 276 725 q 159 474 193 563 q 125 365 125 386 q 126 361 125 361 l 128 361 q 228 378 144 361 q 281 388 250 382 q 332 397 311 393 q 361 403 353 401 q 399 418 397 408 q 408 474 401 428 q 442 649 413 499 q 468 818 468 772 l 468 828 m 372 907 q 429 926 403 926 q 472 917 449 926 q 553 768 553 883 q 543 672 553 722 q 514 526 528 592 q 496 425 496 444 q 504 406 496 411 q 497 383 522 392 q 461 260 478 378 q 443 15 443 142 q 454 -83 443 -64 q 456 -90 456 -86 q 443 -99 456 -99 q 403 -79 418 -99 q 383 103 383 -53 q 390 308 383 179 l 390 338 q 389 361 390 360 q 385 363 386 363 q 340 356 372 363 q 114 300 124 306 q 96 251 103 294 q 68 26 76 144 q 60 -58 63 -47 q 43 -71 57 -69 l 32 -71 q 14 -64 18 -71 q 7 -33 10 -57 l 7 -10 q 26 217 7 81 l 38 293 l 25 306 q 15 321 15 314 q 35 336 15 329 q 53 353 46 340 q 78 425 60 367 q 215 728 133 596 q 372 907 296 861 m 518 1060 q 510 1085 518 1085 q 490 1066 501 1085 q 474 1028 479 1047 q 476 1000 464 1000 q 504 1019 490 1000 q 518 1060 518 1039 m 479 1117 q 489 1119 483 1119 q 519 1099 501 1119 q 542 1053 542 1072 q 533 1024 542 1040 q 515 998 528 1011 q 493 982 501 985 q 482 981 489 981 q 450 994 464 981 q 436 1029 436 1008 q 449 1080 436 1054 q 479 1117 463 1106 z "},"":{"ha":958,"x_min":7,"x_max":988,"o":"m 454 206 q 625 383 518 318 q 638 392 632 388 q 646 401 643 397 q 647 404 649 404 q 608 417 646 406 q 501 471 546 433 q 496 425 496 442 q 504 406 496 411 q 497 383 522 392 q 461 260 478 378 q 454 206 456 224 m 468 828 l 467 882 l 450 879 q 331 789 403 875 q 225 626 276 725 q 159 474 193 563 q 125 365 125 386 q 126 361 125 361 l 128 361 q 228 378 144 361 q 281 388 250 382 q 332 397 311 393 q 361 403 353 401 q 399 418 397 408 q 408 474 401 428 q 442 649 413 499 q 468 818 468 772 l 468 828 m 689 842 q 771 853 722 853 q 853 839 824 853 q 949 714 949 796 q 948 708 949 711 q 947 703 947 706 q 916 608 943 660 q 871 556 889 556 q 856 567 856 556 q 868 607 856 575 q 892 719 892 672 q 888 758 892 739 q 863 797 879 789 q 822 806 846 806 q 694 768 768 806 q 569 676 619 731 q 536 633 547 653 q 524 572 532 614 q 514 526 515 531 q 586 453 526 479 q 738 426 650 426 l 751 426 q 762 427 756 426 q 771 428 768 428 q 800 425 794 428 q 807 417 804 422 q 808 408 810 413 q 803 404 807 404 q 797 393 797 404 q 775 376 797 382 q 643 300 719 363 q 529 176 567 238 q 488 47 488 110 q 517 -29 488 -4 q 546 -40 529 -40 q 565 -39 557 -40 q 658 -6 614 -33 q 764 83 703 21 q 838 169 811 133 q 910 286 864 206 q 935 331 921 307 q 956 367 949 354 q 964 382 963 381 q 978 386 969 390 q 988 371 988 382 q 938 262 988 356 q 858 129 888 168 q 710 -24 779 25 q 565 -68 644 -68 q 443 -18 479 -68 q 454 -83 444 -68 q 456 -90 456 -86 q 443 -99 456 -99 q 403 -79 418 -99 q 383 103 383 -53 q 390 308 383 179 l 390 338 q 389 361 390 360 q 385 363 386 363 q 340 356 372 363 q 114 300 124 306 q 96 251 103 294 q 68 26 76 144 q 60 -58 63 -47 q 43 -71 57 -69 l 32 -71 q 14 -64 18 -71 q 7 -33 10 -57 l 7 -10 q 26 217 7 81 l 38 293 l 25 306 q 15 321 15 314 q 35 336 15 329 q 53 353 46 340 q 78 425 60 367 q 215 728 133 596 q 372 907 296 861 q 429 926 403 926 q 472 917 449 926 q 553 769 553 883 q 689 842 611 818 z "},"":{"ha":588,"x_min":29,"x_max":629,"o":"m 371 854 q 403 857 381 857 q 493 834 450 857 q 554 776 536 811 q 569 697 569 743 q 553 602 569 646 q 514 557 538 558 q 510 556 513 557 l 507 556 q 488 574 488 556 q 493 600 488 585 q 503 686 503 625 q 496 754 503 729 q 447 806 482 806 q 332 731 407 806 q 136 347 181 579 q 124 203 124 283 q 135 94 124 135 q 240 -62 172 -36 q 253 -67 244 -60 q 269 -68 258 -68 q 315 -57 294 -68 q 433 58 376 -28 q 563 325 496 151 q 591 391 585 381 q 610 403 597 401 l 615 403 q 629 390 629 403 q 615 340 629 376 q 432 -12 515 74 q 265 -94 351 -94 q 246 -125 246 -121 q 261 -143 246 -128 q 276 -176 276 -158 q 239 -224 276 -204 q 200 -231 225 -231 q 179 -228 190 -231 q 149 -185 149 -215 q 150 -175 149 -178 q 160 -169 154 -169 q 178 -192 175 -169 q 181 -200 179 -199 q 192 -201 182 -201 q 228 -185 207 -200 q 249 -161 249 -171 q 235 -150 249 -154 q 211 -119 211 -143 q 219 -90 211 -107 q 53 96 108 -68 q 29 250 29 165 q 30 269 29 256 q 31 289 31 282 q 108 601 38 461 q 231 769 157 699 q 371 854 306 840 z "},"":{"ha":542,"x_min":0,"x_max":571,"o":"m 272 842 q 354 853 306 853 q 436 839 407 853 q 532 714 532 796 q 531 708 532 711 q 531 703 531 706 q 499 608 526 660 q 454 556 472 556 q 439 567 439 556 q 451 607 439 575 q 475 719 475 672 q 471 758 475 739 q 446 797 463 789 q 406 806 429 806 q 277 768 351 806 q 153 676 203 731 q 93 554 93 613 q 169 453 93 486 q 321 426 233 426 l 335 426 q 345 427 339 426 q 354 428 351 428 q 383 425 378 428 q 390 417 388 422 q 392 408 393 413 q 386 404 390 404 q 381 393 381 404 q 358 376 381 382 q 226 300 303 363 q 113 176 150 238 q 71 47 71 110 q 100 -29 71 -4 q 129 -40 113 -40 q 149 -39 140 -40 q 242 -6 197 -33 q 347 83 286 21 q 421 169 394 133 q 493 286 447 206 q 518 331 504 307 q 539 367 532 354 q 547 382 546 381 q 562 386 553 390 q 571 371 571 382 q 521 262 571 356 q 442 129 471 168 q 293 -24 363 25 q 149 -68 228 -68 q 50 -40 88 -68 q 0 76 0 -3 q 7 129 0 99 q 80 267 22 194 q 208 383 138 339 q 221 392 215 388 q 229 401 226 397 q 231 404 232 404 q 192 417 229 406 q 71 483 125 433 q 24 579 24 529 l 24 596 q 104 740 29 665 q 272 842 176 813 m 279 1049 q 324 1036 306 1049 q 344 1011 338 1026 q 393 944 350 999 q 400 911 415 917 q 389 910 397 910 q 308 957 349 910 q 250 1035 250 1025 q 279 1049 250 1049 z "},"":{"ha":542,"x_min":0,"x_max":571,"o":"m 272 842 q 354 853 306 853 q 436 839 407 853 q 532 714 532 796 q 531 708 532 711 q 531 703 531 706 q 499 608 526 660 q 454 556 472 556 q 439 567 439 556 q 451 607 439 575 q 475 719 475 672 q 471 758 475 739 q 446 797 463 789 q 406 806 429 806 q 277 768 351 806 q 153 676 203 731 q 93 554 93 613 q 169 453 93 486 q 321 426 233 426 l 335 426 q 345 427 339 426 q 354 428 351 428 q 383 425 378 428 q 390 417 388 422 q 392 408 393 413 q 386 404 390 404 q 381 393 381 404 q 358 376 381 382 q 226 300 303 363 q 113 176 150 238 q 71 47 71 110 q 100 -29 71 -4 q 129 -40 113 -40 q 149 -39 140 -40 q 242 -6 197 -33 q 347 83 286 21 q 421 169 394 133 q 493 286 447 206 q 518 331 504 307 q 539 367 532 354 q 547 382 546 381 q 562 386 553 390 q 571 371 571 382 q 521 262 571 356 q 442 129 471 168 q 293 -24 363 25 q 149 -68 228 -68 q 50 -40 88 -68 q 0 76 0 -3 q 7 129 0 99 q 80 267 22 194 q 208 383 138 339 q 221 392 215 388 q 229 401 226 397 q 231 404 232 404 q 192 417 229 406 q 71 483 125 433 q 24 579 24 529 l 24 596 q 104 740 29 665 q 272 842 176 813 m 431 1042 q 439 1021 439 1038 q 419 969 439 992 q 392 953 410 958 q 317 917 386 951 q 289 906 296 906 q 282 919 282 906 q 344 997 282 958 q 429 1042 419 1042 l 431 1042 z "},"":{"ha":542,"x_min":0,"x_max":571,"o":"m 272 842 q 354 853 306 853 q 436 839 407 853 q 532 714 532 796 q 531 708 532 711 q 531 703 531 706 q 499 608 526 660 q 454 556 472 556 q 439 567 439 556 q 451 607 439 575 q 475 719 475 672 q 471 758 475 739 q 446 797 463 789 q 406 806 429 806 q 277 768 351 806 q 153 676 203 731 q 93 554 93 613 q 169 453 93 486 q 321 426 233 426 l 335 426 q 345 427 339 426 q 354 428 351 428 q 383 425 378 428 q 390 417 388 422 q 392 408 393 413 q 386 404 390 404 q 381 393 381 404 q 358 376 381 382 q 226 300 303 363 q 113 176 150 238 q 71 47 71 110 q 100 -29 71 -4 q 129 -40 113 -40 q 149 -39 140 -40 q 242 -6 197 -33 q 347 83 286 21 q 421 169 394 133 q 493 286 447 206 q 518 331 504 307 q 539 367 532 354 q 547 382 546 381 q 562 386 553 390 q 571 371 571 382 q 521 262 571 356 q 442 129 471 168 q 293 -24 363 25 q 149 -68 228 -68 q 50 -40 88 -68 q 0 76 0 -3 q 7 129 0 99 q 80 267 22 194 q 208 383 138 339 q 221 392 215 388 q 229 401 226 397 q 231 404 232 404 q 192 417 229 406 q 71 483 125 433 q 24 579 24 529 l 24 596 q 104 740 29 665 q 272 842 176 813 m 332 1051 l 361 1094 l 374 1094 q 401 1087 388 1094 q 421 1068 415 1079 q 428 1013 426 1056 q 442 897 431 951 q 442 888 443 889 q 433 888 442 888 q 409 901 418 888 q 389 956 400 915 q 374 1003 376 1003 q 346 967 372 1003 q 309 917 315 924 q 293 910 303 910 q 264 926 283 910 l 269 943 q 332 1051 278 968 z "},"":{"ha":542,"x_min":0,"x_max":571,"o":"m 272 842 q 354 853 306 853 q 436 839 407 853 q 532 714 532 796 q 531 708 532 711 q 531 703 531 706 q 499 608 526 660 q 454 556 472 556 q 439 567 439 556 q 451 607 439 575 q 475 719 475 672 q 471 758 475 739 q 446 797 463 789 q 406 806 429 806 q 277 768 351 806 q 153 676 203 731 q 93 554 93 613 q 169 453 93 486 q 321 426 233 426 l 335 426 q 345 427 339 426 q 354 428 351 428 q 383 425 378 428 q 390 417 388 422 q 392 408 393 413 q 386 404 390 404 q 381 393 381 404 q 358 376 381 382 q 226 300 303 363 q 113 176 150 238 q 71 47 71 110 q 100 -29 71 -4 q 129 -40 113 -40 q 149 -39 140 -40 q 242 -6 197 -33 q 347 83 286 21 q 421 169 394 133 q 493 286 447 206 q 518 331 504 307 q 539 367 532 354 q 547 382 546 381 q 562 386 553 390 q 571 371 571 382 q 521 262 571 356 q 442 129 471 168 q 293 -24 363 25 q 149 -68 228 -68 q 50 -40 88 -68 q 0 76 0 -3 q 7 129 0 99 q 80 267 22 194 q 208 383 138 339 q 221 392 215 388 q 229 401 226 397 q 231 404 232 404 q 192 417 229 406 q 71 483 125 433 q 24 579 24 529 l 24 596 q 104 740 29 665 q 272 842 176 813 m 367 983 q 389 1000 378 1000 q 434 979 411 1000 q 457 939 457 958 q 443 917 457 925 q 421 911 433 911 q 363 943 383 911 q 357 958 357 950 q 367 983 357 968 m 256 997 q 278 1014 267 1014 q 323 993 300 1014 q 346 953 346 972 q 332 931 346 939 q 310 925 322 925 q 251 957 272 925 q 246 972 246 964 q 256 997 246 982 z "},"":{"ha":399,"x_min":-11,"x_max":500,"o":"m 247 901 q 293 908 282 908 q 329 900 311 908 q 425 883 371 883 l 447 883 q 456 884 450 883 q 464 885 461 885 q 500 863 500 885 q 439 840 500 840 l 431 840 l 413 840 q 380 835 386 840 q 367 807 374 831 q 319 676 363 792 q 176 240 221 422 q 125 -107 132 58 q 124 -121 125 -112 q 124 -132 124 -129 q 131 -160 124 -158 l 132 -160 q 215 -121 144 -160 q 299 -82 288 -82 q 301 -83 300 -82 q 304 -83 303 -83 q 321 -94 321 -87 q 240 -158 321 -107 q 106 -249 119 -239 q 26 -289 47 -289 q 7 -286 21 -289 q -11 -272 -11 -281 q 86 -192 -11 -253 q 90 -182 90 -189 q 83 -133 90 -167 q 69 14 69 -60 q 103 324 69 139 q 214 736 136 504 q 242 825 242 819 q 233 831 242 831 q 199 821 218 831 q 160 821 179 811 q 139 847 139 831 q 150 869 139 860 q 247 901 165 883 m 251 1103 q 296 1090 278 1103 q 317 1065 310 1081 q 365 999 322 1053 q 372 965 388 971 q 361 964 369 964 q 281 1011 321 964 q 222 1089 222 1079 q 251 1103 222 1103 z "},"":{"ha":399,"x_min":-11,"x_max":500,"o":"m 247 901 q 293 908 282 908 q 329 900 311 908 q 425 883 371 883 l 447 883 q 456 884 450 883 q 464 885 461 885 q 500 863 500 885 q 439 840 500 840 l 431 840 l 413 840 q 380 835 386 840 q 367 807 374 831 q 319 676 363 792 q 176 240 221 422 q 125 -107 132 58 q 124 -121 125 -112 q 124 -132 124 -129 q 131 -160 124 -158 l 132 -160 q 215 -121 144 -160 q 299 -82 288 -82 q 301 -83 300 -82 q 304 -83 303 -83 q 321 -94 321 -87 q 240 -158 321 -107 q 106 -249 119 -239 q 26 -289 47 -289 q 7 -286 21 -289 q -11 -272 -11 -281 q 86 -192 -11 -253 q 90 -182 90 -189 q 83 -133 90 -167 q 69 14 69 -60 q 103 324 69 139 q 214 736 136 504 q 242 825 242 819 q 233 831 242 831 q 199 821 218 831 q 160 821 179 811 q 139 847 139 831 q 150 869 139 860 q 247 901 165 883 m 431 1110 q 439 1089 439 1106 q 419 1038 439 1060 q 392 1021 410 1026 q 317 985 386 1019 q 289 974 296 974 q 282 988 282 974 q 344 1065 282 1026 q 429 1110 419 1110 l 431 1110 z "},"":{"ha":399,"x_min":-11,"x_max":500,"o":"m 247 901 q 293 908 282 908 q 329 900 311 908 q 425 883 371 883 l 447 883 q 456 884 450 883 q 464 885 461 885 q 500 863 500 885 q 439 840 500 840 l 431 840 l 413 840 q 380 835 386 840 q 367 807 374 831 q 319 676 363 792 q 176 240 221 422 q 125 -107 132 58 q 124 -121 125 -112 q 124 -132 124 -129 q 131 -160 124 -158 l 132 -160 q 215 -121 144 -160 q 299 -82 288 -82 q 301 -83 300 -82 q 304 -83 303 -83 q 321 -94 321 -87 q 240 -158 321 -107 q 106 -249 119 -239 q 26 -289 47 -289 q 7 -286 21 -289 q -11 -272 -11 -281 q 86 -192 -11 -253 q 90 -182 90 -189 q 83 -133 90 -167 q 69 14 69 -60 q 103 324 69 139 q 214 736 136 504 q 242 825 242 819 q 233 831 242 831 q 199 821 218 831 q 160 821 179 811 q 139 847 139 831 q 150 869 139 860 q 247 901 165 883 m 304 1117 l 333 1160 l 346 1160 q 374 1152 360 1160 q 393 1133 388 1144 q 400 1078 399 1121 q 414 964 403 1018 q 415 954 415 956 q 406 953 414 953 q 381 967 390 953 q 361 1021 372 981 q 346 1068 349 1068 q 318 1032 344 1068 q 281 982 288 989 q 265 975 275 975 q 236 992 256 975 l 242 1008 q 304 1117 250 1033 z "},"":{"ha":399,"x_min":-11,"x_max":500,"o":"m 247 901 q 293 908 282 908 q 329 900 311 908 q 425 883 371 883 l 447 883 q 456 884 450 883 q 464 885 461 885 q 500 863 500 885 q 439 840 500 840 l 431 840 l 413 840 q 380 835 386 840 q 367 807 374 831 q 319 676 363 792 q 176 240 221 422 q 125 -107 132 58 q 124 -121 125 -112 q 124 -132 124 -129 q 131 -160 124 -158 l 132 -160 q 215 -121 144 -160 q 299 -82 288 -82 q 301 -83 300 -82 q 304 -83 303 -83 q 321 -94 321 -87 q 240 -158 321 -107 q 106 -249 119 -239 q 26 -289 47 -289 q 7 -286 21 -289 q -11 -272 -11 -281 q 86 -192 -11 -253 q 90 -182 90 -189 q 83 -133 90 -167 q 69 14 69 -60 q 103 324 69 139 q 214 736 136 504 q 242 825 242 819 q 233 831 242 831 q 199 821 218 831 q 160 821 179 811 q 139 847 139 831 q 150 869 139 860 q 247 901 165 883 m 339 1036 q 361 1053 350 1053 q 406 1032 383 1053 q 429 992 429 1011 q 415 969 429 978 q 393 964 406 964 q 335 996 356 964 q 329 1011 329 1003 q 339 1036 329 1021 m 228 1050 q 250 1067 239 1067 q 295 1046 272 1067 q 318 1006 318 1025 q 304 983 318 992 q 282 978 294 978 q 224 1010 244 978 q 218 1025 218 1017 q 228 1050 218 1035 z "},"":{"ha":682,"x_min":-103,"x_max":703,"o":"m 382 864 q 424 869 394 869 l 435 869 q 554 810 503 865 q 625 669 606 756 q 632 586 632 642 q 613 422 632 500 q 601 365 601 378 q 603 361 601 361 l 639 371 q 689 381 674 381 q 703 374 703 381 q 642 344 703 365 l 583 325 l 557 271 q 206 -104 428 0 q 111 -128 154 -128 q 38 -94 54 -128 q 31 -51 31 -82 q 39 0 31 -22 q 36 35 49 26 q 13 106 22 46 q 0 313 0 175 q 1 392 0 367 q -28 390 -10 390 q -78 407 -61 390 q -97 444 -103 429 q 7 458 -94 454 q 71 674 21 563 q 114 750 88 710 q 150 796 140 790 q 176 800 158 800 q 244 779 233 800 q 254 774 249 774 q 292 799 267 774 q 382 864 340 847 m 511 783 q 453 832 486 832 q 421 825 442 832 q 266 699 340 797 q 143 461 192 601 q 185 463 167 463 l 188 463 q 217 450 201 463 q 233 426 233 438 q 222 415 233 418 q 169 407 210 411 q 125 403 142 404 q 101 310 107 340 q 82 104 82 207 q 83 88 82 89 q 122 118 92 88 q 190 175 154 150 q 407 286 263 224 q 472 324 460 310 q 503 399 485 338 q 540 633 540 528 q 511 783 540 725 m 449 263 q 442 268 449 268 q 329 216 432 268 q 201 146 226 164 q 96 46 142 106 q 58 -53 58 -6 q 65 -86 58 -69 q 76 -103 72 -101 q 96 -104 79 -106 q 235 -28 151 -97 q 375 128 318 42 q 423 209 397 163 q 449 263 449 256 z "},"":{"ha":676,"x_min":0,"x_max":715,"o":"m 518 861 q 554 874 536 874 q 603 856 579 874 q 638 815 628 838 q 647 749 647 792 q 625 628 647 696 q 557 463 604 567 q 453 194 476 286 q 436 79 436 133 q 461 -7 436 8 q 465 -8 463 -8 q 499 11 476 -8 q 539 54 522 31 q 638 257 579 113 q 685 368 681 364 q 703 369 692 374 q 715 357 715 365 q 640 165 715 346 q 564 35 608 89 q 485 -24 519 -18 q 465 -25 478 -25 q 417 -4 438 -25 q 385 119 385 28 q 385 134 385 124 q 386 150 386 144 q 408 300 389 229 q 506 578 440 418 q 558 717 553 696 q 571 799 571 756 q 568 818 571 815 q 565 819 567 819 q 480 756 549 819 q 369 635 411 692 q 154 192 249 474 q 117 103 129 115 q 90 94 108 94 q 46 110 64 94 q 0 311 0 153 q 50 589 0 483 q 77 635 65 624 q 107 647 89 647 q 113 647 108 647 q 118 646 117 646 q 165 633 143 644 q 192 607 186 621 q 193 599 193 604 q 174 543 193 586 q 113 346 136 457 q 97 211 97 272 q 99 203 97 203 q 136 292 100 203 q 371 715 240 550 q 447 799 400 753 q 518 861 494 846 m 549 1024 q 563 1036 553 1036 q 588 1028 575 1036 q 600 1008 600 1019 q 568 949 600 983 q 522 931 551 931 q 474 944 497 931 q 447 958 449 958 q 425 947 442 958 q 406 939 413 939 q 383 949 397 939 q 372 969 372 957 q 379 992 372 981 q 419 1015 394 1015 q 481 986 450 1015 q 508 972 496 971 q 530 992 517 975 q 549 1024 543 1008 z "},"":{"ha":668,"x_min":-3,"x_max":613,"o":"m 232 319 q 199 347 204 347 q 136 254 181 347 q 93 78 93 164 q 163 -68 93 -36 q 186 -75 181 -75 q 213 -69 196 -75 q 358 29 282 -49 q 431 118 389 61 q 472 185 472 175 q 450 194 472 189 q 333 244 396 208 q 232 319 269 281 m 458 822 q 408 829 440 829 q 351 822 369 829 q 264 760 304 806 q 206 658 224 714 q 188 551 188 597 q 189 531 188 536 l 192 500 l 228 500 l 232 500 q 307 471 289 500 q 308 464 308 469 q 263 422 308 447 q 236 396 236 408 q 260 351 236 383 q 358 263 297 303 q 461 218 418 222 q 470 217 465 218 q 476 217 475 217 q 499 236 488 217 q 550 407 529 293 q 563 538 563 474 q 521 749 563 661 q 458 822 493 807 m 317 863 q 363 867 336 867 q 426 860 403 867 q 551 775 507 839 q 608 594 594 711 q 613 533 613 565 q 568 285 613 418 q 549 222 549 229 q 565 218 549 218 q 590 210 582 218 q 594 201 594 206 q 554 185 594 185 l 528 185 l 511 153 q 379 -15 463 64 q 197 -101 288 -101 q 118 -87 156 -101 q 30 -12 63 -67 q -3 113 -3 43 q 0 153 -3 125 q 110 414 21 294 l 138 450 l 128 479 q 117 564 117 513 q 131 672 117 632 q 206 795 153 742 q 317 863 258 849 m 388 1047 q 432 1035 414 1047 q 453 1010 446 1025 q 501 943 458 997 q 508 910 524 915 q 497 908 506 908 q 417 956 457 908 q 358 1033 358 1024 q 388 1047 358 1047 z "},"":{"ha":668,"x_min":-3,"x_max":613,"o":"m 232 319 q 199 347 204 347 q 136 254 181 347 q 93 78 93 164 q 163 -68 93 -36 q 186 -75 181 -75 q 213 -69 196 -75 q 358 29 282 -49 q 431 118 389 61 q 472 185 472 175 q 450 194 472 189 q 333 244 396 208 q 232 319 269 281 m 458 822 q 408 829 440 829 q 351 822 369 829 q 264 760 304 806 q 206 658 224 714 q 188 551 188 597 q 189 531 188 536 l 192 500 l 228 500 l 232 500 q 307 471 289 500 q 308 464 308 469 q 263 422 308 447 q 236 396 236 408 q 260 351 236 383 q 358 263 297 303 q 461 218 418 222 q 470 217 465 218 q 476 217 475 217 q 499 236 488 217 q 550 407 529 293 q 563 538 563 474 q 521 749 563 661 q 458 822 493 807 m 317 863 q 363 867 336 867 q 426 860 403 867 q 551 775 507 839 q 608 594 594 711 q 613 533 613 565 q 568 285 613 418 q 549 222 549 229 q 565 218 549 218 q 590 210 582 218 q 594 201 594 206 q 554 185 594 185 l 528 185 l 511 153 q 379 -15 463 64 q 197 -101 288 -101 q 118 -87 156 -101 q 30 -12 63 -67 q -3 113 -3 43 q 0 153 -3 125 q 110 414 21 294 l 138 450 l 128 479 q 117 564 117 513 q 131 672 117 632 q 206 795 153 742 q 317 863 258 849 m 556 1056 q 564 1035 564 1051 q 544 983 564 1006 q 517 967 535 972 q 442 931 511 965 q 414 919 421 919 q 407 933 407 919 q 469 1011 407 972 q 554 1056 544 1056 l 556 1056 z "},"":{"ha":668,"x_min":-3,"x_max":613,"o":"m 232 319 q 199 347 204 347 q 136 254 181 347 q 93 78 93 164 q 163 -68 93 -36 q 186 -75 181 -75 q 213 -69 196 -75 q 358 29 282 -49 q 431 118 389 61 q 472 185 472 175 q 450 194 472 189 q 333 244 396 208 q 232 319 269 281 m 458 822 q 408 829 440 829 q 351 822 369 829 q 264 760 304 806 q 206 658 224 714 q 188 551 188 597 q 189 531 188 536 l 192 500 l 228 500 l 232 500 q 307 471 289 500 q 308 464 308 469 q 263 422 308 447 q 236 396 236 408 q 260 351 236 383 q 358 263 297 303 q 461 218 418 222 q 470 217 465 218 q 476 217 475 217 q 499 236 488 217 q 550 407 529 293 q 563 538 563 474 q 521 749 563 661 q 458 822 493 807 m 317 863 q 363 867 336 867 q 426 860 403 867 q 551 775 507 839 q 608 594 594 711 q 613 533 613 565 q 568 285 613 418 q 549 222 549 229 q 565 218 549 218 q 590 210 582 218 q 594 201 594 206 q 554 185 594 185 l 528 185 l 511 153 q 379 -15 463 64 q 197 -101 288 -101 q 118 -87 156 -101 q 30 -12 63 -67 q -3 113 -3 43 q 0 153 -3 125 q 110 414 21 294 l 138 450 l 128 479 q 117 564 117 513 q 131 672 117 632 q 206 795 153 742 q 317 863 258 849 m 388 1075 l 417 1118 l 429 1118 q 457 1110 443 1118 q 476 1092 471 1103 q 483 1036 482 1079 q 497 922 486 976 q 498 913 499 914 q 489 911 497 911 q 465 925 474 911 q 444 979 456 939 q 429 1026 432 1026 q 401 990 428 1026 q 365 940 371 947 q 349 933 358 933 q 319 950 339 933 l 325 967 q 388 1075 333 992 z "},"":{"ha":668,"x_min":-3,"x_max":613,"o":"m 232 319 q 199 347 204 347 q 136 254 181 347 q 93 78 93 164 q 163 -68 93 -36 q 186 -75 181 -75 q 213 -69 196 -75 q 358 29 282 -49 q 431 118 389 61 q 472 185 472 175 q 450 194 472 189 q 333 244 396 208 q 232 319 269 281 m 458 822 q 408 829 440 829 q 351 822 369 829 q 264 760 304 806 q 206 658 224 714 q 188 551 188 597 q 189 531 188 536 l 192 500 l 228 500 l 232 500 q 307 471 289 500 q 308 464 308 469 q 263 422 308 447 q 236 396 236 408 q 260 351 236 383 q 358 263 297 303 q 461 218 418 222 q 470 217 465 218 q 476 217 475 217 q 499 236 488 217 q 550 407 529 293 q 563 538 563 474 q 521 749 563 661 q 458 822 493 807 m 317 863 q 363 867 336 867 q 426 860 403 867 q 551 775 507 839 q 608 594 594 711 q 613 533 613 565 q 568 285 613 418 q 549 222 549 229 q 565 218 549 218 q 590 210 582 218 q 594 201 594 206 q 554 185 594 185 l 528 185 l 511 153 q 379 -15 463 64 q 197 -101 288 -101 q 118 -87 156 -101 q 30 -12 63 -67 q -3 113 -3 43 q 0 153 -3 125 q 110 414 21 294 l 138 450 l 128 479 q 117 564 117 513 q 131 672 117 632 q 206 795 153 742 q 317 863 258 849 m 493 1010 q 507 1022 497 1022 q 532 1014 519 1022 q 544 994 544 1006 q 513 935 544 969 q 467 917 496 917 q 418 931 442 917 q 392 944 393 944 q 369 933 386 944 q 350 925 357 925 q 328 935 342 925 q 317 956 317 943 q 324 978 317 967 q 364 1001 339 1001 q 425 972 394 1001 q 453 958 440 957 q 474 978 461 961 q 493 1010 488 994 z "},"":{"ha":668,"x_min":-3,"x_max":613,"o":"m 232 319 q 199 347 204 347 q 136 254 181 347 q 93 78 93 164 q 163 -68 93 -36 q 186 -75 181 -75 q 213 -69 196 -75 q 358 29 282 -49 q 431 118 389 61 q 472 185 472 175 q 450 194 472 189 q 333 244 396 208 q 232 319 269 281 m 458 822 q 408 829 440 829 q 351 822 369 829 q 264 760 304 806 q 206 658 224 714 q 188 551 188 597 q 189 531 188 536 l 192 500 l 228 500 l 232 500 q 307 471 289 500 q 308 464 308 469 q 263 422 308 447 q 236 396 236 408 q 260 351 236 383 q 358 263 297 303 q 461 218 418 222 q 470 217 465 218 q 476 217 475 217 q 499 236 488 217 q 550 407 529 293 q 563 538 563 474 q 521 749 563 661 q 458 822 493 807 m 317 863 q 363 867 336 867 q 426 860 403 867 q 551 775 507 839 q 608 594 594 711 q 613 533 613 565 q 568 285 613 418 q 549 222 549 229 q 565 218 549 218 q 590 210 582 218 q 594 201 594 206 q 554 185 594 185 l 528 185 l 511 153 q 379 -15 463 64 q 197 -101 288 -101 q 118 -87 156 -101 q 30 -12 63 -67 q -3 113 -3 43 q 0 153 -3 125 q 110 414 21 294 l 138 450 l 128 479 q 117 564 117 513 q 131 672 117 632 q 206 795 153 742 q 317 863 258 849 m 438 985 q 460 1001 449 1001 q 505 981 482 1001 q 528 940 528 960 q 514 918 528 926 q 492 913 504 913 q 433 944 454 913 q 428 960 428 951 q 438 985 428 969 m 326 999 q 349 1015 338 1015 q 394 994 371 1015 q 417 954 417 974 q 403 932 417 940 q 381 926 393 926 q 322 958 343 926 q 317 974 317 965 q 326 999 317 983 z "},"":{"ha":410,"x_min":56,"x_max":356,"o":"m 276 613 q 301 628 290 628 q 335 609 315 628 q 356 574 356 590 q 288 474 356 553 q 258 433 258 439 q 306 301 258 418 q 317 265 317 271 q 311 253 317 257 q 282 247 304 247 q 252 253 260 247 q 235 288 244 260 q 200 364 213 347 q 174 351 194 371 q 99 293 124 306 q 64 299 81 283 q 56 310 56 306 q 108 393 56 318 q 151 456 150 450 l 151 461 q 135 504 151 467 q 96 601 96 588 l 96 607 q 128 618 103 618 q 165 610 149 618 q 193 572 178 603 q 214 543 207 543 q 240 569 219 543 q 276 613 272 608 z "},"":{"ha":668,"x_min":-26,"x_max":649,"o":"m 103 8 q 163 -68 121 -50 q 186 -75 181 -75 q 213 -69 196 -75 q 358 29 282 -49 q 431 118 389 61 q 472 185 472 175 q 450 194 472 189 q 297 267 375 214 l 103 8 m 317 293 q 461 218 399 225 q 470 217 465 218 q 476 217 475 217 q 499 236 488 217 q 544 374 526 289 q 563 543 563 460 q 558 613 563 579 l 317 293 m 317 863 q 363 867 336 867 q 426 860 403 867 q 582 715 539 831 l 611 753 q 626 761 617 761 q 642 755 635 761 q 649 740 649 749 q 644 728 649 733 l 597 665 q 613 531 613 604 q 568 285 613 418 q 549 222 549 229 q 565 218 549 218 q 590 210 582 218 q 594 201 594 206 q 554 185 594 185 l 528 185 l 511 153 q 379 -15 463 64 q 197 -101 288 -101 q 118 -87 156 -101 q 60 -49 88 -76 l 11 -114 q -4 -122 6 -122 q -19 -116 -12 -122 q -26 -101 -26 -110 q -22 -89 -26 -94 l 33 -15 q -3 113 -3 43 q 0 153 -3 125 q 110 414 21 294 l 138 450 l 128 479 q 117 564 117 513 q 131 672 117 632 q 206 795 153 742 q 317 863 258 849 m 549 669 q 513 765 538 721 q 458 822 489 810 q 408 829 440 829 q 351 822 369 829 q 264 760 304 806 q 206 658 224 714 q 188 551 188 597 q 189 531 188 536 l 192 500 l 228 500 l 232 500 q 307 471 289 500 q 308 464 308 469 q 263 422 308 447 q 236 396 236 408 q 260 351 236 383 q 286 321 285 322 l 549 669 m 232 319 q 199 347 204 347 q 136 254 181 347 q 93 78 93 164 l 93 65 l 264 290 q 232 319 251 300 z "},"":{"ha":711,"x_min":0,"x_max":746,"o":"m 142 835 q 160 846 149 846 q 213 822 181 846 q 244 779 244 799 q 185 604 244 764 q 103 340 125 450 q 81 158 81 238 q 110 42 81 75 q 133 33 118 33 q 211 76 172 33 q 371 360 272 146 q 503 628 418 461 q 597 804 588 794 q 618 815 607 815 q 651 796 632 815 q 674 757 674 776 q 610 575 674 733 q 483 193 514 342 q 472 28 472 138 q 482 -97 472 -79 q 501 -114 492 -114 q 525 -104 508 -114 q 650 139 589 -62 q 694 288 657 164 q 724 376 721 374 q 737 374 728 381 q 746 360 746 368 q 704 209 746 351 q 650 31 663 67 q 567 -121 615 -71 q 519 -146 543 -146 q 446 -107 481 -146 q 408 28 419 -76 q 406 104 406 50 q 439 390 406 253 l 453 451 q 451 454 453 454 q 408 372 444 454 q 231 42 296 114 q 150 1 194 1 q 103 13 125 1 q 15 136 42 40 q 0 258 0 189 q 40 528 0 369 q 93 702 54 583 q 142 835 132 821 m 349 1024 q 393 1011 375 1024 q 414 986 407 1001 q 463 919 419 974 q 469 886 485 892 q 458 885 467 885 q 378 932 418 885 q 319 1010 319 1000 q 349 1024 319 1024 z "},"":{"ha":711,"x_min":0,"x_max":746,"o":"m 142 835 q 160 846 149 846 q 213 822 181 846 q 244 779 244 799 q 185 604 244 764 q 103 340 125 450 q 81 158 81 238 q 110 42 81 75 q 133 33 118 33 q 211 76 172 33 q 371 360 272 146 q 503 628 418 461 q 597 804 588 794 q 618 815 607 815 q 651 796 632 815 q 674 757 674 776 q 610 575 674 733 q 483 193 514 342 q 472 28 472 138 q 482 -97 472 -79 q 501 -114 492 -114 q 525 -104 508 -114 q 650 139 589 -62 q 694 288 657 164 q 724 376 721 374 q 737 374 728 381 q 746 360 746 368 q 704 209 746 351 q 650 31 663 67 q 567 -121 615 -71 q 519 -146 543 -146 q 446 -107 481 -146 q 408 28 419 -76 q 406 104 406 50 q 439 390 406 253 l 453 451 q 451 454 453 454 q 408 372 444 454 q 231 42 296 114 q 150 1 194 1 q 103 13 125 1 q 15 136 42 40 q 0 258 0 189 q 40 528 0 369 q 93 702 54 583 q 142 835 132 821 m 528 1042 q 536 1021 536 1038 q 517 969 536 992 q 489 953 507 958 q 414 917 483 951 q 386 906 393 906 q 379 919 379 906 q 442 997 379 958 q 526 1042 517 1042 l 528 1042 z "},"":{"ha":711,"x_min":0,"x_max":746,"o":"m 142 835 q 160 846 149 846 q 213 822 181 846 q 244 779 244 799 q 185 604 244 764 q 103 340 125 450 q 81 158 81 238 q 110 42 81 75 q 133 33 118 33 q 211 76 172 33 q 371 360 272 146 q 503 628 418 461 q 597 804 588 794 q 618 815 607 815 q 651 796 632 815 q 674 757 674 776 q 610 575 674 733 q 483 193 514 342 q 472 28 472 138 q 482 -97 472 -79 q 501 -114 492 -114 q 525 -104 508 -114 q 650 139 589 -62 q 694 288 657 164 q 724 376 721 374 q 737 374 728 381 q 746 360 746 368 q 704 209 746 351 q 650 31 663 67 q 567 -121 615 -71 q 519 -146 543 -146 q 446 -107 481 -146 q 408 28 419 -76 q 406 104 406 50 q 439 390 406 253 l 453 451 q 451 454 453 454 q 408 372 444 454 q 231 42 296 114 q 150 1 194 1 q 103 13 125 1 q 15 136 42 40 q 0 258 0 189 q 40 528 0 369 q 93 702 54 583 q 142 835 132 821 m 401 1038 l 431 1081 l 443 1081 q 471 1073 457 1081 q 490 1054 485 1065 q 497 999 496 1042 q 511 883 500 938 q 512 874 513 875 q 503 874 511 874 q 478 888 488 874 q 458 942 469 901 q 443 989 446 989 q 415 953 442 989 q 378 903 385 910 q 363 896 372 896 q 333 913 353 896 l 339 929 q 401 1038 347 954 z "},"":{"ha":711,"x_min":0,"x_max":746,"o":"m 142 835 q 160 846 149 846 q 213 822 181 846 q 244 779 244 799 q 185 604 244 764 q 103 340 125 450 q 81 158 81 238 q 110 42 81 75 q 133 33 118 33 q 211 76 172 33 q 371 360 272 146 q 503 628 418 461 q 597 804 588 794 q 618 815 607 815 q 651 796 632 815 q 674 757 674 776 q 610 575 674 733 q 483 193 514 342 q 472 28 472 138 q 482 -97 472 -79 q 501 -114 492 -114 q 525 -104 508 -114 q 650 139 589 -62 q 694 288 657 164 q 724 376 721 374 q 737 374 728 381 q 746 360 746 368 q 704 209 746 351 q 650 31 663 67 q 567 -121 615 -71 q 519 -146 543 -146 q 446 -107 481 -146 q 408 28 419 -76 q 406 104 406 50 q 439 390 406 253 l 453 451 q 451 454 453 454 q 408 372 444 454 q 231 42 296 114 q 150 1 194 1 q 103 13 125 1 q 15 136 42 40 q 0 258 0 189 q 40 528 0 369 q 93 702 54 583 q 142 835 132 821 m 436 957 q 458 974 447 974 q 503 953 481 974 q 526 913 526 932 q 513 890 526 899 q 490 885 503 885 q 432 917 453 885 q 426 932 426 924 q 436 957 426 942 m 325 971 q 347 988 336 988 q 392 967 369 988 q 415 926 415 946 q 401 904 415 913 q 379 899 392 899 q 321 931 342 899 q 315 946 315 938 q 325 971 315 956 z "},"":{"ha":718,"x_min":0,"x_max":749,"o":"m 406 122 q 418 169 418 156 q 417 171 418 171 q 328 124 407 171 q 210 50 249 78 q 35 -175 72 -47 q 28 -214 28 -199 q 48 -274 28 -250 q 100 -297 68 -297 q 210 -236 146 -297 q 406 122 317 -133 m 192 197 q 56 443 56 197 q 77 635 56 519 q 114 769 99 750 q 146 776 118 776 q 188 766 168 776 q 208 740 208 756 q 183 594 208 719 q 153 381 156 464 q 152 362 153 374 q 151 344 151 350 q 178 232 151 257 q 189 225 188 225 q 213 236 193 225 q 292 314 246 256 q 369 438 338 372 q 463 771 419 535 q 486 857 476 847 q 506 863 492 863 q 546 851 524 863 q 590 780 576 838 q 603 601 603 722 q 576 333 603 440 l 569 299 l 571 296 q 644 332 579 296 q 738 371 714 371 q 749 363 749 371 q 618 283 749 354 l 556 250 l 535 189 q 474 46 517 135 q 192 -293 347 -219 q 104 -311 156 -311 q 39 -300 53 -311 q 0 -219 1 -272 l 0 -211 q 103 -4 0 -110 q 371 181 183 76 l 436 217 l 453 285 q 492 608 492 443 q 489 636 492 636 q 471 596 483 636 q 394 406 428 468 q 265 225 319 272 q 192 197 236 197 m 444 1028 q 453 1007 453 1024 q 440 964 453 983 q 406 939 426 944 q 331 903 400 938 q 303 892 308 892 q 296 906 296 892 q 358 983 296 944 q 443 1028 433 1028 l 444 1028 z "},"":{"ha":7951,"x_min":6,"x_max":7926,"o":"m 7219 401 q 7154 365 7181 389 q 7128 326 7128 342 q 7144 311 7128 311 q 7194 346 7168 311 q 7219 401 7219 381 m 6572 301 q 6622 345 6593 301 q 6651 422 6651 389 l 6651 428 l 6649 450 l 6626 419 q 6585 354 6607 393 q 6564 306 6564 315 q 6572 301 6564 301 m 6256 439 q 6263 488 6263 453 q 6256 536 6263 522 q 6249 547 6251 547 q 6243 538 6247 547 q 6239 500 6239 522 q 6243 450 6239 478 q 6250 431 6247 431 q 6256 439 6251 431 m 5779 496 q 5761 510 5768 510 q 5736 492 5754 510 q 5721 442 5721 476 q 5729 404 5721 421 q 5759 377 5736 390 q 5797 364 5782 364 q 5811 393 5811 364 q 5779 496 5811 460 m 5510 663 q 5567 807 5550 742 q 5583 956 5583 872 q 5582 976 5583 976 q 5469 774 5558 976 q 5353 451 5381 571 l 5347 426 l 5368 447 q 5436 536 5392 468 q 5510 663 5481 604 m 4326 432 q 4422 549 4372 464 q 4472 688 4472 635 q 4432 731 4472 731 q 4415 726 4424 731 q 4399 716 4407 722 q 4384 701 4392 710 q 4370 682 4376 692 q 4358 662 4364 672 q 4347 641 4351 651 q 4338 622 4342 631 q 4331 606 4333 613 q 4325 594 4328 600 l 4324 590 q 4317 583 4321 583 q 4308 590 4313 583 q 4290 614 4308 592 q 4244 660 4271 636 q 4203 688 4218 685 l 4201 688 q 4185 678 4194 688 q 4171 649 4175 668 q 4169 631 4169 643 q 4215 522 4169 578 q 4326 432 4260 467 m 2397 496 q 2379 510 2386 510 q 2354 492 2372 510 q 2339 442 2339 476 q 2347 404 2339 421 q 2377 377 2354 390 q 2415 364 2400 364 q 2429 393 2429 364 q 2397 496 2429 460 m 2057 849 q 2050 894 2057 894 q 1976 825 2029 894 q 1883 676 1922 756 q 1819 513 1854 617 q 1785 381 1785 410 q 1788 374 1785 374 q 1831 400 1792 374 q 1987 600 1917 461 q 2057 849 2057 739 m 1896 8 q 1911 -22 1896 -22 q 1939 1 1922 -22 q 1967 57 1956 24 q 1978 103 1978 90 l 1978 106 q 1946 89 1976 106 q 1910 52 1924 75 q 1896 8 1896 29 m 1340 215 q 1354 176 1340 176 q 1439 297 1367 176 q 1479 381 1479 365 q 1474 403 1479 390 q 1447 433 1464 433 q 1417 414 1436 433 q 1364 320 1388 383 q 1340 215 1340 257 m 6243 590 q 6303 485 6303 590 q 6289 368 6303 438 l 6318 356 q 6368 349 6333 349 q 6474 371 6425 349 l 6501 382 q 6560 469 6524 433 q 6621 511 6600 511 q 6647 504 6629 511 q 6701 429 6701 483 q 6657 322 6701 382 q 6572 276 6624 276 q 6551 271 6556 276 q 6542 239 6546 265 q 6539 197 6539 214 q 6557 97 6539 128 q 6582 82 6567 82 q 6638 108 6601 82 q 6680 142 6664 128 q 6723 191 6696 156 q 6774 272 6750 226 q 6823 360 6800 325 q 6881 433 6846 394 q 6962 492 6915 472 q 7064 513 7008 513 q 7164 493 7118 513 q 7229 438 7210 474 q 7258 440 7249 440 q 7286 438 7267 440 q 7496 382 7336 431 q 7738 333 7656 333 q 7901 390 7838 333 q 7915 396 7907 396 q 7926 386 7926 396 q 7919 375 7926 382 q 7722 306 7843 306 q 7475 353 7633 306 q 7281 404 7317 400 q 7271 405 7278 404 q 7260 406 7264 406 q 7249 405 7256 406 q 7240 404 7243 404 l 7240 399 q 7189 307 7240 344 q 7135 286 7160 286 q 7106 297 7118 286 q 7093 328 7093 308 q 7128 389 7093 358 q 7206 433 7163 419 q 7072 481 7163 481 q 7039 479 7050 481 q 6806 281 6890 456 q 6736 167 6778 219 q 6656 90 6699 118 q 6579 61 6614 61 q 6557 65 6567 61 q 6475 233 6475 97 q 6476 249 6475 239 q 6476 263 6476 258 q 6488 338 6478 300 q 6375 322 6438 322 q 6303 332 6331 322 l 6275 342 l 6257 276 q 6201 138 6243 222 q 6158 66 6176 86 q 6118 46 6140 46 q 6089 53 6107 46 q 5979 346 5994 82 q 5914 335 5947 339 l 5863 329 l 5844 250 q 5780 100 5822 154 q 5685 46 5738 46 q 5604 81 5636 46 q 5564 178 5572 117 q 5389 -42 5475 -42 q 5285 56 5325 -42 q 5244 310 5244 154 l 5244 333 q 4899 272 5083 272 q 4331 397 4628 272 q 4163 361 4257 361 q 3888 415 4043 361 q 3629 474 3731 474 q 3539 458 3579 474 q 3473 421 3499 443 q 3424 358 3447 399 q 3387 283 3400 317 q 3354 190 3374 249 q 3182 -81 3265 -81 q 3051 203 3061 -81 q 2956 0 3000 39 q 2907 -21 2931 -21 q 2839 26 2869 -21 q 2824 66 2826 46 q 2821 153 2821 86 l 2821 251 l 2794 190 q 2747 110 2768 129 q 2703 92 2728 92 q 2628 149 2656 92 q 2622 158 2626 150 q 2617 169 2618 167 q 2613 178 2617 171 q 2610 190 2610 186 q 2607 202 2610 193 q 2604 219 2604 211 q 2603 238 2604 226 q 2601 263 2601 249 q 2601 293 2601 276 q 2603 346 2601 331 q 2532 335 2568 339 l 2481 329 l 2463 250 q 2398 100 2440 154 q 2303 46 2356 46 q 2213 92 2246 46 q 2179 217 2179 139 l 2179 236 q 2114 169 2144 192 q 2065 110 2075 142 q 2013 4 2046 49 q 1947 -46 1979 -40 q 1926 -49 1931 -49 q 1881 -32 1897 -49 q 1865 11 1865 -15 q 1889 76 1865 43 q 1956 125 1913 110 q 1992 151 1985 136 q 2000 211 2000 167 q 1991 280 2000 251 q 1969 308 1982 308 q 1918 267 1954 308 q 1861 183 1882 225 q 1807 -25 1815 90 q 1795 -108 1803 -85 q 1771 -131 1788 -131 q 1715 6 1743 -131 q 1700 158 1706 56 q 1651 41 1674 75 q 1599 0 1629 7 q 1572 -3 1579 -3 q 1489 147 1489 -3 q 1510 313 1489 229 q 1522 369 1522 356 q 1521 374 1522 374 q 1458 269 1511 374 q 1398 170 1421 197 q 1353 143 1375 143 q 1286 169 1307 143 q 1265 253 1265 194 q 1266 266 1265 257 q 1267 281 1267 275 q 1290 388 1271 336 q 1067 279 1190 326 q 849 232 943 232 q 759 249 799 232 q 703 293 719 265 q 674 290 683 290 q 646 293 665 290 q 436 349 596 300 q 194 397 276 397 q 31 340 94 397 q 17 335 25 335 q 6 344 6 335 q 13 356 6 349 q 210 425 89 425 q 457 378 299 425 q 651 326 615 331 q 663 326 656 326 q 672 325 669 325 q 683 326 676 325 q 692 326 689 326 l 692 332 q 743 424 692 386 q 797 444 772 444 q 826 433 814 444 q 839 403 839 422 q 804 342 839 372 q 726 297 769 311 q 831 264 760 264 q 1095 330 936 264 q 1331 456 1254 396 q 1415 488 1363 488 q 1499 456 1460 488 q 1528 436 1522 436 q 1554 468 1535 436 q 1592 500 1576 500 q 1621 471 1621 500 q 1594 349 1621 442 q 1558 210 1576 285 q 1550 122 1550 168 q 1576 21 1550 21 q 1699 269 1626 21 q 1711 422 1701 361 q 1824 741 1739 588 q 1996 932 1910 894 q 2024 939 2014 939 q 2075 913 2047 939 q 2103 835 2103 886 q 2094 764 2103 806 q 2024 586 2081 693 q 1915 424 1967 479 q 1781 317 1831 333 q 1763 233 1769 313 q 1756 111 1756 153 q 1763 53 1756 57 l 1764 53 q 1781 96 1771 53 q 1837 238 1794 164 q 1919 336 1879 311 q 1958 346 1935 346 q 2021 324 1993 346 q 2056 278 2039 310 q 2074 229 2074 247 q 2089 197 2074 197 q 2171 301 2110 197 q 2181 319 2175 308 q 2192 335 2188 329 q 2200 347 2196 342 q 2240 378 2211 375 q 2245 378 2242 378 q 2250 379 2249 379 q 2301 367 2276 379 q 2325 338 2325 356 q 2306 275 2325 322 q 2275 139 2275 203 q 2281 100 2275 113 l 2290 76 l 2315 92 q 2384 174 2353 114 q 2425 303 2415 235 l 2429 335 l 2381 349 q 2282 454 2282 378 q 2300 515 2282 489 q 2349 540 2318 540 q 2381 533 2353 540 q 2448 479 2419 524 q 2476 386 2476 435 q 2485 360 2476 365 l 2486 358 q 2490 358 2489 358 q 2550 369 2504 358 q 2606 381 2596 379 q 2624 454 2611 426 q 2636 478 2631 472 q 2653 483 2642 483 q 2715 469 2686 483 q 2743 436 2743 456 q 2718 346 2743 424 q 2690 179 2690 263 q 2697 129 2690 147 q 2704 118 2701 118 q 2719 129 2708 118 q 2803 296 2750 156 q 2856 428 2831 368 q 2888 472 2875 472 q 2924 456 2910 472 q 2939 421 2939 440 q 2910 290 2939 400 q 2878 96 2878 167 q 2892 25 2878 44 q 2915 8 2903 8 l 2918 8 q 2965 82 2933 15 q 3025 236 2997 149 q 3050 321 3028 244 q 3086 603 3054 464 q 3099 672 3099 653 q 3042 685 3099 678 q 2963 693 2985 693 q 2911 682 2938 693 q 2876 671 2882 671 q 2863 688 2863 671 q 2891 721 2863 710 q 2960 732 2919 732 q 3083 721 3006 732 q 3104 718 3103 718 q 3117 724 3113 718 q 3126 747 3121 729 q 3183 839 3157 839 q 3213 823 3196 839 q 3229 794 3229 807 q 3220 751 3229 790 q 3211 706 3211 711 q 3217 693 3211 696 q 3280 681 3226 689 q 3360 674 3333 674 q 3444 700 3422 674 l 3460 718 l 3472 700 q 3483 674 3483 685 q 3463 649 3483 661 q 3379 631 3435 631 q 3281 640 3333 631 q 3199 651 3218 651 q 3175 582 3193 651 q 3118 153 3118 361 q 3154 -44 3118 -1 l 3172 -65 l 3197 -44 q 3261 59 3224 -22 q 3329 242 3299 140 q 3434 438 3368 371 q 3617 504 3500 504 q 3886 443 3731 504 q 4157 389 4031 389 q 4300 417 4240 389 q 4179 517 4228 457 q 4131 639 4131 576 q 4131 646 4131 642 q 4132 653 4132 650 q 4152 696 4135 679 q 4192 713 4169 713 l 4201 713 q 4223 704 4211 711 q 4244 690 4235 697 q 4265 670 4253 683 q 4282 651 4276 657 q 4299 629 4288 644 q 4313 613 4311 614 q 4363 722 4331 679 q 4433 765 4396 765 q 4507 692 4507 765 q 4458 539 4507 626 q 4358 418 4408 451 l 4357 417 q 4878 308 4624 308 q 5246 378 5078 308 q 5379 840 5260 603 q 5514 1025 5456 990 q 5550 1038 5533 1038 q 5600 1013 5575 1038 q 5625 926 5625 988 q 5606 803 5625 874 q 5502 569 5575 696 q 5372 400 5429 443 q 5331 344 5339 375 q 5321 203 5324 313 l 5321 182 q 5358 -4 5321 44 q 5385 -24 5374 -24 q 5433 10 5397 -24 q 5565 274 5504 81 q 5586 355 5575 335 q 5622 378 5597 375 q 5627 378 5624 378 q 5632 379 5631 379 q 5683 367 5658 379 q 5707 338 5707 356 q 5688 275 5707 322 q 5657 139 5657 203 q 5663 100 5657 113 l 5672 76 l 5697 92 q 5766 174 5735 114 q 5807 303 5797 235 l 5811 335 l 5763 349 q 5664 454 5664 378 q 5682 515 5664 489 q 5731 540 5700 540 q 5763 533 5735 540 q 5830 479 5801 524 q 5858 386 5858 435 q 5867 360 5858 365 l 5869 358 q 5872 358 5871 358 q 5931 369 5886 358 q 5978 379 5975 379 l 5978 396 l 5978 407 q 5980 449 5978 436 q 5992 473 5982 463 q 6022 483 6001 483 q 6069 471 6044 483 l 6093 458 l 6088 322 q 6086 240 6086 292 q 6108 85 6086 119 q 6117 79 6113 79 q 6138 97 6124 79 q 6188 184 6160 124 q 6229 297 6215 244 l 6244 358 l 6222 383 q 6182 494 6182 431 q 6200 559 6182 528 q 6243 590 6218 590 m 713 329 q 778 365 751 342 q 804 404 804 389 q 788 419 804 419 q 738 385 764 419 q 713 329 713 350 z "},"":{"ha":426,"x_min":-26,"x_max":460,"o":"m 182 403 q 156 433 172 433 q 125 414 144 433 q 72 320 96 383 q 49 215 49 257 q 50 196 49 201 q 63 176 54 176 q 147 297 75 176 q 188 381 188 365 q 182 403 188 390 m 263 468 q 300 500 285 500 q 318 496 308 500 q 329 471 329 492 q 303 349 329 442 q 267 210 285 285 q 258 122 258 168 q 285 21 258 21 q 425 332 340 21 q 450 379 438 379 q 460 363 460 379 q 433 243 460 339 q 369 58 394 107 q 307 0 343 8 q 281 -3 288 -3 q 215 39 238 -3 q 197 147 197 74 q 218 313 197 229 q 231 369 231 356 q 229 374 231 374 q 167 269 219 374 q 106 170 129 197 q 61 143 83 143 q -6 169 15 143 q -26 253 -26 194 q -26 266 -26 257 q -25 281 -25 275 q 1 392 -22 335 q 47 464 24 449 q 124 488 83 488 q 207 456 168 488 q 236 436 231 436 q 263 468 243 436 m 126 686 q 171 674 153 686 q 192 649 185 664 q 240 582 197 636 q 247 549 263 554 q 236 547 244 547 q 156 594 196 547 q 97 672 97 663 q 126 686 97 686 z "},"":{"ha":426,"x_min":-26,"x_max":460,"o":"m 182 403 q 156 433 172 433 q 125 414 144 433 q 72 320 96 383 q 49 215 49 257 q 50 196 49 201 q 63 176 54 176 q 147 297 75 176 q 188 381 188 365 q 182 403 188 390 m 263 468 q 300 500 285 500 q 318 496 308 500 q 329 471 329 492 q 303 349 329 442 q 267 210 285 285 q 258 122 258 168 q 285 21 258 21 q 425 332 340 21 q 450 379 438 379 q 460 363 460 379 q 433 243 460 339 q 369 58 394 107 q 307 0 343 8 q 281 -3 288 -3 q 215 39 238 -3 q 197 147 197 74 q 218 313 197 229 q 231 369 231 356 q 229 374 231 374 q 167 269 219 374 q 106 170 129 197 q 61 143 83 143 q -6 169 15 143 q -26 253 -26 194 q -26 266 -26 257 q -25 281 -25 275 q 1 392 -22 335 q 47 464 24 449 q 124 488 83 488 q 207 456 168 488 q 236 436 231 436 q 263 468 243 436 m 307 681 q 315 660 315 676 q 296 608 315 631 q 268 592 286 597 q 193 556 263 590 q 165 544 172 544 q 158 558 158 544 q 221 636 158 597 q 306 681 296 681 l 307 681 z "},"":{"ha":426,"x_min":-26,"x_max":460,"o":"m 182 403 q 156 433 172 433 q 125 414 144 433 q 72 320 96 383 q 49 215 49 257 q 50 196 49 201 q 63 176 54 176 q 147 297 75 176 q 188 381 188 365 q 182 403 188 390 m 263 468 q 300 500 285 500 q 318 496 308 500 q 329 471 329 492 q 303 349 329 442 q 267 210 285 285 q 258 122 258 168 q 285 21 258 21 q 425 332 340 21 q 450 379 438 379 q 460 363 460 379 q 433 243 460 339 q 369 58 394 107 q 307 0 343 8 q 281 -3 288 -3 q 215 39 238 -3 q 197 147 197 74 q 218 313 197 229 q 231 369 231 356 q 229 374 231 374 q 167 269 219 374 q 106 170 129 197 q 61 143 83 143 q -6 169 15 143 q -26 253 -26 194 q -26 266 -26 257 q -25 281 -25 275 q 1 392 -22 335 q 47 464 24 449 q 124 488 83 488 q 207 456 168 488 q 236 436 231 436 q 263 468 243 436 m 165 693 l 194 736 l 207 736 q 235 728 221 736 q 254 710 249 721 q 261 654 260 697 q 275 539 264 593 q 276 530 276 531 q 267 529 275 529 q 242 543 251 529 q 222 597 233 557 q 207 644 210 644 q 179 608 206 644 q 142 558 149 565 q 126 551 136 551 q 97 568 117 551 l 103 585 q 165 693 111 610 z "},"":{"ha":426,"x_min":-26,"x_max":460,"o":"m 182 403 q 156 433 172 433 q 125 414 144 433 q 72 320 96 383 q 49 215 49 257 q 50 196 49 201 q 63 176 54 176 q 147 297 75 176 q 188 381 188 365 q 182 403 188 390 m 263 468 q 300 500 285 500 q 318 496 308 500 q 329 471 329 492 q 303 349 329 442 q 267 210 285 285 q 258 122 258 168 q 285 21 258 21 q 425 332 340 21 q 450 379 438 379 q 460 363 460 379 q 433 243 460 339 q 369 58 394 107 q 307 0 343 8 q 281 -3 288 -3 q 215 39 238 -3 q 197 147 197 74 q 218 313 197 229 q 231 369 231 356 q 229 374 231 374 q 167 269 219 374 q 106 170 129 197 q 61 143 83 143 q -6 169 15 143 q -26 253 -26 194 q -26 266 -26 257 q -25 281 -25 275 q 1 392 -22 335 q 47 464 24 449 q 124 488 83 488 q 207 456 168 488 q 236 436 231 436 q 263 468 243 436 m 257 653 q 271 665 261 665 q 296 657 283 665 q 308 638 308 649 q 276 578 308 613 q 231 560 260 560 q 182 574 206 560 q 156 588 157 588 q 133 576 150 588 q 114 568 121 568 q 92 578 106 568 q 81 599 81 586 q 88 621 81 611 q 128 644 103 644 q 189 615 158 644 q 217 601 204 600 q 238 621 225 604 q 257 653 251 638 z "},"":{"ha":426,"x_min":-26,"x_max":460,"o":"m 182 403 q 156 433 172 433 q 125 414 144 433 q 72 320 96 383 q 49 215 49 257 q 50 196 49 201 q 63 176 54 176 q 147 297 75 176 q 188 381 188 365 q 182 403 188 390 m 263 468 q 300 500 285 500 q 318 496 308 500 q 329 471 329 492 q 303 349 329 442 q 267 210 285 285 q 258 122 258 168 q 285 21 258 21 q 425 332 340 21 q 450 379 438 379 q 460 363 460 379 q 433 243 460 339 q 369 58 394 107 q 307 0 343 8 q 281 -3 288 -3 q 215 39 238 -3 q 197 147 197 74 q 218 313 197 229 q 231 369 231 356 q 229 374 231 374 q 167 269 219 374 q 106 170 129 197 q 61 143 83 143 q -6 169 15 143 q -26 253 -26 194 q -26 266 -26 257 q -25 281 -25 275 q 1 392 -22 335 q 47 464 24 449 q 124 488 83 488 q 207 456 168 488 q 236 436 231 436 q 263 468 243 436 m 207 622 q 229 639 218 639 q 274 618 251 639 q 297 578 297 597 q 283 556 297 564 q 261 550 274 550 q 203 582 224 550 q 197 597 197 589 q 207 622 197 607 m 96 636 q 118 653 107 653 q 163 632 140 653 q 186 592 186 611 q 172 569 186 578 q 150 564 163 564 q 92 596 113 564 q 86 611 86 603 q 96 636 86 621 z "},"":{"ha":426,"x_min":-26,"x_max":460,"o":"m 182 403 q 156 433 172 433 q 125 414 144 433 q 72 320 96 383 q 49 215 49 257 q 50 196 49 201 q 63 176 54 176 q 147 297 75 176 q 188 381 188 365 q 182 403 188 390 m 263 468 q 300 500 285 500 q 318 496 308 500 q 329 471 329 492 q 303 349 329 442 q 267 210 285 285 q 258 122 258 168 q 285 21 258 21 q 425 332 340 21 q 450 379 438 379 q 460 363 460 379 q 433 243 460 339 q 369 58 394 107 q 307 0 343 8 q 281 -3 288 -3 q 215 39 238 -3 q 197 147 197 74 q 218 313 197 229 q 231 369 231 356 q 229 374 231 374 q 167 269 219 374 q 106 170 129 197 q 61 143 83 143 q -6 169 15 143 q -26 253 -26 194 q -26 266 -26 257 q -25 281 -25 275 q 1 392 -22 335 q 47 464 24 449 q 124 488 83 488 q 207 456 168 488 q 236 436 231 436 q 263 468 243 436 m 246 617 q 238 642 246 642 q 218 623 229 642 q 201 585 207 604 q 204 557 192 557 q 232 576 218 557 q 246 617 246 596 m 207 674 q 217 676 211 676 q 247 656 229 676 q 269 610 269 629 q 261 581 269 597 q 242 555 256 568 q 221 539 229 542 q 210 538 217 538 q 178 551 192 538 q 164 586 164 565 q 177 637 164 611 q 207 674 190 663 z "},"":{"ha":538,"x_min":-26,"x_max":567,"o":"m 263 468 q 300 500 285 500 q 317 496 306 500 q 350 511 336 511 q 376 504 358 511 q 431 429 431 483 q 386 322 431 382 q 301 276 353 276 q 282 272 289 276 q 269 224 275 246 q 269 210 269 219 q 268 197 268 201 q 286 97 268 128 q 311 82 296 82 q 367 108 331 82 q 507 307 428 153 q 554 374 542 374 q 567 363 567 374 q 530 274 567 346 q 465 167 493 203 q 385 90 428 118 q 308 61 343 61 q 286 65 297 61 q 204 233 204 97 q 205 249 204 239 q 206 263 206 258 q 225 372 210 329 q 167 269 215 363 q 106 170 129 197 q 61 143 83 143 q -6 169 15 143 q -26 253 -26 194 q -26 266 -26 257 q -25 281 -25 275 q 1 392 -22 335 q 47 464 24 449 q 124 488 83 488 q 207 456 168 488 q 236 436 231 436 q 263 468 243 436 m 49 215 q 63 176 49 176 q 147 297 75 176 q 188 381 188 365 q 182 403 188 390 q 156 433 172 433 q 125 414 144 433 q 72 320 96 383 q 49 215 49 257 m 301 301 q 351 346 322 301 q 381 422 381 390 l 381 428 l 378 450 l 356 419 q 315 354 336 393 q 293 306 293 315 q 301 301 293 301 z "},"":{"ha":357,"x_min":-19,"x_max":394,"o":"m 38 10 q 49 25 38 25 q 67 3 64 25 q 69 -6 68 -4 q 81 -7 71 -7 q 117 9 96 -6 q 138 33 138 24 q 124 44 138 40 q 100 75 100 51 q 108 104 100 88 q 14 165 47 115 q -19 286 -19 214 q 24 456 -19 369 q 72 524 42 493 q 121 558 101 554 q 142 561 135 561 q 206 538 179 561 q 233 483 233 515 q 217 426 233 457 q 179 394 200 394 q 167 411 167 394 q 174 435 167 421 q 183 475 183 454 l 183 481 l 181 503 l 154 476 q 87 360 114 436 q 60 222 60 285 q 69 167 60 192 q 83 144 76 149 q 113 140 90 140 q 240 197 172 140 q 351 342 308 254 q 378 379 371 379 q 394 356 394 379 q 371 292 394 338 q 242 142 324 197 q 156 104 193 110 q 145 88 156 103 q 135 69 135 72 q 150 51 135 67 q 165 18 165 36 q 142 -20 165 -4 q 89 -36 119 -36 q 52 -22 67 -36 q 38 10 38 -8 z "},"":{"ha":314,"x_min":-19,"x_max":343,"o":"m 113 682 q 178 644 161 682 q 226 578 183 632 q 242 553 242 558 q 233 544 242 547 q 222 543 231 543 q 142 590 182 543 q 83 668 83 658 q 113 682 83 682 m 65 469 q 126 511 106 511 q 153 504 135 511 q 207 429 207 483 q 163 322 207 382 q 78 276 129 276 q 56 271 61 276 q 47 239 51 265 q 44 197 44 214 q 63 97 44 128 q 88 82 72 82 q 143 108 107 82 q 283 307 204 153 q 331 374 318 374 q 343 363 343 374 q 306 274 343 346 q 242 167 269 203 q 162 90 204 118 q 85 61 119 61 q 63 65 72 61 q -19 233 -19 97 q -19 249 -19 239 q -18 263 -18 258 q 65 469 -10 392 m 78 301 q 128 346 99 301 q 157 422 157 390 l 157 428 l 154 450 l 132 419 q 91 354 113 393 q 69 306 69 315 q 78 301 69 301 z "},"":{"ha":314,"x_min":-19,"x_max":343,"o":"m 78 301 q 128 346 99 301 q 157 422 157 390 l 157 428 l 154 450 l 132 419 q 91 354 113 393 q 69 306 69 315 q 78 301 69 301 m 65 469 q 126 511 106 511 q 153 504 135 511 q 207 429 207 483 q 163 322 207 382 q 78 276 129 276 q 56 271 61 276 q 47 239 51 265 q 44 197 44 214 q 63 97 44 128 q 88 82 72 82 q 143 108 107 82 q 283 307 204 153 q 331 374 318 374 q 343 363 343 374 q 306 274 343 346 q 242 167 269 203 q 162 90 204 118 q 85 61 119 61 q 63 65 72 61 q -19 233 -19 97 q -19 249 -19 239 q -18 263 -18 258 q 65 469 -10 392 m 251 688 q 260 667 260 683 q 247 624 260 643 q 213 599 233 604 q 138 563 207 597 q 110 551 115 551 q 103 565 103 551 q 165 643 103 604 q 250 688 240 688 l 251 688 z "},"":{"ha":314,"x_min":-19,"x_max":343,"o":"m 121 689 l 150 732 l 163 732 q 190 724 176 732 q 210 706 204 717 q 217 650 215 693 q 231 536 219 590 q 232 529 232 533 q 222 525 232 525 q 198 539 207 525 q 178 593 189 553 q 163 640 165 640 q 135 604 161 640 q 98 554 104 561 q 82 547 92 547 q 53 564 72 547 l 58 581 q 121 689 67 606 m 65 469 q 126 511 106 511 q 153 504 135 511 q 207 429 207 483 q 163 322 207 382 q 78 276 129 276 q 56 271 61 276 q 47 239 51 265 q 44 197 44 214 q 63 97 44 128 q 88 82 72 82 q 143 108 107 82 q 283 307 204 153 q 331 374 318 374 q 343 363 343 374 q 306 274 343 346 q 242 167 269 203 q 162 90 204 118 q 85 61 119 61 q 63 65 72 61 q -19 233 -19 97 q -19 249 -19 239 q -18 263 -18 258 q 65 469 -10 392 m 78 301 q 128 346 99 301 q 157 422 157 390 l 157 428 l 154 450 l 132 419 q 91 354 113 393 q 69 306 69 315 q 78 301 69 301 z "},"":{"ha":314,"x_min":-19,"x_max":343,"o":"m 144 592 q 134 572 144 579 q 108 564 124 564 q 50 596 71 564 q 44 611 44 603 q 54 636 44 621 q 76 653 65 653 q 122 632 99 653 q 144 592 144 611 m 256 578 q 245 558 256 565 q 219 550 235 550 q 161 582 182 550 q 156 597 156 589 q 165 622 156 607 q 188 639 176 639 q 233 618 210 639 q 256 578 256 597 m 65 469 q 126 511 106 511 q 153 504 135 511 q 207 429 207 483 q 163 322 207 382 q 78 276 129 276 q 56 271 61 276 q 47 239 51 265 q 44 197 44 214 q 63 97 44 128 q 88 82 72 82 q 143 108 107 82 q 283 307 204 153 q 331 374 318 374 q 343 363 343 374 q 306 274 343 346 q 242 167 269 203 q 162 90 204 118 q 85 61 119 61 q 63 65 72 61 q -19 233 -19 97 q -19 249 -19 239 q -18 263 -18 258 q 65 469 -10 392 m 78 301 q 128 346 99 301 q 157 422 157 390 l 157 428 l 154 450 l 132 419 q 91 354 113 393 q 69 306 69 315 q 78 301 69 301 z "},"":{"ha":263,"x_min":-10,"x_max":288,"o":"m 25 551 q 44 561 29 561 q 89 544 68 561 q 106 522 103 533 q 110 481 110 511 q 82 353 110 471 q 54 183 54 235 q 68 126 54 142 q 89 114 78 114 q 204 265 122 114 q 281 374 264 374 q 286 371 283 374 q 288 368 288 371 q 245 267 288 349 q 172 147 203 185 q 81 96 131 96 q 19 132 42 96 q -10 289 -10 179 q -8 329 -10 315 q 8 457 -4 379 q 25 551 19 535 m 29 738 q 74 725 56 738 q 94 700 88 715 q 143 633 100 688 q 150 600 165 606 q 139 599 147 599 q 58 646 99 599 q 0 724 0 714 q 29 738 0 738 z "},"":{"ha":263,"x_min":-10,"x_max":288,"o":"m 25 551 q 44 561 29 561 q 89 544 68 561 q 106 522 103 533 q 110 481 110 511 q 82 353 110 471 q 54 183 54 235 q 68 126 54 142 q 89 114 78 114 q 204 265 122 114 q 281 374 264 374 q 286 371 283 374 q 288 368 288 371 q 245 267 288 349 q 172 147 203 185 q 81 96 131 96 q 19 132 42 96 q -10 289 -10 179 q -8 329 -10 315 q 8 457 -4 379 q 25 551 19 535 m 196 744 q 204 724 204 740 q 185 672 204 694 q 157 656 175 661 q 82 619 151 654 q 54 608 61 608 q 47 622 47 608 q 110 700 47 661 q 194 744 185 744 l 196 744 z "},"":{"ha":263,"x_min":-28,"x_max":288,"o":"m 25 551 q 44 561 29 561 q 89 544 68 561 q 106 522 103 533 q 110 481 110 511 q 82 353 110 471 q 54 183 54 235 q 68 126 54 142 q 89 114 78 114 q 204 265 122 114 q 281 374 264 374 q 286 371 283 374 q 288 368 288 371 q 245 267 288 349 q 172 147 203 185 q 81 96 131 96 q 19 132 42 96 q -10 289 -10 179 q -8 329 -10 315 q 8 457 -4 379 q 25 551 19 535 m 40 739 l 69 782 l 82 782 q 110 774 96 782 q 129 756 124 767 q 136 700 135 743 q 150 586 139 640 q 151 576 151 578 q 142 575 150 575 q 117 589 126 575 q 97 643 108 603 q 82 690 85 690 q 54 654 81 690 q 17 604 24 611 q 1 597 11 597 q -28 614 -8 597 l -22 631 q 40 739 -14 656 z "},"":{"ha":263,"x_min":-25,"x_max":288,"o":"m 25 551 q 44 561 29 561 q 89 544 68 561 q 106 522 103 533 q 110 481 110 511 q 82 353 110 471 q 54 183 54 235 q 68 126 54 142 q 89 114 78 114 q 204 265 122 114 q 281 374 264 374 q 286 371 283 374 q 288 368 288 371 q 245 267 288 349 q 172 147 203 185 q 81 96 131 96 q 19 132 42 96 q -10 289 -10 179 q -8 329 -10 315 q 8 457 -4 379 q 25 551 19 535 m 96 675 q 118 692 107 692 q 163 671 140 692 q 186 631 186 650 q 172 608 186 617 q 150 603 163 603 q 92 635 113 603 q 86 650 86 642 q 96 675 86 660 m -15 689 q 7 706 -4 706 q 52 685 29 706 q 75 644 75 664 q 61 622 75 631 q 39 617 51 617 q -19 649 1 617 q -25 664 -25 656 q -15 689 -25 674 z "},"":{"ha":532,"x_min":-12,"x_max":569,"o":"m 443 578 q 447 547 447 564 q 394 346 447 492 q 303 15 303 100 q 329 -31 303 -31 q 410 65 357 -31 q 506 288 463 160 q 547 378 536 378 q 554 376 551 378 q 569 360 569 369 q 517 220 569 347 q 444 56 464 93 q 392 -22 421 13 q 342 -56 363 -56 q 253 93 253 -56 q 333 489 253 243 q 360 586 360 572 q 350 589 360 589 q 247 476 306 589 q 147 251 188 363 q 101 137 117 167 q 69 107 85 107 q 35 125 54 107 q -12 285 -12 165 q 33 529 -12 425 q 65 572 53 572 q 90 561 72 572 q 122 508 122 540 q 99 410 122 483 q 58 181 58 283 q 61 143 58 143 q 69 151 64 143 q 119 265 81 165 q 156 351 132 297 q 182 413 179 404 q 271 569 210 486 q 381 651 332 651 q 443 578 424 651 m 382 792 q 396 804 386 804 q 421 796 408 804 q 433 776 433 788 q 401 717 433 751 q 356 699 385 699 q 307 713 331 699 q 281 726 282 726 q 258 715 275 726 q 239 707 246 707 q 217 717 231 707 q 206 738 206 725 q 213 760 206 750 q 253 783 228 783 q 314 754 283 783 q 342 740 329 739 q 363 760 350 743 q 382 792 376 776 z "},"":{"ha":403,"x_min":-28,"x_max":444,"o":"m 190 496 q 172 510 179 510 q 147 492 165 510 q 132 442 132 476 q 140 404 132 421 q 170 377 147 390 q 208 364 193 364 q 222 393 222 364 q 190 496 222 460 m 118 535 q 142 540 133 540 q 174 533 146 540 q 241 479 213 524 q 269 386 269 435 q 278 360 269 365 l 281 358 q 283 358 282 358 q 336 368 297 358 q 421 382 390 382 q 444 371 444 382 q 325 335 444 349 l 274 329 l 256 250 q 191 100 233 154 q 96 46 149 46 q 6 92 39 46 q -28 217 -28 139 q -24 272 -28 243 q -3 355 -14 335 q 33 378 8 375 q 38 378 35 378 q 43 379 42 379 q 88 370 67 379 q 115 347 108 361 q 118 338 118 342 q 99 275 118 322 q 68 139 68 203 q 74 100 68 113 l 83 76 l 108 92 q 177 174 146 114 q 218 303 208 235 l 222 335 l 174 349 q 75 454 75 378 q 88 505 75 482 q 118 535 100 528 m 126 706 q 171 693 153 706 q 192 668 185 683 q 240 601 197 656 q 247 568 263 574 q 236 567 244 567 q 156 614 196 567 q 97 692 97 682 q 126 706 97 706 z "},"":{"ha":403,"x_min":-28,"x_max":444,"o":"m 190 496 q 172 510 179 510 q 147 492 165 510 q 132 442 132 476 q 140 404 132 421 q 170 377 147 390 q 208 364 193 364 q 222 393 222 364 q 190 496 222 460 m 118 535 q 142 540 133 540 q 174 533 146 540 q 241 479 213 524 q 269 386 269 435 q 278 360 269 365 l 281 358 q 283 358 282 358 q 336 368 297 358 q 421 382 390 382 q 444 371 444 382 q 325 335 444 349 l 274 329 l 256 250 q 191 100 233 154 q 96 46 149 46 q 6 92 39 46 q -28 217 -28 139 q -24 272 -28 243 q -3 355 -14 335 q 33 378 8 375 q 38 378 35 378 q 43 379 42 379 q 88 370 67 379 q 115 347 108 361 q 118 338 118 342 q 99 275 118 322 q 68 139 68 203 q 74 100 68 113 l 83 76 l 108 92 q 177 174 146 114 q 218 303 208 235 l 222 335 l 174 349 q 75 454 75 378 q 88 505 75 482 q 118 535 100 528 m 293 719 q 301 699 301 715 q 282 647 301 669 q 254 631 272 636 q 179 594 249 629 q 151 583 158 583 q 144 597 144 583 q 207 675 144 636 q 292 719 282 719 l 293 719 z "},"":{"ha":403,"x_min":-28,"x_max":444,"o":"m 190 496 q 172 510 179 510 q 147 492 165 510 q 132 442 132 476 q 140 404 132 421 q 170 377 147 390 q 208 364 193 364 q 222 393 222 364 q 190 496 222 460 m 118 535 q 142 540 133 540 q 174 533 146 540 q 241 479 213 524 q 269 386 269 435 q 278 360 269 365 l 281 358 q 283 358 282 358 q 336 368 297 358 q 421 382 390 382 q 444 371 444 382 q 325 335 444 349 l 274 329 l 256 250 q 191 100 233 154 q 96 46 149 46 q 6 92 39 46 q -28 217 -28 139 q -24 272 -28 243 q -3 355 -14 335 q 33 378 8 375 q 38 378 35 378 q 43 379 42 379 q 88 370 67 379 q 115 347 108 361 q 118 338 118 342 q 99 275 118 322 q 68 139 68 203 q 74 100 68 113 l 83 76 l 108 92 q 177 174 146 114 q 218 303 208 235 l 222 335 l 174 349 q 75 454 75 378 q 88 505 75 482 q 118 535 100 528 m 151 714 l 181 757 l 193 757 q 221 749 207 757 q 240 731 235 742 q 247 675 246 718 q 261 561 250 615 q 262 551 263 553 q 253 550 261 550 q 228 564 238 550 q 208 618 219 578 q 193 665 196 665 q 165 629 192 665 q 128 579 135 586 q 113 572 122 572 q 83 589 103 572 l 89 606 q 151 714 97 631 z "},"":{"ha":403,"x_min":-28,"x_max":444,"o":"m 190 496 q 172 510 179 510 q 147 492 165 510 q 132 442 132 476 q 140 404 132 421 q 170 377 147 390 q 208 364 193 364 q 222 393 222 364 q 190 496 222 460 m 118 535 q 142 540 133 540 q 174 533 146 540 q 241 479 213 524 q 269 386 269 435 q 278 360 269 365 l 281 358 q 283 358 282 358 q 336 368 297 358 q 421 382 390 382 q 444 371 444 382 q 325 335 444 349 l 274 329 l 256 250 q 191 100 233 154 q 96 46 149 46 q 6 92 39 46 q -28 217 -28 139 q -24 272 -28 243 q -3 355 -14 335 q 33 378 8 375 q 38 378 35 378 q 43 379 42 379 q 88 370 67 379 q 115 347 108 361 q 118 338 118 342 q 99 275 118 322 q 68 139 68 203 q 74 100 68 113 l 83 76 l 108 92 q 177 174 146 114 q 218 303 208 235 l 222 335 l 174 349 q 75 454 75 378 q 88 505 75 482 q 118 535 100 528 m 253 668 q 267 681 257 681 q 292 672 279 681 q 304 653 304 664 q 272 593 304 628 q 226 575 256 575 q 178 589 201 575 q 151 603 153 603 q 129 592 146 603 q 110 583 117 583 q 88 593 101 583 q 76 614 76 601 q 83 636 76 625 q 124 660 99 660 q 185 631 153 660 q 213 617 200 615 q 234 636 221 619 q 253 668 247 653 z "},"":{"ha":403,"x_min":-28,"x_max":444,"o":"m 190 496 q 172 510 179 510 q 147 492 165 510 q 132 442 132 476 q 140 404 132 421 q 170 377 147 390 q 208 364 193 364 q 222 393 222 364 q 190 496 222 460 m 118 535 q 142 540 133 540 q 174 533 146 540 q 241 479 213 524 q 269 386 269 435 q 278 360 269 365 l 281 358 q 283 358 282 358 q 336 368 297 358 q 421 382 390 382 q 444 371 444 382 q 325 335 444 349 l 274 329 l 256 250 q 191 100 233 154 q 96 46 149 46 q 6 92 39 46 q -28 217 -28 139 q -24 272 -28 243 q -3 355 -14 335 q 33 378 8 375 q 38 378 35 378 q 43 379 42 379 q 88 370 67 379 q 115 347 108 361 q 118 338 118 342 q 99 275 118 322 q 68 139 68 203 q 74 100 68 113 l 83 76 l 108 92 q 177 174 146 114 q 218 303 208 235 l 222 335 l 174 349 q 75 454 75 378 q 88 505 75 482 q 118 535 100 528 m 178 649 q 200 665 189 665 q 245 644 222 665 q 268 604 268 624 q 254 582 268 590 q 232 576 244 576 q 174 608 194 576 q 168 624 168 615 q 178 649 168 633 m 67 663 q 89 679 78 679 q 134 658 111 679 q 157 618 157 638 q 143 596 157 604 q 121 590 133 590 q 63 622 83 590 q 57 638 57 629 q 67 663 57 647 z "},"":{"ha":413,"x_min":50,"x_max":358,"o":"m 194 557 q 249 558 219 557 q 293 559 278 558 q 310 560 308 560 l 313 560 q 342 547 326 560 q 358 524 358 535 q 347 512 358 515 q 294 504 335 508 q 144 488 171 490 q 124 486 136 486 q 75 504 94 486 q 56 542 50 526 q 194 557 61 554 m 165 699 q 192 719 178 719 q 249 692 218 719 q 279 642 279 665 q 278 639 279 640 l 278 636 q 260 617 275 628 q 232 608 247 608 q 160 649 186 608 q 153 668 153 660 q 165 699 153 681 m 142 419 q 168 440 154 440 q 225 413 194 440 q 256 363 256 386 q 256 358 256 361 l 254 357 q 236 338 251 349 q 208 329 224 329 q 136 369 163 329 q 129 389 129 381 q 142 419 129 400 z "},"":{"ha":403,"x_min":-69,"x_max":444,"o":"m 71 172 q 68 139 68 150 q 74 100 68 113 l 83 76 l 108 92 q 177 174 146 114 q 218 303 208 235 l 222 335 l 215 338 l 71 172 m 118 535 q 142 540 133 540 q 174 533 146 540 q 257 449 229 518 l 304 501 q 318 508 310 508 q 333 502 326 508 q 340 488 340 496 q 335 474 340 479 l 269 399 l 269 386 q 278 360 269 365 l 281 358 q 283 358 282 358 q 336 368 297 358 q 421 382 390 382 q 444 371 444 382 q 325 335 444 349 l 274 329 l 256 250 q 191 100 233 154 q 96 46 149 46 q 4 96 36 46 l -33 54 q -47 47 -39 47 q -62 53 -56 47 q -69 68 -69 60 q -64 82 -69 76 l -17 136 q -28 217 -28 168 q -24 272 -28 243 q -3 355 -14 335 q 33 378 8 375 q 38 378 35 378 q 43 379 42 379 q 88 370 67 379 q 115 347 108 361 q 118 338 118 342 q 99 275 118 322 q 93 260 94 268 l 171 350 q 100 391 125 364 q 75 454 75 418 q 88 505 75 482 q 118 535 100 528 m 190 496 q 172 510 179 510 q 147 492 165 510 q 132 442 132 476 q 140 404 132 421 q 188 368 151 383 l 221 407 q 190 496 215 467 z "},"":{"ha":440,"x_min":-8,"x_max":483,"o":"m 14 454 q 26 478 21 472 q 43 483 32 483 q 65 481 46 483 q 114 465 94 478 q 133 436 133 451 q 108 346 133 424 q 81 179 81 263 q 88 129 81 147 q 95 118 93 118 q 110 129 97 118 q 193 296 140 156 q 246 428 221 368 q 278 472 265 472 q 288 471 283 472 q 329 421 329 461 q 300 290 329 400 q 268 96 268 167 q 282 25 268 44 q 308 8 296 4 q 356 82 324 15 q 415 236 388 149 q 451 363 451 353 q 460 381 451 375 q 479 379 469 386 q 483 368 483 378 q 456 250 483 344 q 346 0 394 42 q 297 -21 321 -21 q 229 26 260 -21 q 214 66 217 46 q 211 153 211 86 l 211 251 l 185 190 q 138 110 158 129 q 93 92 118 92 q 18 149 47 92 q 13 158 17 150 q 8 169 8 167 q 3 178 7 171 q 0 190 0 186 q -3 202 0 193 q -6 219 -6 211 q -7 238 -6 226 q -8 263 -8 249 q -8 293 -8 276 q 14 454 -8 404 m 126 672 q 171 660 153 672 q 192 635 185 650 q 240 568 197 622 q 247 535 263 540 q 236 533 244 533 q 156 581 196 533 q 97 658 97 649 q 126 672 97 672 z "},"":{"ha":440,"x_min":-8,"x_max":483,"o":"m 14 454 q 26 478 21 472 q 43 483 32 483 q 65 481 46 483 q 114 465 94 478 q 133 436 133 451 q 108 346 133 424 q 81 179 81 263 q 88 129 81 147 q 95 118 93 118 q 110 129 97 118 q 193 296 140 156 q 246 428 221 368 q 278 472 265 472 q 288 471 283 472 q 329 421 329 461 q 300 290 329 400 q 268 96 268 167 q 282 25 268 44 q 308 8 296 4 q 356 82 324 15 q 415 236 388 149 q 451 363 451 353 q 460 381 451 375 q 479 379 469 386 q 483 368 483 378 q 456 250 483 344 q 346 0 394 42 q 297 -21 321 -21 q 229 26 260 -21 q 214 66 217 46 q 211 153 211 86 l 211 251 l 185 190 q 138 110 158 129 q 93 92 118 92 q 18 149 47 92 q 13 158 17 150 q 8 169 8 167 q 3 178 7 171 q 0 190 0 186 q -3 202 0 193 q -6 219 -6 211 q -7 238 -6 226 q -8 263 -8 249 q -8 293 -8 276 q 14 454 -8 404 m 321 675 q 329 654 329 671 q 310 603 329 625 q 282 586 300 592 q 207 550 276 585 q 179 539 186 539 q 172 553 172 539 q 235 631 172 592 q 319 675 310 675 l 321 675 z "},"":{"ha":440,"x_min":-8,"x_max":483,"o":"m 14 454 q 26 478 21 472 q 43 483 32 483 q 65 481 46 483 q 114 465 94 478 q 133 436 133 451 q 108 346 133 424 q 81 179 81 263 q 88 129 81 147 q 95 118 93 118 q 110 129 97 118 q 193 296 140 156 q 246 428 221 368 q 278 472 265 472 q 288 471 283 472 q 329 421 329 461 q 300 290 329 400 q 268 96 268 167 q 282 25 268 44 q 308 8 296 4 q 356 82 324 15 q 415 236 388 149 q 451 363 451 353 q 460 381 451 375 q 479 379 469 386 q 483 368 483 378 q 456 250 483 344 q 346 0 394 42 q 297 -21 321 -21 q 229 26 260 -21 q 214 66 217 46 q 211 153 211 86 l 211 251 l 185 190 q 138 110 158 129 q 93 92 118 92 q 18 149 47 92 q 13 158 17 150 q 8 169 8 167 q 3 178 7 171 q 0 190 0 186 q -3 202 0 193 q -6 219 -6 211 q -7 238 -6 226 q -8 263 -8 249 q -8 293 -8 276 q 14 454 -8 404 m 151 672 l 181 715 l 193 715 q 221 708 207 715 q 240 689 235 700 q 247 633 246 676 q 261 519 250 574 q 262 510 263 511 q 253 508 261 508 q 228 522 238 508 q 208 576 219 536 q 193 624 196 624 q 165 588 192 624 q 128 538 135 544 q 113 531 122 531 q 83 547 103 531 l 89 564 q 151 672 97 589 z "},"":{"ha":440,"x_min":-8,"x_max":483,"o":"m 14 454 q 26 478 21 472 q 43 483 32 483 q 65 481 46 483 q 114 465 94 478 q 133 436 133 451 q 108 346 133 424 q 81 179 81 263 q 88 129 81 147 q 95 118 93 118 q 110 129 97 118 q 193 296 140 156 q 246 428 221 368 q 278 472 265 472 q 288 471 283 472 q 329 421 329 461 q 300 290 329 400 q 268 96 268 167 q 282 25 268 44 q 308 8 296 4 q 356 82 324 15 q 415 236 388 149 q 451 363 451 353 q 460 381 451 375 q 479 379 469 386 q 483 368 483 378 q 456 250 483 344 q 346 0 394 42 q 297 -21 321 -21 q 229 26 260 -21 q 214 66 217 46 q 211 153 211 86 l 211 251 l 185 190 q 138 110 158 129 q 93 92 118 92 q 18 149 47 92 q 13 158 17 150 q 8 169 8 167 q 3 178 7 171 q 0 190 0 186 q -3 202 0 193 q -6 219 -6 211 q -7 238 -6 226 q -8 263 -8 249 q -8 293 -8 276 q 14 454 -8 404 m 207 607 q 229 624 218 624 q 274 603 251 624 q 297 563 297 582 q 283 540 297 549 q 261 535 274 535 q 203 567 224 535 q 197 582 197 574 q 207 607 197 592 m 96 621 q 118 638 107 638 q 163 617 140 638 q 186 576 186 596 q 172 554 186 563 q 150 549 163 549 q 92 581 113 549 q 86 596 86 588 q 96 621 86 606 z "},"":{"ha":499,"x_min":-160,"x_max":543,"o":"m -124 -536 q -110 -595 -124 -568 q -72 -622 -97 -622 q -26 -608 -56 -622 q 133 -423 61 -568 q 242 -75 206 -278 q 251 -3 251 -17 l 251 -1 l 250 -1 q 122 -133 238 -1 q -40 -328 6 -264 q -124 -536 -124 -443 m 524 371 q 536 365 529 371 q 543 356 543 360 q 539 344 543 353 q 399 164 511 292 l 350 110 l 347 33 q 288 -266 343 -115 q 149 -519 232 -417 q -17 -640 67 -621 q -54 -646 -39 -646 q -97 -633 -68 -646 q -160 -531 -160 -606 q -158 -503 -160 -512 q -75 -302 -150 -415 q 164 -17 0 -189 l 254 78 l 254 183 q 247 286 254 286 q 200 231 244 286 q 128 154 165 183 q 69 125 92 125 q 22 138 46 125 q -7 169 -1 151 q -15 229 -15 190 q 22 425 -15 332 q 57 458 35 458 q 101 435 75 458 l 126 411 l 89 308 q 50 176 50 201 l 50 149 l 74 160 q 142 224 100 174 q 206 315 185 274 q 236 407 228 364 q 254 458 244 458 q 283 444 265 458 q 308 415 301 429 q 333 283 321 389 l 347 172 l 369 199 q 389 221 374 203 q 422 261 404 239 q 454 301 439 283 q 524 371 511 371 m 293 647 q 301 626 301 643 q 288 583 301 603 q 254 558 275 564 q 179 522 249 557 q 151 511 157 511 q 144 525 144 511 q 207 603 144 564 q 292 647 282 647 l 293 647 z "},"":{"ha":499,"x_min":-160,"x_max":543,"o":"m -124 -536 q -110 -595 -124 -568 q -72 -622 -97 -622 q -26 -608 -56 -622 q 133 -423 61 -568 q 242 -75 206 -278 q 251 -3 251 -17 l 250 -1 q 122 -133 238 -1 q -40 -328 6 -264 q -124 -536 -124 -443 m 524 371 q 536 365 529 371 q 543 356 543 360 q 539 344 543 353 q 399 164 511 292 l 350 110 l 347 33 q 288 -266 343 -115 q 149 -519 232 -417 q -17 -640 67 -621 q -54 -646 -39 -646 q -97 -633 -68 -646 q -160 -531 -160 -606 q -158 -503 -160 -512 q -75 -302 -150 -415 q 164 -17 0 -189 l 254 78 l 254 183 q 247 286 254 286 q 200 231 244 286 q 128 154 165 183 q 69 125 92 125 q 22 138 46 125 q -7 169 -1 151 q -15 229 -15 190 q 22 425 -15 332 q 57 458 35 458 q 101 435 75 458 l 126 411 l 89 308 q 50 176 50 201 l 50 149 l 74 160 q 142 224 100 174 q 206 315 185 274 q 236 407 228 364 q 254 458 244 458 q 283 444 265 458 q 308 415 301 429 q 333 283 321 389 l 347 172 l 369 199 q 389 221 374 203 q 422 261 404 239 q 454 301 439 283 q 524 371 511 371 m 269 542 q 259 522 269 529 q 233 514 249 514 q 175 546 196 514 q 169 561 169 553 q 179 586 169 571 q 201 603 190 603 q 247 582 224 603 q 269 542 269 561 m 158 556 q 148 535 158 543 q 122 528 138 528 q 64 560 85 528 q 58 575 58 567 q 68 600 58 585 q 90 617 79 617 q 135 596 113 617 q 158 556 158 575 z "},"":{"ha":213,"x_min":54,"x_max":158,"o":"m 104 763 q 101 779 101 769 q 108 789 101 789 q 128 779 117 789 q 158 717 158 757 q 128 658 158 678 q 100 650 115 650 q 64 664 78 650 q 56 678 54 675 q 69 689 57 682 q 107 744 107 707 q 104 763 107 751 z "},"":{"ha":213,"x_min":54,"x_max":158,"o":"m 104 763 q 101 779 101 769 q 108 789 101 789 q 128 779 117 789 q 158 717 158 757 q 128 658 158 678 q 100 650 115 650 q 64 664 78 650 q 56 678 54 675 q 69 689 57 682 q 107 744 107 707 q 104 763 107 751 z "},"":{"ha":213,"x_min":54,"x_max":158,"o":"m 104 151 q 101 168 101 158 q 108 178 101 178 q 128 168 117 178 q 158 106 158 146 q 128 47 158 67 q 100 39 115 39 q 64 53 78 39 q 56 67 54 64 q 69 78 57 71 q 107 133 107 96 q 104 151 107 140 z "},"":{"ha":213,"x_min":54,"x_max":158,"o":"m 104 763 q 101 779 101 769 q 108 789 101 789 q 128 779 117 789 q 158 717 158 757 q 128 658 158 678 q 100 650 115 650 q 64 664 78 650 q 56 678 54 675 q 69 689 57 682 q 107 744 107 707 q 104 763 107 751 z "},"":{"ha":322,"x_min":54,"x_max":268,"o":"m 214 763 q 211 779 211 769 q 218 789 211 789 q 238 779 226 789 q 268 717 268 757 q 238 658 268 678 q 210 650 225 650 q 174 664 188 650 q 165 678 164 675 q 179 689 167 682 q 217 744 217 707 q 214 763 217 751 m 104 763 q 101 779 101 769 q 108 789 101 789 q 128 779 117 789 q 158 717 158 757 q 128 658 158 678 q 100 650 115 650 q 64 664 78 650 q 56 678 54 675 q 69 689 57 682 q 107 744 107 707 q 104 763 107 751 z "},"":{"ha":322,"x_min":54,"x_max":268,"o":"m 214 763 q 211 779 211 769 q 218 789 211 789 q 238 779 226 789 q 268 717 268 757 q 238 658 268 678 q 210 650 225 650 q 174 664 188 650 q 165 678 164 675 q 179 689 167 682 q 217 744 217 707 q 214 763 217 751 m 104 763 q 101 779 101 769 q 108 789 101 789 q 128 779 117 789 q 158 717 158 757 q 128 658 158 678 q 100 650 115 650 q 64 664 78 650 q 56 678 54 675 q 69 689 57 682 q 107 744 107 707 q 104 763 107 751 z "},"":{"ha":326,"x_min":54,"x_max":272,"o":"m 218 151 q 215 168 215 158 q 222 178 215 178 q 242 168 231 178 q 272 106 272 146 q 242 47 272 67 q 214 39 229 39 q 178 53 192 39 q 169 67 168 64 q 183 78 171 71 q 221 133 221 96 q 218 151 221 140 m 104 151 q 101 168 101 158 q 108 178 101 178 q 128 168 117 178 q 158 106 158 146 q 128 47 158 67 q 100 39 115 39 q 64 53 78 39 q 56 67 54 64 q 69 78 57 71 q 107 133 107 96 q 104 151 107 140 z "},"":{"ha":322,"x_min":54,"x_max":268,"o":"m 214 763 q 211 779 211 769 q 218 789 211 789 q 238 779 226 789 q 268 717 268 757 q 238 658 268 678 q 210 650 225 650 q 174 664 188 650 q 165 678 164 675 q 179 689 167 682 q 217 744 217 707 q 214 763 217 751 m 104 763 q 101 779 101 769 q 108 789 101 789 q 128 779 117 789 q 158 717 158 757 q 128 658 158 678 q 100 650 115 650 q 64 664 78 650 q 56 678 54 675 q 69 689 57 682 q 107 744 107 707 q 104 763 107 751 z "},"":{"ha":779,"x_min":56,"x_max":725,"o":"m 407 58 q 397 72 399 72 q 385 6 385 72 l 385 -3 q 393 -46 385 -46 q 408 -17 397 -46 q 415 24 415 7 q 407 58 415 46 m 183 551 q 184 558 183 554 q 185 563 185 561 q 181 579 185 579 q 158 544 175 579 q 147 503 147 522 q 151 493 147 493 l 153 493 q 169 510 157 496 q 183 551 182 525 m 250 663 q 230 638 250 658 q 210 613 210 617 q 218 574 210 610 q 224 532 224 556 q 190 450 224 481 q 157 436 175 436 q 89 475 125 436 q 58 557 58 507 q 97 665 58 614 q 171 715 135 715 l 172 715 q 204 708 193 715 q 220 703 214 703 q 244 713 226 704 q 294 731 260 719 q 342 738 322 738 q 433 702 397 738 q 468 610 468 667 q 438 507 468 564 q 318 325 408 450 q 113 -33 144 83 q 106 -79 106 -58 q 110 -97 106 -93 q 114 -99 111 -99 q 179 -69 136 -99 q 260 1 211 -49 q 331 85 308 51 q 353 104 338 94 q 379 114 369 114 q 457 74 417 114 q 497 -3 497 33 q 474 -67 497 -33 q 431 -103 450 -100 q 426 -103 429 -103 q 421 -104 422 -104 q 376 -90 399 -104 q 342 -56 353 -75 q 331 -22 333 -37 q 321 1 326 1 q 288 -25 318 1 q 122 -124 179 -124 q 88 -115 104 -124 q 62 -90 68 -104 q 56 -42 56 -75 q 88 114 56 19 q 313 508 138 263 q 365 585 349 557 q 394 676 394 635 q 386 703 394 700 q 368 706 382 706 q 294 690 338 706 q 250 663 250 675 m 679 31 q 671 58 679 58 q 644 39 664 58 q 601 -40 606 0 l 601 -51 q 613 -71 601 -71 q 625 -68 617 -71 q 663 -29 646 -60 q 679 31 679 1 m 565 103 q 590 114 575 114 q 622 105 600 114 q 647 89 643 96 q 663 88 649 85 l 667 88 q 715 51 696 88 q 725 13 725 33 q 700 -54 725 -22 q 650 -93 675 -86 q 629 -96 643 -96 q 550 -49 572 -96 q 542 10 542 -32 q 565 103 542 78 z "},"":{"ha":592,"x_min":54,"x_max":536,"o":"m 406 874 q 438 881 422 881 q 511 846 479 881 q 536 783 536 819 q 531 746 536 764 q 497 703 517 703 q 479 729 479 703 q 480 738 479 732 q 481 749 481 744 q 481 760 481 753 q 482 769 482 767 q 474 821 482 813 q 471 822 472 822 q 425 790 460 822 q 368 725 390 757 q 310 617 342 686 q 279 529 279 547 q 300 522 279 522 q 369 528 326 522 q 413 532 400 532 q 429 528 422 532 q 442 504 453 515 q 342 488 435 497 q 272 478 279 481 q 260 422 260 474 l 258 397 l 332 396 q 417 388 406 394 q 432 363 439 374 q 394 358 431 361 q 318 353 357 356 q 278 350 279 350 q 265 344 267 347 q 261 329 263 342 l 261 321 q 279 240 261 285 q 322 169 297 196 q 344 150 339 153 q 367 147 350 147 q 456 193 411 147 q 486 217 478 217 l 488 217 q 490 215 489 215 q 519 193 519 208 q 501 163 519 183 q 467 131 483 142 q 399 111 436 111 l 386 111 q 263 176 322 115 q 197 297 214 228 q 194 306 196 301 q 192 314 193 311 q 191 320 192 317 q 190 325 190 324 q 188 328 189 326 q 184 331 186 331 q 180 333 182 332 q 175 333 178 333 q 131 326 168 333 q 103 322 111 322 q 68 335 85 322 q 54 354 54 344 q 125 379 54 367 q 179 394 175 386 q 182 408 182 399 q 179 438 182 413 l 176 471 l 146 469 l 139 469 q 101 474 111 469 q 60 507 60 486 q 82 518 74 517 l 117 518 l 140 518 q 181 526 172 518 q 197 568 189 533 q 283 761 226 678 q 406 874 340 844 z "},"":{"ha":1033,"x_min":56,"x_max":979,"o":"m 856 826 q 888 843 871 843 q 918 835 900 843 q 979 722 979 807 q 951 568 979 676 q 897 335 906 394 q 893 290 893 311 q 935 175 893 214 q 933 153 957 153 q 883 182 911 153 q 825 357 825 246 q 867 649 825 468 q 889 771 889 747 q 888 778 889 776 q 886 779 888 779 q 853 742 878 779 q 803 656 828 706 q 725 460 765 578 q 693 365 696 369 q 676 358 689 358 q 636 383 646 358 q 625 486 625 417 q 628 557 625 507 q 631 611 631 610 q 628 624 631 624 q 608 590 626 624 q 539 300 554 483 q 521 260 535 260 q 510 261 514 260 q 471 319 483 268 q 439 597 439 440 q 453 696 439 682 q 472 701 458 701 q 535 672 515 701 q 540 629 540 665 q 539 576 540 611 q 538 531 538 542 q 539 514 538 514 l 556 557 q 597 648 574 600 q 632 706 619 696 q 650 711 639 711 q 688 694 669 711 q 711 611 711 674 q 708 560 711 590 q 706 526 706 529 l 706 522 q 731 575 710 522 q 856 826 815 783 m 64 794 q 136 806 69 797 l 138 806 q 292 803 139 806 q 622 769 567 796 q 640 744 651 756 q 619 743 639 743 q 556 744 581 743 q 461 747 497 747 q 439 747 453 747 q 419 746 425 746 l 365 743 l 363 713 q 332 526 363 707 q 315 332 315 425 l 315 243 l 303 243 q 279 253 285 243 q 268 303 274 264 q 247 514 254 417 q 247 524 247 517 q 246 536 246 532 q 256 704 246 588 l 258 740 l 181 739 l 140 739 q 86 747 101 739 q 56 782 56 763 q 64 794 56 790 z "},"":{"ha":413,"x_min":50,"x_max":363,"o":"m 243 706 q 265 722 250 722 q 283 715 275 722 q 292 699 292 708 q 290 692 292 694 l 261 601 q 314 603 290 603 l 317 603 q 347 590 331 603 q 363 567 363 578 q 351 555 363 558 q 299 547 339 551 q 270 544 289 547 q 242 542 251 542 l 219 474 q 263 474 240 474 q 297 476 285 475 q 310 476 308 476 l 313 476 q 342 464 326 476 q 358 440 358 451 q 347 428 358 432 q 294 421 335 425 q 245 416 278 419 q 199 411 213 413 l 165 304 q 143 288 158 288 q 125 294 133 288 q 117 311 117 301 q 118 318 117 315 l 146 404 q 124 403 138 403 q 75 421 94 403 q 56 458 50 443 q 168 472 58 469 l 189 535 q 149 531 161 532 q 128 529 140 529 q 79 547 99 529 q 60 585 54 569 q 210 600 63 596 l 243 706 z "},"":{"ha":490,"x_min":50,"x_max":436,"o":"m 338 685 q 354 688 342 688 q 425 653 394 688 q 436 632 436 639 q 371 579 436 617 q 168 479 307 542 q 144 464 144 468 q 265 386 144 458 q 386 300 386 314 q 378 294 386 294 q 243 356 356 294 q 82 456 110 429 q 58 489 58 479 q 68 506 58 496 q 197 593 75 513 q 338 685 318 674 m 253 210 q 307 210 278 210 q 351 212 336 211 q 368 213 367 213 l 371 213 q 401 200 385 213 q 417 176 417 188 q 405 165 417 168 q 353 157 393 161 q 247 152 328 154 q 144 147 167 150 q 124 146 136 146 q 75 164 94 146 q 56 201 50 186 q 78 207 57 206 q 158 208 99 208 q 253 210 217 208 z "},"":{"ha":471,"x_min":50,"x_max":417,"o":"m 92 683 q 96 692 92 690 q 110 693 100 693 q 183 657 136 693 q 333 565 235 617 q 401 526 386 538 q 417 500 417 514 q 377 449 417 485 q 215 319 338 414 q 118 258 136 258 q 97 265 108 258 q 83 282 83 274 q 175 380 83 288 q 300 500 267 472 q 322 522 322 517 q 257 558 322 526 q 111 651 156 607 q 92 683 92 671 m 253 182 q 307 183 278 182 q 351 184 336 183 q 368 185 367 185 l 371 185 q 401 172 385 185 q 417 149 417 160 q 405 137 417 140 q 353 129 393 133 q 247 124 328 126 q 144 119 167 122 q 124 118 136 118 q 75 136 94 118 q 56 174 50 158 q 78 179 57 178 q 158 181 99 181 q 253 182 217 181 z "},"":{"ha":1635,"x_min":-12,"x_max":1668,"o":"m 1257 215 q 1271 176 1257 176 q 1356 297 1283 176 q 1396 381 1396 365 q 1390 403 1396 390 q 1364 433 1381 433 q 1333 414 1353 433 q 1281 320 1304 383 q 1257 215 1257 257 m 1489 -3 q 1406 147 1406 -3 q 1426 313 1406 229 q 1439 369 1439 356 q 1438 374 1439 374 q 1375 269 1428 374 q 1315 170 1338 197 q 1269 143 1292 143 q 1203 169 1224 143 q 1182 253 1182 194 q 1183 266 1182 257 q 1183 281 1183 275 q 1201 368 1185 319 q 872 271 1054 271 q 572 338 726 271 q 229 429 358 429 q 14 371 118 429 q 0 367 6 367 q -12 379 -12 367 q 7 404 -12 393 q 231 465 110 465 q 597 369 365 465 q 883 308 746 308 q 1010 322 949 308 q 1111 356 1071 336 q 1183 397 1151 375 q 1228 431 1214 418 q 1243 446 1242 443 l 1244 446 q 1331 493 1285 493 q 1415 456 1369 493 q 1444 436 1439 436 q 1471 468 1451 436 q 1508 500 1493 500 q 1538 471 1538 500 q 1511 349 1538 442 q 1475 210 1493 285 q 1467 122 1467 168 q 1493 21 1467 21 q 1633 332 1549 21 q 1658 379 1646 379 q 1668 363 1668 379 q 1642 243 1668 339 q 1577 58 1603 107 q 1515 0 1551 8 q 1489 -3 1496 -3 z "},"":{"ha":1750,"x_min":13,"x_max":1790,"o":"m 1439 8 q 1454 -22 1439 -22 q 1482 1 1465 -22 q 1510 57 1499 24 q 1521 103 1521 90 l 1521 106 q 1489 89 1519 106 q 1453 52 1467 75 q 1439 8 1439 29 m 1600 849 q 1593 894 1600 894 q 1519 825 1572 894 q 1426 676 1465 756 q 1363 513 1397 617 q 1328 381 1328 410 q 1331 374 1328 374 q 1374 400 1333 374 q 1530 600 1460 461 q 1600 849 1600 739 m 1772 372 q 1790 357 1790 372 q 1744 265 1790 331 q 1657 169 1699 200 q 1608 110 1618 142 q 1556 4 1589 49 q 1490 -46 1522 -40 q 1469 -49 1474 -49 q 1424 -32 1440 -49 q 1408 11 1408 -15 q 1432 76 1408 43 q 1499 125 1456 110 q 1535 151 1528 136 q 1543 211 1543 167 q 1534 280 1543 251 q 1513 308 1525 308 q 1461 267 1497 308 q 1404 183 1425 225 q 1350 -25 1358 90 q 1338 -108 1346 -85 q 1314 -131 1331 -131 q 1258 6 1286 -131 q 1242 228 1242 89 l 1242 268 q 897 160 1089 160 q 597 226 751 160 q 254 318 383 318 q 39 260 143 318 q 25 256 31 256 q 13 268 13 256 q 32 293 13 282 q 258 356 139 356 q 622 260 388 356 q 908 199 771 199 q 1244 314 1104 199 q 1254 422 1247 379 q 1367 741 1282 588 q 1539 932 1453 894 q 1567 939 1557 939 q 1618 913 1590 939 q 1646 835 1646 886 q 1638 764 1646 806 q 1567 586 1624 693 q 1458 424 1510 479 q 1324 317 1374 333 q 1306 233 1313 313 q 1299 111 1299 153 q 1306 53 1299 57 l 1307 53 q 1324 96 1314 53 q 1380 238 1338 164 q 1463 336 1422 311 q 1501 346 1478 346 q 1564 324 1536 346 q 1599 278 1582 310 q 1617 229 1617 247 q 1632 197 1617 197 q 1714 301 1653 197 q 1772 372 1757 372 z "},"":{"ha":1546,"x_min":-22,"x_max":1583,"o":"m 1567 379 q 1583 356 1583 379 q 1560 292 1583 338 q 1431 142 1513 197 q 1324 101 1369 101 q 1285 107 1301 101 q 1199 170 1229 122 q 1169 286 1169 218 q 1193 411 1169 350 q 863 313 1043 313 q 563 379 717 313 q 219 471 349 471 q 4 413 108 471 q -10 408 -4 408 q -22 421 -22 408 q -3 446 -22 435 q 224 508 104 508 q 588 413 353 508 q 874 351 736 351 q 999 366 938 351 q 1097 397 1060 381 q 1169 438 1133 413 q 1215 471 1206 463 q 1233 489 1224 479 q 1310 558 1276 551 q 1331 561 1324 561 q 1395 538 1368 561 q 1422 483 1422 515 q 1406 426 1422 457 q 1368 394 1389 394 q 1356 411 1356 394 q 1363 435 1356 421 q 1372 475 1372 454 l 1372 481 l 1369 503 l 1343 476 q 1276 360 1303 436 q 1249 222 1249 285 q 1258 167 1249 192 q 1272 144 1265 149 q 1301 140 1279 140 q 1429 197 1361 140 q 1540 342 1497 254 q 1567 379 1560 379 z "},"":{"ha":1749,"x_min":-3,"x_max":1815,"o":"m 1701 1025 q 1735 1036 1724 1036 q 1772 1022 1750 1036 q 1815 915 1815 997 q 1814 869 1815 886 q 1721 547 1803 721 q 1660 441 1688 478 q 1593 382 1632 404 l 1557 361 l 1546 290 q 1536 136 1536 222 q 1567 -60 1536 -33 q 1575 -62 1572 -62 q 1647 35 1601 -62 q 1731 268 1693 132 q 1771 369 1757 368 l 1779 369 q 1792 353 1792 369 q 1772 264 1792 335 q 1669 -1 1722 92 q 1565 -94 1615 -94 q 1524 -76 1543 -94 q 1480 15 1499 -54 q 1456 171 1461 85 l 1450 240 q 1417 178 1447 240 q 1361 87 1385 113 q 1308 61 1338 61 q 1254 75 1274 61 q 1217 125 1235 89 q 1194 231 1194 169 q 1208 324 1194 282 q 882 228 1060 228 q 582 294 736 228 q 239 386 368 386 q 24 328 128 386 q 10 324 15 324 q -3 336 -3 324 q 17 361 -3 350 q 243 424 124 424 q 607 328 372 424 q 893 267 756 267 q 1037 284 968 267 q 1150 328 1106 301 q 1217 372 1194 354 q 1251 401 1240 389 l 1253 403 l 1253 404 q 1358 460 1303 460 q 1412 445 1382 460 q 1456 413 1442 431 q 1461 408 1460 408 q 1471 444 1467 408 q 1496 581 1475 486 q 1591 865 1529 732 q 1701 1025 1653 999 m 1768 960 l 1764 985 l 1746 960 q 1643 698 1711 911 q 1575 431 1575 485 q 1576 419 1575 421 l 1578 419 q 1614 451 1585 419 q 1678 551 1642 482 q 1733 678 1714 619 q 1762 792 1749 722 q 1775 899 1775 861 q 1768 960 1775 922 m 1418 376 q 1394 410 1408 410 q 1367 396 1385 410 q 1308 295 1332 368 q 1283 158 1283 222 q 1294 96 1283 117 q 1300 92 1297 92 q 1339 127 1313 92 q 1390 215 1365 163 q 1428 325 1428 290 q 1418 376 1428 340 z "},"":{"ha":1519,"x_min":-3,"x_max":1549,"o":"m 1344 363 q 1363 425 1363 404 l 1363 428 l 1360 450 l 1338 419 q 1297 354 1318 393 q 1275 306 1275 315 q 1283 301 1275 301 q 1313 319 1294 301 q 1344 363 1332 338 m 1271 469 q 1332 511 1311 511 q 1358 504 1340 511 q 1413 429 1413 483 q 1368 322 1413 382 q 1283 276 1335 276 q 1262 271 1267 276 q 1253 239 1257 265 q 1250 197 1250 214 q 1268 97 1250 128 q 1293 82 1278 82 q 1349 108 1313 82 q 1489 307 1410 153 q 1536 374 1524 374 q 1549 363 1549 374 q 1512 274 1549 346 q 1447 167 1475 203 q 1367 90 1410 118 q 1290 61 1325 61 q 1268 65 1278 61 q 1186 233 1186 97 q 1187 249 1186 239 q 1188 263 1188 258 q 1207 368 1192 326 q 882 274 1061 274 q 582 340 736 274 q 239 432 368 432 q 24 374 128 432 q 10 369 15 369 q -3 382 -3 369 q 17 407 -3 396 q 243 469 124 469 q 607 374 372 469 q 893 313 756 313 q 1019 326 958 313 q 1121 360 1081 340 q 1192 401 1161 379 q 1238 435 1224 422 q 1253 450 1251 447 q 1262 460 1256 453 q 1271 469 1268 467 z "},"":{"ha":1582,"x_min":-7,"x_max":1621,"o":"m 1338 114 q 1307 161 1321 150 q 1299 165 1303 165 q 1290 144 1294 165 q 1264 -203 1264 -11 q 1279 -393 1264 -346 q 1300 -440 1294 -440 q 1331 -403 1310 -440 q 1365 -328 1353 -365 q 1396 -110 1396 -233 q 1394 -75 1396 -85 q 1338 114 1382 28 m 1450 632 q 1453 654 1453 651 q 1451 658 1453 658 q 1418 598 1446 658 q 1386 517 1390 538 q 1383 499 1383 507 l 1383 497 l 1394 510 q 1428 570 1410 531 q 1450 632 1446 610 m 1600 372 q 1621 356 1621 372 q 1592 317 1621 346 q 1522 258 1561 286 q 1428 214 1496 240 q 1340 188 1361 188 q 1326 179 1326 188 q 1343 157 1326 172 q 1388 82 1360 142 q 1428 -26 1415 22 q 1438 -139 1438 -61 q 1419 -329 1438 -265 q 1310 -481 1378 -481 q 1264 -465 1290 -481 q 1174 -122 1185 -415 q 1172 -51 1172 -99 q 1215 331 1172 146 q 878 228 1068 228 q 578 294 732 228 q 235 386 364 386 q 19 328 124 386 q 6 324 11 324 q -7 336 -7 324 q 13 361 -7 350 q 239 424 119 424 q 603 328 368 424 q 889 267 751 267 q 1229 386 1092 267 q 1310 599 1258 492 q 1385 714 1356 694 q 1428 728 1404 728 q 1489 654 1489 728 q 1472 572 1489 608 q 1376 431 1439 500 q 1328 314 1351 404 q 1310 226 1310 249 q 1314 222 1310 222 q 1384 242 1329 222 q 1467 279 1439 263 q 1543 336 1507 301 q 1600 372 1583 372 z "},"":{"ha":1717,"x_min":6,"x_max":1761,"o":"m 1485 501 q 1490 532 1485 526 q 1501 536 1496 538 q 1529 524 1507 535 q 1561 483 1554 513 q 1568 363 1568 454 l 1568 321 l 1567 200 l 1650 288 q 1753 374 1732 374 q 1761 363 1761 374 q 1628 204 1761 342 l 1563 138 l 1544 33 q 1434 -339 1507 -175 q 1269 -589 1361 -503 q 1178 -632 1225 -632 q 1118 -606 1143 -632 q 1096 -532 1100 -587 q 1095 -520 1096 -528 q 1094 -508 1094 -512 q 1368 0 1094 -282 l 1469 104 l 1474 238 l 1478 369 l 1435 293 q 1299 146 1351 146 q 1247 160 1271 146 q 1211 197 1222 175 q 1197 268 1197 225 q 1218 381 1197 325 q 890 285 1072 285 q 590 351 744 285 q 247 443 376 443 q 32 385 136 443 q 18 381 24 381 q 6 393 6 381 q 25 418 6 407 q 251 481 132 481 q 615 385 381 481 q 901 324 764 324 q 1250 450 1113 324 q 1294 504 1271 485 q 1360 528 1322 528 q 1429 503 1399 528 q 1461 442 1460 479 q 1463 436 1461 436 q 1476 460 1467 436 q 1485 501 1485 485 m 1410 463 q 1394 488 1403 488 q 1358 460 1382 488 q 1315 400 1333 433 q 1268 226 1268 313 q 1281 183 1268 192 l 1282 183 l 1283 182 q 1336 224 1297 182 q 1403 311 1375 265 q 1436 378 1436 365 q 1432 388 1436 383 q 1419 417 1419 397 q 1410 463 1419 431 m 1456 6 q 1458 19 1457 13 q 1458 28 1458 25 q 1457 32 1458 32 q 1414 -11 1454 32 q 1138 -497 1147 -287 q 1137 -510 1138 -503 q 1136 -522 1136 -518 q 1169 -610 1136 -610 q 1218 -582 1188 -610 q 1456 6 1383 -421 z "},"":{"ha":1779,"x_min":29,"x_max":1819,"o":"m 1638 963 l 1638 974 q 1594 938 1628 974 q 1533 864 1561 903 q 1374 488 1424 706 l 1363 435 l 1383 454 q 1460 544 1411 481 q 1539 658 1508 608 q 1636 914 1628 810 q 1638 963 1638 933 m 1608 1046 q 1658 1013 1640 1046 q 1676 936 1676 979 q 1522 556 1676 788 q 1442 453 1486 501 q 1371 386 1399 404 q 1353 357 1357 376 q 1347 232 1350 338 l 1344 90 l 1368 160 q 1454 338 1403 263 q 1542 413 1506 413 q 1586 385 1558 413 q 1610 353 1606 365 q 1614 310 1614 342 q 1582 147 1614 260 q 1543 -32 1543 10 q 1549 -67 1543 -50 q 1567 -83 1556 -83 q 1611 -49 1581 -83 q 1707 125 1650 -6 q 1781 342 1764 256 q 1800 369 1786 369 l 1804 369 q 1819 344 1819 368 l 1819 333 q 1731 74 1818 265 q 1582 -117 1644 -117 q 1535 -90 1561 -117 q 1500 -32 1508 -62 q 1493 40 1493 -4 q 1519 257 1493 143 q 1536 344 1536 331 q 1500 314 1531 344 q 1390 88 1432 246 q 1351 0 1367 0 q 1339 4 1347 0 q 1291 104 1311 18 q 1265 301 1271 190 q 914 188 1108 188 q 614 254 768 188 q 271 346 400 346 q 56 288 160 346 q 42 283 47 283 q 29 296 29 283 q 49 321 29 310 q 275 383 156 383 q 639 288 404 383 q 925 226 788 226 q 1264 344 1124 226 l 1264 368 q 1276 531 1264 458 q 1418 883 1308 721 q 1494 974 1450 929 q 1568 1032 1539 1018 q 1608 1046 1600 1046 z "},"":{"ha":1418,"x_min":-78,"x_max":1443,"o":"m 1181 551 q 1200 561 1185 561 q 1244 544 1224 561 q 1262 522 1258 533 q 1265 481 1265 511 q 1238 353 1265 471 q 1210 183 1210 235 q 1224 126 1210 142 q 1244 114 1233 114 q 1360 265 1278 114 q 1436 374 1419 374 q 1442 371 1439 374 q 1443 368 1443 371 q 1401 267 1443 349 q 1328 147 1358 185 q 1236 96 1286 96 q 1175 132 1197 96 q 1146 289 1146 179 q 1147 329 1146 315 q 1169 493 1150 378 q 807 372 1015 372 q 507 439 661 372 q 164 531 293 531 q -51 472 53 531 q -65 468 -60 468 q -78 481 -78 468 q -58 506 -78 494 q 168 568 49 568 q 532 472 297 568 q 818 411 681 411 q 944 425 883 411 q 1046 458 1006 439 q 1117 499 1086 478 q 1163 533 1149 521 q 1178 549 1176 546 q 1179 550 1178 550 l 1181 551 m 1221 788 q 1239 797 1225 797 q 1283 780 1258 797 q 1307 744 1307 763 q 1288 688 1307 728 q 1256 638 1269 647 q 1243 633 1251 633 q 1219 641 1231 633 q 1207 657 1207 649 q 1208 670 1207 661 q 1211 694 1210 679 q 1214 724 1213 710 q 1221 788 1219 782 z "},"":{"ha":1508,"x_min":6,"x_max":1551,"o":"m 1263 382 q 1282 394 1267 394 q 1310 383 1294 394 q 1338 214 1336 364 l 1339 149 l 1411 240 q 1524 376 1513 369 q 1529 378 1526 378 q 1538 376 1535 378 q 1544 361 1551 371 q 1363 129 1389 160 q 1343 94 1347 113 q 1336 15 1339 75 q 1282 -281 1328 -142 q 1162 -523 1238 -417 q 1019 -649 1086 -629 q 992 -654 1003 -654 q 957 -643 978 -654 q 910 -556 910 -618 q 1183 -49 910 -410 l 1257 49 l 1257 208 q 1258 329 1257 297 q 890 203 1100 203 q 590 269 744 203 q 247 361 376 361 q 32 303 136 361 q 18 299 24 299 q 6 311 6 299 q 25 336 6 325 q 251 399 132 399 q 615 303 381 399 q 901 242 764 242 q 1028 256 967 242 q 1129 289 1089 269 q 1201 330 1169 308 q 1246 364 1232 351 q 1261 379 1260 376 l 1263 382 m 1246 -126 q 1256 -28 1256 -67 q 1254 -21 1256 -21 q 1178 -107 1243 -21 q 942 -551 942 -421 q 946 -589 942 -572 q 983 -632 958 -632 q 1079 -553 1014 -632 q 1246 -126 1206 -396 m 1293 565 q 1311 574 1297 574 q 1347 558 1328 574 l 1365 543 l 1351 496 q 1333 432 1336 446 q 1321 414 1332 414 q 1297 428 1311 414 q 1282 467 1282 443 q 1283 501 1282 486 q 1293 565 1289 558 z "},"":{"ha":1756,"x_min":-49,"x_max":1799,"o":"m 1396 322 q 1347 258 1347 276 q 1351 256 1347 256 q 1393 278 1361 256 q 1435 335 1435 308 q 1429 342 1435 342 q 1396 322 1417 342 m 1547 1163 q 1621 1181 1582 1181 q 1685 1160 1661 1181 q 1729 1042 1729 1117 q 1657 816 1729 946 q 1457 557 1585 686 q 1322 435 1353 453 q 1274 392 1282 408 q 1265 318 1265 376 l 1265 249 l 1290 293 q 1421 407 1354 407 q 1480 381 1453 407 q 1507 325 1507 354 q 1506 314 1507 318 q 1407 231 1493 268 q 1364 208 1364 210 q 1396 131 1364 203 q 1440 38 1428 60 q 1528 -40 1486 -40 q 1733 257 1644 -40 q 1765 364 1761 347 q 1769 368 1767 367 q 1774 369 1771 369 q 1780 369 1776 369 q 1787 368 1783 369 q 1793 365 1790 367 q 1797 359 1796 363 q 1799 351 1799 356 q 1774 233 1799 331 q 1731 90 1749 136 q 1682 0 1714 46 q 1624 -64 1650 -46 q 1560 -83 1596 -83 q 1449 -36 1506 -83 q 1349 96 1392 11 q 1314 156 1318 156 q 1307 138 1311 156 q 1300 94 1303 119 q 1297 47 1297 68 q 1286 18 1297 18 q 1251 57 1269 18 q 1207 251 1235 93 q 1193 374 1197 307 q 836 257 1036 257 q 536 324 690 257 q 193 415 322 415 q -22 357 82 415 q -36 353 -31 353 q -49 365 -49 353 q -29 390 -49 379 q 197 453 78 453 q 561 357 326 453 q 847 296 710 296 q 1192 418 1056 296 l 1192 426 q 1293 851 1192 649 q 1417 1042 1343 951 q 1547 1163 1492 1133 m 1688 1057 q 1665 1106 1686 1106 q 1610 1082 1650 1106 q 1440 881 1531 1036 q 1307 565 1349 725 q 1290 486 1290 506 q 1294 476 1290 476 q 1317 490 1297 476 q 1409 572 1349 513 q 1507 676 1469 631 q 1636 875 1585 768 q 1688 1050 1688 982 l 1688 1057 z "},"":{"ha":1535,"x_min":-28,"x_max":1572,"o":"m 1461 1025 q 1497 1038 1481 1038 q 1547 1013 1522 1038 q 1572 926 1572 988 q 1553 803 1572 874 q 1447 564 1522 694 q 1317 390 1372 433 q 1277 339 1283 365 q 1268 203 1271 313 l 1268 182 q 1306 -4 1268 44 q 1332 -24 1321 -24 q 1381 10 1344 -24 q 1515 282 1454 83 q 1560 375 1544 375 q 1569 361 1569 375 q 1540 257 1569 342 q 1336 -42 1438 -42 q 1233 54 1272 -42 q 1192 303 1193 150 q 857 201 1043 201 q 557 268 711 201 q 214 360 343 360 q -1 301 103 360 q -15 297 -10 297 q -28 310 -28 297 q -8 335 -28 324 q 218 397 99 397 q 582 301 347 397 q 868 240 731 240 q 1192 346 1053 240 q 1192 351 1192 347 q 1193 357 1193 356 q 1326 840 1203 597 q 1461 1025 1403 990 m 1529 908 q 1531 956 1531 926 q 1529 976 1531 976 q 1417 774 1506 976 q 1300 451 1328 571 l 1294 426 l 1315 447 q 1383 536 1339 468 q 1457 663 1428 604 q 1529 908 1521 789 z "},"":{"ha":2044,"x_min":-35,"x_max":2085,"o":"m 1889 699 q 1944 583 1944 661 q 1889 339 1944 504 q 1814 26 1814 118 q 1822 -22 1814 -6 q 1840 -37 1831 -37 q 1890 3 1854 -37 q 2017 261 1957 75 q 2048 353 2040 333 q 2063 372 2056 372 q 2074 368 2067 372 q 2085 353 2085 363 q 2078 321 2085 349 q 2009 131 2051 226 q 1932 -4 1967 36 q 1840 -61 1883 -61 q 1826 -60 1831 -61 q 1739 131 1739 -43 l 1739 140 q 1803 488 1740 274 q 1842 646 1842 618 q 1838 660 1842 656 q 1813 671 1826 671 q 1674 524 1757 671 q 1561 288 1592 378 q 1537 225 1546 240 q 1517 207 1528 210 l 1511 207 q 1467 242 1483 207 q 1451 339 1451 278 q 1464 460 1451 392 q 1475 536 1475 522 q 1471 546 1475 546 q 1442 519 1465 546 q 1363 403 1393 467 q 1310 228 1333 340 q 1281 119 1289 128 q 1251 108 1272 108 q 1210 126 1228 108 q 1167 308 1167 171 q 1190 488 1167 411 q 850 382 1039 382 q 550 449 704 382 q 207 540 336 540 q -8 482 96 540 q -22 478 -17 478 q -35 490 -35 478 q -15 515 -35 504 q 211 578 92 578 q 575 482 340 578 q 861 421 724 421 q 988 435 926 421 q 1089 468 1049 449 q 1160 509 1129 488 q 1206 543 1192 531 q 1221 558 1219 556 q 1246 568 1229 568 q 1298 549 1268 568 q 1328 513 1328 529 q 1297 400 1328 492 q 1249 207 1249 254 q 1249 198 1249 204 q 1250 189 1250 192 l 1253 161 q 1278 250 1257 161 q 1444 588 1343 514 q 1483 600 1464 600 q 1538 578 1513 600 q 1574 519 1564 556 q 1578 486 1578 506 q 1553 340 1578 442 q 1569 381 1558 356 q 1612 470 1579 406 q 1676 584 1644 535 q 1753 674 1708 633 q 1839 714 1799 714 q 1889 699 1867 714 z "},"":{"ha":1749,"x_min":10,"x_max":1786,"o":"m 1660 578 q 1664 547 1664 564 q 1611 346 1664 492 q 1519 15 1519 100 q 1546 -31 1519 -31 q 1626 65 1574 -31 q 1722 288 1679 160 q 1764 378 1753 378 q 1771 376 1768 378 q 1786 360 1786 369 q 1733 220 1786 347 q 1661 56 1681 93 q 1608 -22 1638 13 q 1558 -56 1579 -56 q 1469 93 1469 -56 q 1550 489 1469 243 q 1576 586 1576 572 q 1567 589 1576 589 q 1463 476 1522 589 q 1364 251 1404 363 q 1317 137 1333 167 q 1286 107 1301 107 q 1251 125 1271 107 q 1204 285 1204 165 q 1236 489 1204 388 q 894 383 1085 383 q 594 450 749 383 q 251 542 381 542 q 36 483 140 542 q 22 479 28 479 q 10 492 10 479 q 29 517 10 506 q 256 579 136 579 q 619 483 385 579 q 906 422 768 422 q 1032 436 971 422 q 1133 469 1093 450 q 1205 510 1174 489 q 1250 544 1236 532 q 1265 560 1264 557 l 1267 561 q 1282 572 1274 572 q 1307 561 1289 572 q 1339 508 1339 540 q 1315 410 1339 483 q 1275 181 1275 283 q 1278 143 1275 143 q 1286 151 1281 143 q 1336 265 1297 165 q 1372 351 1349 297 q 1399 413 1396 404 q 1488 569 1426 486 q 1597 651 1549 651 q 1660 578 1640 651 z "},"":{"ha":1675,"x_min":13,"x_max":1717,"o":"m 1390 535 q 1414 540 1406 540 q 1446 533 1418 540 q 1513 479 1485 524 q 1542 386 1542 435 q 1550 360 1542 365 l 1553 358 q 1556 358 1554 358 q 1608 368 1569 358 q 1693 382 1663 382 q 1717 371 1717 382 q 1597 335 1717 349 l 1546 329 l 1528 250 q 1463 100 1506 154 q 1368 46 1421 46 q 1278 92 1311 46 q 1244 217 1244 139 q 1249 272 1244 243 q 1250 282 1250 275 q 1251 293 1250 289 q 897 178 1096 178 q 597 244 751 178 q 254 336 383 336 q 39 278 143 336 q 25 274 31 274 q 13 286 13 274 q 32 311 13 300 q 258 374 139 374 q 622 278 388 374 q 908 217 771 217 q 1035 231 974 217 q 1136 264 1096 244 q 1208 305 1176 283 q 1253 339 1239 326 q 1268 354 1267 351 l 1269 356 q 1306 378 1281 375 q 1310 378 1307 378 q 1315 379 1314 379 q 1360 370 1339 379 q 1388 347 1381 361 q 1390 338 1390 342 q 1371 275 1390 322 q 1340 139 1340 203 q 1346 100 1340 113 l 1356 76 l 1381 92 q 1449 174 1418 114 q 1490 303 1481 235 l 1494 335 l 1446 349 q 1347 454 1347 378 q 1360 505 1347 482 q 1390 535 1372 528 m 1463 496 q 1444 510 1451 510 q 1419 492 1438 510 q 1404 442 1404 476 q 1413 404 1404 421 q 1442 377 1419 390 q 1481 364 1465 364 q 1494 393 1494 364 q 1463 496 1494 460 z "},"":{"ha":1728,"x_min":-12,"x_max":1765,"o":"m 1435 140 q 1457 179 1457 172 l 1456 179 q 1390 142 1446 179 q 1326 90 1351 115 q 1301 53 1301 64 q 1307 47 1301 47 q 1339 58 1318 47 q 1435 140 1394 86 m 1236 510 q 1276 554 1258 554 q 1319 535 1289 554 q 1340 496 1340 519 q 1310 365 1340 465 q 1274 243 1274 247 q 1317 296 1278 243 q 1442 385 1382 385 q 1504 357 1472 385 q 1546 297 1536 329 l 1553 272 l 1650 326 q 1757 375 1738 375 l 1758 375 q 1765 368 1765 372 q 1651 293 1765 357 q 1567 242 1586 257 q 1544 211 1547 226 q 1463 80 1528 139 q 1333 21 1397 21 q 1284 33 1304 21 q 1264 64 1264 46 q 1308 121 1264 82 q 1413 196 1351 160 q 1472 235 1460 224 q 1488 264 1485 246 q 1489 288 1489 272 q 1463 344 1489 340 l 1458 344 q 1369 281 1424 344 q 1267 122 1314 218 q 1226 28 1236 60 q 1203 -89 1217 -4 q 1163 -382 1182 -217 q 1137 -575 1142 -544 q 1119 -606 1132 -606 q 1114 -605 1118 -606 q 1107 -604 1110 -604 q 1084 -598 1089 -603 q 1076 -574 1079 -593 q 1075 -531 1075 -567 q 1093 -135 1075 -324 q 1207 442 1126 218 q 872 340 1058 340 q 572 407 726 340 q 229 499 358 499 q 14 440 118 499 q 0 436 6 436 q -12 449 -12 436 q 7 474 -12 463 q 233 536 114 536 q 597 440 363 536 q 883 379 746 379 q 1018 394 954 379 q 1126 434 1082 410 q 1196 476 1171 458 q 1236 510 1221 494 z "},"":{"ha":1843,"x_min":10,"x_max":1875,"o":"m 1528 457 l 1553 518 l 1586 513 q 1639 496 1621 507 q 1656 468 1656 486 q 1653 446 1656 465 q 1626 335 1651 431 q 1575 142 1601 240 q 1547 35 1549 43 q 1544 22 1544 24 q 1547 19 1544 19 q 1588 50 1553 19 q 1790 289 1678 126 q 1863 374 1849 374 l 1864 374 q 1875 363 1875 369 q 1850 315 1875 353 q 1696 117 1782 215 q 1558 -17 1610 19 q 1526 -54 1526 -39 q 1554 -129 1526 -71 q 1590 -235 1583 -190 q 1599 -347 1599 -285 q 1583 -499 1599 -435 q 1538 -626 1560 -589 q 1482 -662 1515 -662 q 1455 -656 1461 -662 q 1439 -617 1449 -650 q 1425 -386 1425 -568 q 1436 -126 1425 -215 q 1503 249 1464 86 q 1531 374 1531 365 q 1513 335 1528 374 q 1378 99 1447 174 q 1326 63 1343 63 q 1308 64 1315 63 q 1238 104 1264 71 q 1200 203 1213 138 q 1196 253 1196 228 q 1211 346 1196 300 q 894 257 1069 257 q 594 324 749 257 q 251 415 381 415 q 36 357 140 415 q 22 353 28 353 q 10 365 10 353 q 29 390 10 379 q 256 453 136 453 q 619 357 385 453 q 906 296 768 296 q 1247 417 1108 296 q 1318 464 1278 456 q 1340 467 1332 467 q 1428 444 1383 467 q 1482 394 1474 422 q 1496 379 1488 379 q 1501 388 1501 378 q 1528 457 1501 392 m 1443 356 q 1403 410 1417 407 l 1401 410 q 1361 378 1386 410 q 1322 308 1336 346 q 1299 151 1299 244 q 1306 106 1299 117 q 1314 97 1311 97 q 1357 136 1319 97 q 1435 242 1400 181 l 1469 303 l 1443 356 m 1539 -207 q 1514 -139 1521 -139 q 1507 -151 1508 -139 q 1485 -319 1494 -204 q 1475 -525 1475 -433 q 1483 -621 1475 -603 q 1490 -633 1489 -633 q 1507 -601 1493 -633 q 1553 -362 1553 -494 q 1539 -207 1553 -258 z "},"":{"ha":1564,"x_min":22,"x_max":1596,"o":"m 1267 565 q 1307 590 1292 590 q 1333 574 1321 590 q 1344 522 1344 558 q 1333 446 1344 490 q 1324 400 1324 410 q 1381 392 1324 397 q 1426 384 1414 389 q 1446 364 1438 379 q 1454 339 1454 351 q 1439 265 1454 321 q 1413 64 1413 167 q 1418 0 1413 21 q 1435 -35 1429 -35 q 1465 1 1443 -35 q 1504 78 1488 38 q 1542 199 1521 117 q 1569 333 1563 281 q 1585 372 1574 372 q 1593 364 1589 372 q 1596 351 1596 358 q 1557 165 1596 303 q 1490 -15 1518 28 q 1439 -50 1468 -50 q 1375 10 1397 -50 q 1354 194 1354 65 q 1361 286 1354 247 q 1368 335 1368 324 q 1324 342 1368 339 q 1290 347 1300 344 q 907 208 1131 208 q 607 275 761 208 q 264 367 393 367 q 49 308 153 367 q 35 304 40 304 q 22 317 22 304 q 42 342 22 331 q 268 404 149 404 q 632 308 397 404 q 918 247 781 247 q 1261 369 1125 247 q 1222 465 1222 417 q 1267 565 1222 517 m 1301 465 q 1311 514 1311 499 q 1307 524 1311 524 q 1300 521 1306 524 q 1260 453 1260 496 q 1275 424 1260 431 l 1279 424 q 1301 465 1290 424 z "},"":{"ha":1557,"x_min":35,"x_max":1589,"o":"m 1357 607 q 1396 618 1375 618 q 1435 605 1418 618 q 1451 568 1451 592 q 1426 533 1451 533 q 1415 536 1424 533 q 1403 538 1411 538 q 1364 433 1364 538 q 1382 294 1364 343 q 1433 190 1403 235 l 1500 281 q 1574 371 1565 371 q 1588 360 1579 371 q 1589 357 1589 358 q 1521 254 1589 340 l 1446 157 l 1461 108 q 1476 7 1476 63 q 1417 -162 1476 -96 q 1310 -218 1365 -218 q 1257 -193 1275 -218 q 1250 -162 1250 -185 q 1281 -48 1250 -119 q 1358 90 1311 24 l 1394 142 l 1343 246 q 1294 401 1307 321 q 919 271 1138 271 q 619 338 774 271 q 276 429 406 429 q 61 371 165 429 q 47 367 53 367 q 35 379 35 367 q 54 404 35 393 q 281 467 161 467 q 644 371 410 467 q 931 310 793 310 q 1057 324 996 310 q 1158 357 1118 338 q 1230 398 1199 376 q 1275 432 1261 419 q 1290 447 1289 444 q 1313 553 1290 507 q 1357 607 1332 592 m 1408 19 q 1410 60 1410 36 q 1403 93 1410 93 q 1372 60 1394 93 q 1306 -62 1332 3 q 1281 -165 1281 -126 q 1283 -187 1281 -182 q 1291 -196 1286 -196 q 1313 -187 1296 -196 q 1408 19 1400 -142 z "},"":{"ha":1549,"x_min":-4,"x_max":1674,"o":"m 1342 808 q 1374 839 1357 839 q 1406 819 1389 839 q 1419 794 1419 804 q 1410 750 1419 792 q 1401 706 1401 717 q 1407 693 1401 696 q 1486 678 1418 688 q 1550 674 1522 674 q 1635 700 1613 674 l 1650 718 l 1663 700 q 1674 674 1674 685 q 1653 649 1674 661 q 1569 631 1625 631 q 1471 640 1524 631 q 1389 651 1408 651 l 1385 650 q 1365 582 1381 646 q 1308 153 1308 361 q 1344 -44 1308 -1 l 1363 -65 l 1388 -44 q 1451 59 1414 -22 q 1519 242 1489 140 q 1537 299 1528 269 q 1551 347 1546 329 q 1557 365 1557 364 q 1574 371 1560 375 q 1583 351 1583 367 q 1544 204 1583 321 q 1372 -81 1451 -81 q 1240 264 1240 -81 q 1244 393 1240 335 q 881 271 1092 271 q 581 338 735 271 q 238 429 367 429 q 22 371 126 429 q 8 367 14 367 q -4 379 -4 367 q 15 404 -4 393 q 239 465 118 465 q 606 369 374 465 q 892 308 754 308 q 1033 325 965 308 q 1145 368 1100 342 q 1213 411 1190 394 q 1249 442 1235 428 q 1276 603 1257 524 q 1289 672 1289 653 q 1213 688 1289 676 q 1153 693 1175 693 q 1101 682 1128 693 q 1067 671 1072 671 q 1056 676 1060 671 q 1053 688 1053 681 q 1064 710 1053 699 q 1094 726 1075 721 q 1150 732 1111 732 q 1274 721 1196 732 q 1294 718 1293 718 q 1307 724 1303 718 q 1317 747 1311 729 q 1342 808 1328 781 z "},"":{"ha":1668,"x_min":-4,"x_max":1711,"o":"m 1228 408 q 881 299 1074 299 q 581 365 735 299 q 238 457 367 457 q 22 399 126 457 q 8 394 14 394 q -4 407 -4 394 q 15 432 -4 421 q 239 493 118 493 q 606 397 374 493 q 892 336 754 336 q 1018 350 957 336 q 1119 383 1079 364 q 1191 424 1160 403 q 1236 458 1222 446 q 1251 474 1250 471 q 1271 483 1257 483 q 1293 481 1274 483 q 1342 465 1322 478 q 1361 436 1361 451 q 1336 346 1361 424 q 1308 179 1308 263 q 1315 129 1308 147 q 1323 118 1321 118 q 1338 129 1325 118 q 1421 296 1368 156 q 1474 428 1449 368 q 1506 472 1493 472 q 1515 471 1511 472 q 1557 421 1557 461 q 1528 290 1557 400 q 1496 96 1496 167 q 1510 25 1496 44 q 1536 8 1524 4 q 1583 82 1551 15 q 1643 236 1615 149 q 1679 363 1679 353 q 1688 381 1679 375 q 1707 379 1697 386 q 1711 368 1711 378 q 1683 250 1711 344 q 1574 0 1622 42 q 1525 -21 1549 -21 q 1457 26 1488 -21 q 1442 66 1444 46 q 1439 153 1439 86 l 1439 251 l 1413 190 q 1365 110 1386 129 q 1321 92 1346 92 q 1246 149 1275 92 q 1240 158 1244 150 q 1235 169 1236 167 q 1231 178 1235 171 q 1228 190 1228 186 q 1225 202 1228 193 q 1222 219 1222 211 q 1221 238 1222 226 q 1219 263 1219 249 q 1219 293 1219 276 q 1228 408 1219 371 z "},"":{"ha":1765,"x_min":0,"x_max":1807,"o":"m 1550 572 q 1572 485 1572 550 q 1558 368 1572 438 l 1588 356 q 1638 349 1603 349 q 1743 371 1694 349 q 1790 386 1781 386 q 1806 378 1801 386 q 1807 371 1807 375 q 1755 338 1807 353 q 1644 322 1703 322 q 1572 332 1600 322 l 1544 342 l 1526 276 q 1471 138 1513 222 q 1428 66 1446 86 q 1388 46 1410 46 q 1358 53 1376 46 q 1279 154 1307 69 q 1247 396 1247 247 l 1247 415 q 885 293 1090 293 q 585 360 739 293 q 242 451 371 451 q 26 393 131 451 q 13 389 18 389 q 0 401 0 389 q 19 426 0 415 q 243 488 122 488 q 610 392 378 488 q 896 331 758 331 q 1022 344 961 331 q 1124 378 1083 358 q 1195 419 1164 397 q 1240 453 1226 440 q 1256 468 1254 465 l 1257 468 q 1292 483 1265 483 q 1339 471 1314 483 l 1363 458 l 1357 322 q 1356 240 1356 292 q 1378 85 1356 119 q 1407 97 1388 72 q 1457 184 1429 124 q 1499 297 1485 244 l 1514 358 l 1492 383 q 1451 494 1451 431 q 1469 559 1451 528 q 1513 590 1488 590 q 1550 572 1532 590 m 1525 439 q 1532 488 1532 453 q 1525 536 1532 522 q 1520 547 1522 544 q 1517 547 1518 549 q 1513 538 1515 544 q 1508 500 1508 522 q 1513 450 1508 478 q 1519 431 1515 432 q 1525 439 1521 429 z "}}}
